<?xml version="1.0" encoding="utf-8"?>
<!-- Generator: Adobe Illustrator 25.2.3, SVG Export Plug-In . SVG Version: 6.00 Build 0)  -->
<svg version="1.1" id="Layer_1" xmlns="http://www.w3.org/2000/svg" xmlns:xlink="http://www.w3.org/1999/xlink" x="0px" y="0px"
	 viewBox="0 0 382.3 77.9" style="enable-background:new 0 0 382.3 77.9;" xml:space="preserve">
<style type="text/css">
	.st0{fill:#FFFFFF;}
</style>
<g>
	<g>
		<g>
			<path class="st0" d="M0,29.4h15.9c3.1,0,5.6-0.9,7.3-2.7c1.8-1.8,2.7-4.1,2.7-6.8s-0.9-5-2.7-6.8c-1.8-1.8-4.2-2.7-7.3-2.7H8.8V8
				h15.4V0.4H0V29.4z M16.4,18.5c0.4,0.3,0.6,0.8,0.6,1.4s-0.2,1.1-0.6,1.4s-0.9,0.5-1.6,0.5h-6v-3.7h6C15.5,18,16,18.2,16.4,18.5z"
				/>
			<path class="st0" d="M47.4,0.4h-11l-10.7,29h10l1-3.4h10.4l1,3.4h10L47.4,0.4z M39,18.4l2.9-9.3l2.9,9.3H39z"/>
			<path class="st0" d="M90.1,29.4h15.5c3.3,0,5.8-0.9,7.7-2.8c1.8-1.9,2.8-4.3,2.8-7.1s-0.9-5.2-2.8-7.1c-1.8-1.9-4.4-2.8-7.7-2.8
				h-6.7V0.4h-8.8V29.4z M106.4,17.8c0.5,0.4,0.7,0.9,0.7,1.7c0,0.8-0.2,1.3-0.7,1.7c-0.5,0.4-1.1,0.6-1.9,0.6h-5.6v-4.6h5.6
				C105.2,17.2,105.9,17.4,106.4,17.8z M126.6,0.4h-8.8v29h8.8V0.4z"/>
			<path class="st0" d="M146.3,8h7.7V0.4h-24.3v7.7h7.8v21.3h8.8V8z"/>
			<path class="st0" d="M0,29.4h15.9c3.1,0,5.6-0.9,7.3-2.7c1.8-1.8,2.7-4.1,2.7-6.8s-0.9-5-2.7-6.8c-1.8-1.8-4.2-2.7-7.3-2.7H8.8V8
				h15.4V0.4H0V29.4z M16.4,18.5c0.4,0.3,0.6,0.8,0.6,1.4s-0.2,1.1-0.6,1.4s-0.9,0.5-1.6,0.5h-6v-3.7h6C15.5,18,16,18.2,16.4,18.5z"
				/>
			<path class="st0" d="M47.4,0.4h-11l-10.7,29h10l1-3.4h10.4l1,3.4h10L47.4,0.4z M39,18.4l2.9-9.3l2.9,9.3H39z"/>
			<path class="st0" d="M90.1,29.4h15.5c3.3,0,5.8-0.9,7.7-2.8c1.8-1.9,2.8-4.3,2.8-7.1s-0.9-5.2-2.8-7.1c-1.8-1.9-4.4-2.8-7.7-2.8
				h-6.7V0.4h-8.8V29.4z M106.4,17.8c0.5,0.4,0.7,0.9,0.7,1.7c0,0.8-0.2,1.3-0.7,1.7c-0.5,0.4-1.1,0.6-1.9,0.6h-5.6v-4.6h5.6
				C105.2,17.2,105.9,17.4,106.4,17.8z M126.6,0.4h-8.8v29h8.8V0.4z"/>
			<path class="st0" d="M146.3,8h7.7V0.4h-24.3v7.7h7.8v21.3h8.8V8z"/>
			<polygon class="st0" points="83.5,24.3 75.8,13.9 86.8,0.4 76,0.4 68.4,11.3 68.4,0.4 59.6,0.4 59.6,29.4 68.4,29.4 68.4,21.4 
				70,19.2 76.5,29.4 80.8,29.4 80.8,33.1 87.4,33.1 87.4,24.3 			"/>
		</g>
		<g>
			<path class="st0" d="M173.7,34.8v-5.3h14.4v5.3h8.8v-13h-2.5V0.4h-22.7l-1.8,14.7c-0.3,2.6-0.9,4.4-1.7,5.3
				c-0.8,1-1.9,1.6-3.3,1.8v12.6H173.7z M179.6,8.1h6v13.7h-9.7c1.6-1.7,2.5-3.7,2.8-6.1L179.6,8.1z"/>
			<path class="st0" d="M267.5,0.4h-12.1l-5.1,13.9l-5.1-13.9H233v29h8.8V12l6.5,17.4h3.9l6.5-17.4v17.4h8.8V0.4z"/>
			<path class="st0" d="M281,0.4h-8.8v29h8.8V0.4z"/>
			<path class="st0" d="M296.7,29.4h15.9c3.1,0,5.6-0.9,7.3-2.7c1.8-1.8,2.7-4.1,2.7-6.8s-0.9-5-2.7-6.8c-1.8-1.8-4.2-2.7-7.3-2.7
				h-7.1V8.1h15.4V0.4h-24.2L296.7,29.4L296.7,29.4z M313.1,18.5c0.4,0.3,0.6,0.8,0.6,1.4s-0.2,1.1-0.6,1.4s-0.9,0.5-1.6,0.5h-6
				v-3.7h6C312.2,18.1,312.7,18.2,313.1,18.5z"/>
			<path class="st0" d="M344.1,0.4h-11l-10.7,29h10l1-3.4h10.4l1,3.4h10L344.1,0.4z M335.7,18.4l2.9-9.3l2.9,9.3H335.7z"/>
			<path class="st0" d="M365.1,20.3h6.7c3.3,0,5.8-0.9,7.7-2.8c1.8-1.9,2.8-4.3,2.8-7.1s-0.9-5.2-2.8-7.1c-1.8-1.9-4.4-2.8-7.7-2.8
				h-15.5v29h8.8V20.3z M365.1,12.7V8.1h5.6c0.8,0,1.4,0.2,1.9,0.6c0.5,0.4,0.7,1,0.7,1.7s-0.2,1.3-0.7,1.7s-1.1,0.6-1.9,0.6
				C370.7,12.7,365.1,12.7,365.1,12.7z"/>
			<path class="st0" d="M173.7,34.8v-5.3h14.4v5.3h8.8v-13h-2.5V0.4h-22.7l-1.8,14.7c-0.3,2.6-0.9,4.4-1.7,5.3
				c-0.8,1-1.9,1.6-3.3,1.8v12.6H173.7z M179.6,8.1h6v13.7h-9.7c1.6-1.7,2.5-3.7,2.8-6.1L179.6,8.1z"/>
			<path class="st0" d="M225.4,4.2c-3-2.8-6.8-4.2-11.3-4.2s-8.3,1.4-11.3,4.2c-1.2,1.1-2.1,2.2-2.8,3.5h13.5c0,0,0.4,0,0.6,0
				c2.1,0,3.7,0.7,5,2.1c0.3,0.4,0.6,0.7,0.9,1.1h-11.8h-9.5l0,0l0,0c-0.3,1.3-0.5,2.6-0.5,4c0,4.4,1.5,8,4.5,10.8s6.8,4.2,11.3,4.2
				s8.3-1.4,11.3-4.2s4.5-6.4,4.5-10.8C229.9,10.6,228.4,7,225.4,4.2z M214.1,22.2c-2.1,0-3.7-0.7-5-2.1c-0.7-0.8-1.2-1.7-1.5-2.6
				h13.1c-0.3,1-0.8,1.9-1.5,2.6C217.8,21.5,216.1,22.2,214.1,22.2z"/>
			<path class="st0" d="M267.5,0.4h-12.1l-5.1,13.9l-5.1-13.9H233v29h8.8V12l6.5,17.4h3.9l6.5-17.4v17.4h8.8V0.4z"/>
			<path class="st0" d="M281,0.4h-8.8v29h8.8V0.4z"/>
			<path class="st0" d="M296.7,29.4h15.9c3.1,0,5.6-0.9,7.3-2.7c1.8-1.8,2.7-4.1,2.7-6.8s-0.9-5-2.7-6.8c-1.8-1.8-4.2-2.7-7.3-2.7
				h-7.1V8.1h15.4V0.4h-24.2L296.7,29.4L296.7,29.4z M313.1,18.5c0.4,0.3,0.6,0.8,0.6,1.4s-0.2,1.1-0.6,1.4s-0.9,0.5-1.6,0.5h-6
				v-3.7h6C312.2,18.1,312.7,18.2,313.1,18.5z"/>
			<path class="st0" d="M344.1,0.4h-11l-10.7,29h10l1-3.4h10.4l1,3.4h10L344.1,0.4z M335.7,18.4l2.9-9.3l2.9,9.3H335.7z"/>
			<path class="st0" d="M365.1,20.3h6.7c3.3,0,5.8-0.9,7.7-2.8c1.8-1.9,2.8-4.3,2.8-7.1s-0.9-5.2-2.8-7.1c-1.8-1.9-4.4-2.8-7.7-2.8
				h-15.5v29h8.8V20.3z M365.1,12.7V8.1h5.6c0.8,0,1.4,0.2,1.9,0.6c0.5,0.4,0.7,1,0.7,1.7s-0.2,1.3-0.7,1.7s-1.1,0.6-1.9,0.6
				C370.7,12.7,365.1,12.7,365.1,12.7z"/>
		</g>
	</g>
	<g>
		<path class="st0" d="M62.1,72.6H78c3.1,0,5.6-0.9,7.3-2.7c1.8-1.8,2.7-4.1,2.7-6.8s-0.9-5-2.7-6.8c-1.8-1.8-4.2-2.7-7.3-2.7h-7.1
			v-2.3h15.4v-7.7H62.1V72.6z M78.4,61.7c0.4,0.3,0.6,0.8,0.6,1.4s-0.2,1.1-0.6,1.4C78,64.8,77.5,65,76.8,65h-6v-3.7h6
			C77.6,61.2,78.1,61.4,78.4,61.7z"/>
		<path class="st0" d="M106.6,66.8l11.6-23.2h-9.8L103,55.4l-5.3-11.8h-9.8L98.1,64c-0.6,0.9-1.6,1.4-2.9,1.4
			c-1.2,0-2.5-0.4-3.7-1.3l-3.6,6.7c2,1.6,4.7,2.3,8.1,2.3C100.8,73.1,104.3,71,106.6,66.8L106.6,66.8z"/>
		<path class="st0" d="M134.6,51.2h7.7v-7.7h-24.2v7.7h7.8v21.3h8.8V51.2H134.6z"/>
		<path class="st0" d="M167.6,64.9h-13.2v-3.2h12.9V54h-12.9v-2.9h13.2v-7.7h-22v29h22V64.9z"/>
		<path class="st0" d="M180.2,63.5h6.7c3.3,0,5.8-0.9,7.7-2.8c1.8-1.9,2.8-4.3,2.8-7.1s-0.9-5.2-2.8-7.1c-1.8-1.9-4.4-2.8-7.7-2.8
			h-15.5v29h8.8V63.5z M180.2,55.8v-4.6h5.6c0.8,0,1.4,0.2,1.9,0.6s0.7,1,0.7,1.7s-0.2,1.3-0.7,1.7s-1.1,0.6-1.9,0.6H180.2z"/>
		<path class="st0" d="M200.2,72.6h15.9c3.1,0,5.6-0.9,7.3-2.7c1.8-1.8,2.7-4.1,2.7-6.8s-0.9-5-2.7-6.8s-4.2-2.7-7.3-2.7H209v-2.3
			h15.4v-7.7h-24.2L200.2,72.6L200.2,72.6z M216.7,61.7c0.4,0.3,0.6,0.8,0.6,1.4s-0.2,1.1-0.6,1.4c-0.4,0.3-0.9,0.5-1.6,0.5h-6v-3.7
			h6C215.7,61.2,216.2,61.4,216.7,61.7z"/>
		<path class="st0" d="M237.8,63.5h6.7c3.3,0,5.8-0.9,7.7-2.8c1.8-1.9,2.8-4.3,2.8-7.1s-0.9-5.2-2.8-7.1c-1.8-1.9-4.4-2.8-7.7-2.8
			h-15.4v29h8.8v-9.2C237.9,63.5,237.8,63.5,237.8,63.5z M237.8,55.8v-4.6h5.6c0.8,0,1.4,0.2,1.9,0.6s0.7,1,0.7,1.7
			s-0.2,1.3-0.7,1.7s-1.1,0.6-1.9,0.6C243.4,55.8,237.8,55.8,237.8,55.8z"/>
		<path class="st0" d="M287.9,58.1c0-4.4-1.5-8-4.5-10.8s-6.8-4.2-11.3-4.2s-8.3,1.4-11.3,4.2s-4.5,6.4-4.5,10.8s1.5,8,4.5,10.8
			s6.8,4.2,11.3,4.2s8.3-1.4,11.3-4.2C286.4,66.1,287.9,62.5,287.9,58.1z M265.1,58.1c0-2.1,0.6-3.8,1.9-5.2s3-2.1,5-2.1
			c2.1,0,3.7,0.7,5,2.1c1.3,1.4,1.9,3.1,1.9,5.2s-0.6,3.8-1.9,5.2c-1.3,1.4-3,2.1-5,2.1c-2.1,0-3.7-0.7-5-2.1
			C265.8,61.9,265.1,60.2,265.1,58.1z"/>
		<path class="st0" d="M297,77.9v-5.3h14.4v5.3h8.8v-13h-2.5V43.6H295l-1.8,14.6c-0.3,2.6-0.9,4.4-1.7,5.3c-0.8,1-1.9,1.6-3.3,1.8
			v12.6C288.2,77.9,297,77.9,297,77.9z M302.9,51.2h6v13.7h-9.7c1.6-1.7,2.5-3.7,2.8-6.1L302.9,51.2z"/>
		<path class="st0" d="M62.1,72.6H78c3.1,0,5.6-0.9,7.3-2.7c1.8-1.8,2.7-4.1,2.7-6.8s-0.9-5-2.7-6.8c-1.8-1.8-4.2-2.7-7.3-2.7h-7.1
			v-2.3h15.4v-7.7H62.1V72.6z M78.4,61.7c0.4,0.3,0.6,0.8,0.6,1.4s-0.2,1.1-0.6,1.4C78,64.8,77.5,65,76.8,65h-6v-3.7h6
			C77.6,61.2,78.1,61.4,78.4,61.7z"/>
		<path class="st0" d="M106.6,66.8l11.6-23.2h-9.8L103,55.4l-5.3-11.8h-9.8L98.1,64c-0.6,0.9-1.6,1.4-2.9,1.4
			c-1.2,0-2.5-0.4-3.7-1.3l-3.6,6.7c2,1.6,4.7,2.3,8.1,2.3C100.8,73.1,104.3,71,106.6,66.8L106.6,66.8z"/>
		<path class="st0" d="M134.6,51.2h7.7v-7.7h-24.2v7.7h7.8v21.3h8.8V51.2H134.6z"/>
		<path class="st0" d="M167.6,64.9h-13.2v-3.2h12.9V54h-12.9v-2.9h13.2v-7.7h-22v29h22V64.9z"/>
		<path class="st0" d="M180.2,63.5h6.7c3.3,0,5.8-0.9,7.7-2.8c1.8-1.9,2.8-4.3,2.8-7.1s-0.9-5.2-2.8-7.1c-1.8-1.9-4.4-2.8-7.7-2.8
			h-15.5v29h8.8V63.5z M180.2,55.8v-4.6h5.6c0.8,0,1.4,0.2,1.9,0.6s0.7,1,0.7,1.7s-0.2,1.3-0.7,1.7s-1.1,0.6-1.9,0.6H180.2z"/>
		<path class="st0" d="M200.2,72.6h15.9c3.1,0,5.6-0.9,7.3-2.7c1.8-1.8,2.7-4.1,2.7-6.8s-0.9-5-2.7-6.8s-4.2-2.7-7.3-2.7H209v-2.3
			h15.4v-7.7h-24.2L200.2,72.6L200.2,72.6z M216.7,61.7c0.4,0.3,0.6,0.8,0.6,1.4s-0.2,1.1-0.6,1.4c-0.4,0.3-0.9,0.5-1.6,0.5h-6v-3.7
			h6C215.7,61.2,216.2,61.4,216.7,61.7z"/>
		<path class="st0" d="M237.8,63.5h6.7c3.3,0,5.8-0.9,7.7-2.8c1.8-1.9,2.8-4.3,2.8-7.1s-0.9-5.2-2.8-7.1c-1.8-1.9-4.4-2.8-7.7-2.8
			h-15.4v29h8.8v-9.2C237.9,63.5,237.8,63.5,237.8,63.5z M237.8,55.8v-4.6h5.6c0.8,0,1.4,0.2,1.9,0.6s0.7,1,0.7,1.7
			s-0.2,1.3-0.7,1.7s-1.1,0.6-1.9,0.6C243.4,55.8,237.8,55.8,237.8,55.8z"/>
		<path class="st0" d="M287.9,58.1c0-4.4-1.5-8-4.5-10.8s-6.8-4.2-11.3-4.2s-8.3,1.4-11.3,4.2s-4.5,6.4-4.5,10.8s1.5,8,4.5,10.8
			s6.8,4.2,11.3,4.2s8.3-1.4,11.3-4.2C286.4,66.1,287.9,62.5,287.9,58.1z M265.1,58.1c0-2.1,0.6-3.8,1.9-5.2s3-2.1,5-2.1
			c2.1,0,3.7,0.7,5,2.1c1.3,1.4,1.9,3.1,1.9,5.2s-0.6,3.8-1.9,5.2c-1.3,1.4-3,2.1-5,2.1c-2.1,0-3.7-0.7-5-2.1
			C265.8,61.9,265.1,60.2,265.1,58.1z"/>
		<path class="st0" d="M297,77.9v-5.3h14.4v5.3h8.8v-13h-2.5V43.6H295l-1.8,14.6c-0.3,2.6-0.9,4.4-1.7,5.3c-0.8,1-1.9,1.6-3.3,1.8
			v12.6C288.2,77.9,297,77.9,297,77.9z M302.9,51.2h6v13.7h-9.7c1.6-1.7,2.5-3.7,2.8-6.1L302.9,51.2z"/>
	</g>
</g>
</svg>
