<?xml version="1.0" encoding="utf-8"?>
<!-- Generator: Adobe Illustrator 27.3.1, SVG Export Plug-In . SVG Version: 6.00 Build 0)  -->
<svg version="1.1" id="Layer_1" xmlns="http://www.w3.org/2000/svg" xmlns:xlink="http://www.w3.org/1999/xlink" x="0px" y="0px"
	 viewBox="0 0 106.1 29.4" style="enable-background:new 0 0 106.1 29.4;" xml:space="preserve">
<style type="text/css">
	.st0{fill:#FFFFFF;}
</style>
<g>
	<path class="st0" d="M12.1,11.3H9.7V3.5l-3.1,7.8h-1L2.4,3.5v7.8H0V0.2h3.3L6,6.9l2.7-6.7h3.3V11.3z"/>
	<path class="st0" d="M21.3,11.3h-2.1v-0.8c-0.6,0.7-1.4,1-2.6,1c-0.7,0-1.4-0.2-1.9-0.7s-0.9-1.1-0.9-2c0-0.9,0.3-1.5,0.8-2
		c0.6-0.4,1.2-0.7,2-0.7c1.1,0,2,0.3,2.6,1V6.1c0-0.4-0.2-0.7-0.5-1S18,4.8,17.5,4.8c-0.9,0-1.7,0.3-2.4,1l-0.8-1.4
		c1-0.8,2.1-1.3,3.5-1.3c1,0,1.9,0.2,2.5,0.7c0.7,0.5,1,1.3,1,2.3V11.3z M17.5,10.1c0.8,0,1.4-0.2,1.7-0.7v-1
		c-0.3-0.5-0.9-0.7-1.7-0.7c-0.4,0-0.8,0.1-1.1,0.3C16.2,8.2,16,8.5,16,8.9c0,0.4,0.1,0.7,0.4,0.9C16.7,10,17.1,10.1,17.5,10.1z"/>
	<path class="st0" d="M26.9,14.6c-1.4,0-2.5-0.4-3.5-1.2l1-1.5c0.6,0.7,1.4,1,2.5,1c0.6,0,1.1-0.2,1.6-0.5c0.4-0.3,0.7-0.8,0.7-1.6
		V10c-0.7,0.8-1.5,1.3-2.5,1.3c-1,0-1.9-0.4-2.6-1.1c-0.7-0.7-1-1.7-1-3c0-1.3,0.3-2.3,1-3c0.7-0.7,1.5-1.1,2.6-1.1
		c1,0,1.8,0.4,2.5,1.2v-1h2.1v7.5c0,0.7-0.1,1.4-0.4,1.9c-0.3,0.5-0.6,0.9-1.1,1.2c-0.4,0.3-0.9,0.5-1.4,0.6
		C28,14.5,27.5,14.6,26.9,14.6z M27.3,9.4c0.3,0,0.7-0.1,1-0.3s0.6-0.4,0.8-0.7V5.9c-0.2-0.3-0.4-0.5-0.8-0.7
		c-0.3-0.2-0.7-0.3-1-0.3c-0.6,0-1.1,0.2-1.5,0.6c-0.4,0.4-0.6,0.9-0.6,1.6c0,0.7,0.2,1.2,0.6,1.6C26.2,9.2,26.7,9.4,27.3,9.4z"/>
	<path class="st0" d="M41.1,11.3H39V6.4c0-1-0.5-1.5-1.5-1.5c-0.8,0-1.4,0.3-1.8,1v5.4h-2.1V3.3h2.1v1.1c0.7-0.8,1.6-1.3,2.8-1.3
		c0.9,0,1.5,0.2,2,0.7c0.4,0.5,0.7,1.1,0.7,1.9V11.3z"/>
	<path class="st0" d="M50.9,11.3h-2.1v-1c-0.7,0.8-1.7,1.2-2.8,1.2c-0.9,0-1.5-0.2-2-0.7c-0.4-0.4-0.7-1.1-0.7-1.9V3.3h2.1v4.9
		c0,1,0.5,1.5,1.5,1.5c0.7,0,1.4-0.3,1.8-0.9V3.3h2.1V11.3z"/>
	<path class="st0" d="M65.3,11.3h-2.1V6.2c0-0.9-0.4-1.3-1.2-1.3c-0.3,0-0.7,0.1-1,0.3c-0.3,0.2-0.5,0.4-0.7,0.7v5.4h-2.1V6.2
		c0-0.9-0.4-1.3-1.2-1.3c-0.3,0-0.7,0.1-1,0.3c-0.3,0.2-0.5,0.4-0.7,0.7v5.4h-2.1V3.3h2.1v1.1c0.2-0.3,0.6-0.6,1.1-0.8
		c0.5-0.3,1-0.4,1.6-0.4c1.2,0,1.9,0.5,2.2,1.5c0.3-0.4,0.6-0.7,1.1-1c0.5-0.3,1-0.4,1.6-0.4c0.8,0,1.3,0.2,1.8,0.6
		c0.4,0.4,0.6,1,0.6,1.8V11.3z"/>
	<path class="st0" d="M77.5,11.5c-1.7,0-3.1-0.5-4.2-1.6s-1.7-2.5-1.7-4.1c0-1.7,0.6-3.1,1.7-4.1S75.8,0,77.5,0
		c2.1,0,3.6,0.9,4.7,2.7l-2,1c-0.2-0.5-0.6-0.9-1.1-1.2c-0.5-0.3-1-0.5-1.5-0.5c-1,0-1.8,0.3-2.5,1s-1,1.6-1,2.6
		c0,1.1,0.3,1.9,1,2.6c0.7,0.7,1.5,1,2.5,1C78,9.4,78.5,9.3,79,9c0.5-0.3,0.8-0.7,1.1-1.2l2,1C81.1,10.6,79.5,11.5,77.5,11.5z"/>
	<path class="st0" d="M85.8,11.3h-2.1V0.2h2.1V11.3z"/>
	<path class="st0" d="M95.6,11.3h-2.1v-1c-0.7,0.8-1.7,1.2-2.8,1.2c-0.9,0-1.5-0.2-2-0.7c-0.4-0.4-0.7-1.1-0.7-1.9V3.3h2.1v4.9
		c0,1,0.5,1.5,1.5,1.5c0.7,0,1.4-0.3,1.8-0.9V3.3h2.1V11.3z"/>
	<path class="st0" d="M100,11.3h-2.1V0.2h2.1v4.1c0.6-0.8,1.5-1.2,2.5-1.2c1,0,1.9,0.4,2.6,1.2c0.7,0.8,1,1.8,1,3.1
		c0,1.3-0.3,2.3-1,3.1c-0.7,0.8-1.5,1.1-2.6,1.1c-1,0-1.8-0.4-2.5-1.2V11.3z M100,8.7c0.2,0.3,0.4,0.5,0.8,0.6s0.7,0.3,1,0.3
		c0.6,0,1.1-0.2,1.5-0.6s0.6-1,0.6-1.7s-0.2-1.3-0.6-1.7c-0.4-0.4-0.9-0.7-1.5-0.7c-0.3,0-0.7,0.1-1,0.3c-0.3,0.2-0.6,0.4-0.8,0.7
		V8.7z"/>
	<path class="st0" d="M39.4,26.3h-2.7l-2.1-3.1l-1,1v2.1h-2.1v-8.1h2.1v3.6l3.1-3.6h2.6l-3.2,3.7L39.4,26.3z"/>
	<path class="st0" d="M47.6,26.3h-2.1v-0.8c-0.6,0.7-1.4,1-2.6,1c-0.7,0-1.4-0.2-1.9-0.7s-0.9-1.1-0.9-2c0-0.9,0.3-1.5,0.8-2
		c0.6-0.4,1.2-0.7,2-0.7c1.1,0,2,0.3,2.6,1v-1.1c0-0.4-0.2-0.7-0.5-1c-0.3-0.2-0.8-0.4-1.3-0.4c-0.9,0-1.7,0.3-2.4,1l-0.8-1.4
		c1-0.8,2.1-1.3,3.5-1.3c1,0,1.9,0.2,2.5,0.7c0.7,0.5,1,1.3,1,2.3V26.3z M43.8,25.1c0.8,0,1.4-0.2,1.7-0.7v-1
		c-0.3-0.5-0.9-0.7-1.7-0.7c-0.4,0-0.8,0.1-1.1,0.3c-0.3,0.2-0.4,0.5-0.4,0.9c0,0.4,0.1,0.7,0.4,0.9C43,25,43.3,25.1,43.8,25.1z"/>
	<path class="st0" d="M54.5,26.5c-1,0-1.8-0.4-2.5-1.2v4.1h-2.1V18.3H52v1c0.6-0.8,1.5-1.2,2.5-1.2c1.1,0,1.9,0.4,2.6,1.1
		c0.7,0.8,1,1.8,1,3.1c0,1.3-0.3,2.3-1,3.1S55.5,26.5,54.5,26.5z M53.8,24.6c0.6,0,1.1-0.2,1.5-0.7c0.4-0.4,0.6-1,0.6-1.7
		c0-0.7-0.2-1.3-0.6-1.7c-0.4-0.4-0.9-0.7-1.5-0.7c-0.3,0-0.7,0.1-1,0.3s-0.6,0.4-0.8,0.7v2.9c0.2,0.3,0.4,0.5,0.8,0.7
		C53.1,24.5,53.5,24.6,53.8,24.6z"/>
	<path class="st0" d="M63.4,26.3h-2.1v-6.2H59v-1.9h6.6v1.9h-2.3V26.3z"/>
	<path class="st0" d="M74.1,26.3H72v-0.8c-0.6,0.7-1.4,1-2.6,1c-0.7,0-1.4-0.2-1.9-0.7s-0.9-1.1-0.9-2c0-0.9,0.3-1.5,0.8-2
		c0.6-0.4,1.2-0.7,2-0.7c1.1,0,2,0.3,2.6,1v-1.1c0-0.4-0.2-0.7-0.5-1c-0.3-0.2-0.8-0.4-1.3-0.4c-0.9,0-1.7,0.3-2.4,1l-0.8-1.4
		c1-0.8,2.1-1.3,3.5-1.3c1,0,1.9,0.2,2.5,0.7s1,1.3,1,2.3V26.3z M70.3,25.1c0.8,0,1.4-0.2,1.7-0.7v-1c-0.3-0.5-0.9-0.7-1.7-0.7
		c-0.4,0-0.8,0.1-1.1,0.3c-0.3,0.2-0.4,0.5-0.4,0.9c0,0.4,0.1,0.7,0.4,0.9C69.5,25,69.8,25.1,70.3,25.1z"/>
	<path class="st0" d="M80.1,26.5c-1.2,0-2.3-0.4-3.1-1.2c-0.8-0.8-1.2-1.8-1.2-3.1c0-1.2,0.4-2.2,1.2-3c0.8-0.8,1.8-1.2,3.1-1.2
		c1.4,0,2.5,0.5,3.2,1.5l-1.4,1.3c-0.4-0.6-1-0.9-1.7-0.9c-0.6,0-1.2,0.2-1.6,0.6c-0.4,0.4-0.6,1-0.6,1.7s0.2,1.3,0.6,1.7
		c0.4,0.4,0.9,0.7,1.6,0.7c0.7,0,1.3-0.3,1.7-0.9l1.4,1.3C82.6,26,81.6,26.5,80.1,26.5z"/>
	<path class="st0" d="M84.9,18.3H87V21h2.8c0.9,0,1.6,0.2,2.1,0.8c0.5,0.5,0.7,1.1,0.7,1.9c0,0.7-0.2,1.4-0.8,1.9s-1.2,0.8-2.1,0.8
		h-4.9V18.3z M89.4,22.8H87v1.7h2.4c0.3,0,0.5-0.1,0.7-0.2c0.2-0.2,0.3-0.4,0.3-0.6s-0.1-0.5-0.3-0.6S89.7,22.8,89.4,22.8z
		 M95.7,26.3h-2.1v-8.1h2.1V26.3z"/>
	<path class="st0" d="M100.1,26.3H98v-8.1h2.1v3h3.3v-3h2.1v8.1h-2.1v-3.2h-3.3V26.3z"/>
</g>
</svg>
