<svg xmlns="http://www.w3.org/2000/svg" xml:space="preserve" id="Layer_1" x="0" y="0" viewBox="0 0 418.2 80.4"><style>.st0{fill:#fff}</style><path d="M98.2.5h22.4v6.4h-15v3.7h7.2c3 0 5.4.9 7.1 2.6 1.7 1.8 2.6 4 2.6 6.6s-.9 4.8-2.6 6.6-4.1 2.7-7.1 2.7H98.2zM111.9 17h-6.3v5.6h6.3c.9 0 1.7-.3 2.2-.8q.9-.75.9-2.1c0-.9-.3-1.5-.9-2-.6-.4-1.3-.7-2.2-.7M130.6 29.6c-3 0-5.5-.7-7.3-2.2l2.9-5.8c1.3.9 2.5 1.4 3.7 1.4.9 0 1.6-.2 2.1-.5s1-.9 1.4-1.7L123.1.5h8.3l6.2 13.4L143.8.5h8.3l-11.6 23c-2 4.1-5.3 6.1-9.9 6.1M168.5 29.1h-7.4V6.9h-8V.5h23.4v6.4h-8zM201.5 29.1h-21V.5h21v6.4h-13.6v4.5h13.3v6.4h-13.3v4.9h13.6zM213.6 29.1h-7.4V.5h14.3c3.1 0 5.5.9 7.3 2.7s2.7 4.1 2.7 6.8-.9 4.9-2.7 6.8c-1.8 1.8-4.2 2.7-7.3 2.7h-7v9.6zm5.9-16c1 0 1.8-.3 2.5-.8.6-.5 1-1.3 1-2.2 0-1-.3-1.7-1-2.3-.6-.5-1.5-.8-2.5-.8h-6v6.1zM234.2.5h22.4v6.4h-15v3.7h7.2c3 0 5.4.9 7.1 2.6 1.7 1.8 2.6 4 2.6 6.6s-.9 4.8-2.6 6.6-4.1 2.7-7.1 2.7h-14.6zM247.9 17h-6.3v5.6h6.3c.9 0 1.7-.3 2.2-.8q.9-.75.9-2.1c0-.9-.3-1.5-.9-2-.5-.4-1.3-.7-2.2-.7M287.1 25.5c-2.9 2.8-6.5 4.2-11 4.2s-8.1-1.4-11-4.2-4.4-6.3-4.4-10.6 1.5-7.9 4.4-10.6c2.9-2.8 6.6-4.2 11-4.2s8.1 1.4 11 4.2 4.3 6.3 4.3 10.6c0 4.2-1.4 7.8-4.3 10.6m-11-2.4c2.3 0 4.2-.8 5.6-2.4s2.1-3.5 2.1-5.9-.7-4.4-2.1-5.9c-1.4-1.6-3.3-2.4-5.6-2.4q-3.45 0-5.7 2.4c-1.4 1.6-2.1 3.5-2.1 5.9s.7 4.4 2.1 5.9 3.4 2.4 5.7 2.4M292.6 34.4V23.1c1.5-.2 2.7-.9 3.5-1.9.8-1.1 1.4-3.1 1.7-6.2L299.5.5h21.3v22.2h2.6v11.7H316v-5.3h-16v5.3zm12.6-18.9c-.4 3-1.4 5.4-3.1 7.1h11.5V6.9h-7.3zM15.5 75.6c-4.4 0-8.1-1.4-11.1-4.1S0 65.2 0 60.8s1.5-7.9 4.4-10.7C7.3 47.4 11 46 15.5 46c5.8 0 9.9 2.6 12.5 7.7l-6.4 3q-.75-1.8-2.4-3c-1.1-.8-2.4-1.2-3.7-1.2q-3.45 0-5.7 2.4c-2.25 2.4-2.3 3.6-2.3 5.9s.8 4.3 2.3 5.9 3.4 2.4 5.7 2.4c1.3 0 2.6-.4 3.7-1.2q1.65-1.2 2.4-3l6.4 3c-1.1 2.2-2.7 4-4.7 5.5-2.1 1.5-4.7 2.2-7.8 2.2M56.4 71.5c-2.9 2.8-6.5 4.2-11 4.2s-8.1-1.4-11-4.2S30 65.2 30 60.9s1.5-7.9 4.4-10.6 6.6-4.2 11-4.2 8.1 1.4 11 4.2 4.3 6.3 4.3 10.6c.1 4.2-1.4 7.8-4.3 10.6m-10.9-2.4c2.3 0 4.2-.8 5.6-2.4s2.1-3.5 2.1-5.9-.7-4.4-2.1-5.9c-1.4-1.6-3.3-2.4-5.6-2.4q-3.45 0-5.7 2.4c-1.4 1.6-2.1 3.5-2.1 5.9s.7 4.4 2.1 5.9 3.3 2.4 5.7 2.4M93.1 75.1H76.3V46.5h16.2c2.7 0 4.7.7 6.2 2.2s2.2 3.2 2.2 5.1c0 1.7-.5 3.2-1.4 4.3-.9 1.2-2.1 1.9-3.5 2.2 1.5.2 2.8 1 3.9 2.3s1.6 2.9 1.6 4.7c0 2.2-.7 4.1-2.2 5.5s-3.5 2.3-6.2 2.3m-2.2-17.6c.7 0 1.4-.2 1.8-.7.5-.4.7-1 .7-1.7s-.2-1.3-.7-1.7-1.1-.7-1.8-.7h-7.2v4.8zm.3 11.4c.9 0 1.6-.2 2.1-.7s.8-1.1.8-1.9c0-.7-.3-1.4-.8-1.8-.5-.5-1.2-.7-2.1-.7h-7.4V69h7.4zM131.9 75.1h-9.1l-7.5-10.8-1.9 2.4v8.4H106V46.5h7.4v11.8l8.8-11.8h9.1l-11.1 13.4z" class="st0"/><path d="M138.9 75.6c-3 0-5.5-.7-7.3-2.2l2.9-5.8c1.3.9 2.5 1.4 3.7 1.4.9 0 1.6-.2 2.1-.5s1-.9 1.4-1.7l-10.3-20.5h8.3l6.2 13.4 6.2-13.4h8.3l-11.6 23c-2 4.3-5.3 6.3-9.9 6.3M176.2 75.6c-4.4 0-8.1-1.4-11.1-4.1s-4.4-6.3-4.4-10.7 1.5-7.9 4.4-10.7c2.9-2.7 6.6-4.1 11.1-4.1 5.8 0 9.9 2.6 12.5 7.7l-6.4 3q-.75-1.8-2.4-3c-1.1-.8-2.4-1.2-3.7-1.2q-3.45 0-5.7 2.4c-2.25 2.4-2.3 3.6-2.3 5.9s.8 4.3 2.3 5.9 3.4 2.4 5.7 2.4c1.3 0 2.6-.4 3.7-1.2q1.65-1.2 2.4-3l6.4 3c-1.1 2.2-2.7 4-4.7 5.5s-4.6 2.2-7.8 2.2M217.1 71.5c-2.9 2.8-6.5 4.2-11 4.2s-8.1-1.4-11-4.2-4.4-6.3-4.4-10.6 1.5-7.9 4.4-10.6 6.6-4.2 11-4.2 8.1 1.4 11 4.2 4.3 6.3 4.3 10.6c.1 4.2-1.4 7.8-4.3 10.6m-10.9-2.4c2.3 0 4.2-.8 5.6-2.4s2.1-3.5 2.1-5.9-.7-4.4-2.1-5.9c-1.4-1.6-3.3-2.4-5.6-2.4q-3.45 0-5.7 2.4c-1.4 1.6-2.1 3.5-2.1 5.9s.7 4.4 2.1 5.9 3.3 2.4 5.7 2.4M258.1 75.1h-7.4V56.5l-7.3 18.6h-3.3L233 56.5v18.6h-7.4V46.5h10.3l6 15.5 6-15.5h10.3v28.6zM279.6 75.6c-3 0-5.5-.7-7.3-2.2l2.9-5.8c1.3.9 2.5 1.4 3.7 1.4.9 0 1.6-.2 2.1-.5s1-.9 1.4-1.7l-10.3-20.5h8.3l6.2 13.4 6.2-13.4h8.3l-11.6 23c-2.1 4.3-5.4 6.3-9.9 6.3M300.2 80.4V69.1c1.5-.2 2.7-.9 3.5-1.9.8-1.1 1.4-3.1 1.7-6.2l1.7-14.5h21.3v22.2h2.6v11.7h-7.4v-5.3h-16v5.3zm12.6-18.9c-.4 3-1.4 5.4-3.1 7.1h11.5V52.9h-7.3zM362.5 75.1h-8.4l-1.4-4.1h-11.3l-1.4 4.1h-8.4l10.8-28.6h9.3zm-11.8-10.6L347 53.8l-3.6 10.8h7.3zM369.2 46.5V55c0 2.9 1.5 4.4 4.6 4.4 1.8 0 3.4-.3 4.8-.8V46.5h7.4v28.6h-7.4v-10c-2.2.5-4.2.8-5.8.8-3.7 0-6.4-1-8.3-2.9-1.8-1.9-2.8-4.6-2.8-7.9v-8.5h7.5zM398.7 75.1h-7.1V46.5h7.4v16.9l11.6-16.9h7.6v28.6h-7.4V57.4z" class="st0"/></svg>