<?xml version="1.0" encoding="utf-8"?>
<!-- Generator: Adobe Illustrator 25.2.3, SVG Export Plug-In . SVG Version: 6.00 Build 0)  -->
<svg version="1.1" id="Layer_1" xmlns="http://www.w3.org/2000/svg" xmlns:xlink="http://www.w3.org/1999/xlink" x="0px" y="0px"
	 viewBox="0 0 115.9 29.2" style="enable-background:new 0 0 115.9 29.2;" xml:space="preserve">
<style type="text/css">
	.st0{fill:#FFFFFF;}
</style>
<g>
	<path class="st0" d="M25.9,28.6h-9.1L9.3,17.9l-1.9,2.4v8.4H0V0h7.4v11.8L16.2,0h9.1L14.2,13.4L25.9,28.6z"/>
	<path class="st0" d="M32.9,29.2c-3,0-5.5-0.7-7.3-2.2l2.9-5.8c1.3,0.9,2.5,1.4,3.7,1.4c0.9,0,1.6-0.2,2.1-0.5s1-0.9,1.4-1.7L25.5,0
		h8.3L40,13.4L46.2,0h8.3L42.9,23C40.8,27.1,37.5,29.2,32.9,29.2z"/>
	<path class="st0" d="M83.7,28.6h-7.4V6.4H64.5v22.2h-7.4V0h26.7V28.6z"/>
	<path class="st0" d="M96.4,28.6h-7.1V0h7.4v16.9L108.3,0h7.6v28.6h-7.4V10.9L96.4,28.6z"/>
</g>
</svg>
