<svg xmlns="http://www.w3.org/2000/svg" xml:space="preserve" id="Layer_1" x="0" y="0" viewBox="0 0 222.2 28.5"><style>.st0{fill:#fff}</style><path d="M13.3 28.5H0V5.8h12.9c2.1 0 3.7.6 4.9 1.7s1.7 2.5 1.7 4.1c0 1.4-.4 2.5-1.1 3.4s-1.7 1.5-2.8 1.8c1.2.2 2.2.8 3.1 1.9s1.2 2.3 1.2 3.7c0 1.7-.6 3.2-1.7 4.4-1.2 1.1-2.8 1.7-4.9 1.7m-1.8-14c.6 0 1.1-.2 1.4-.5.4-.4.6-.8.6-1.4 0-.5-.2-1-.6-1.3s-.9-.5-1.4-.5H5.8v3.8h5.7zm.2 9c.7 0 1.3-.2 1.6-.6s.6-.9.6-1.5q0-.9-.6-1.5c-.6-.6-.9-.6-1.6-.6H5.8v4.1h5.9zM23.5 5.8h5.8v7.6h5.5c2.4 0 4.4.7 5.8 2.2s2.1 3.2 2.1 5.4q0 3.3-2.1 5.4c-1.4 1.4-3.3 2.2-5.8 2.2H23.5zM34 18.5h-4.7v4.9H34c.8 0 1.4-.2 2-.6.5-.4.8-1 .8-1.8 0-.7-.3-1.3-.8-1.8s-1.2-.7-2-.7m16.2 10h-5.8V5.8h5.8zM60.3 28.5h-5.6V5.8h5.8v13.4l9.2-13.4h6.1v22.7h-5.9v-14zM86 28.5h-5.8V5.8h16.6v5.1H86zM106.1 28.5h-5.8V5.8h11.4c2.4 0 4.4.7 5.8 2.2s2.1 3.2 2.1 5.4q0 3.15-2.1 5.4c-2.1 2.25-3.3 2.2-5.8 2.2h-5.5v7.5zm4.7-12.8c.8 0 1.4-.2 2-.6.5-.4.8-1 .8-1.8s-.3-1.4-.8-1.8-1.2-.6-2-.6h-4.7v4.9h4.7zM122.5 5.8h5.8v7.6h5.5c2.4 0 4.4.7 5.8 2.2s2.1 3.2 2.1 5.4q0 3.3-2.1 5.4c-1.4 1.4-3.3 2.2-5.8 2.2h-11.4V5.8zM133 18.5h-4.7v4.9h4.7c.8 0 1.4-.2 2-.6.5-.4.8-1 .8-1.8 0-.7-.3-1.3-.8-1.8s-1.2-.7-2-.7m16.2 10h-5.8V5.8h5.8zM166.9 28.5h-13.3V5.8h12.9c2.1 0 3.7.6 4.9 1.7s1.7 2.5 1.7 4.1c0 1.4-.4 2.5-1.1 3.4s-1.7 1.5-2.8 1.8c1.2.2 2.2.8 3.1 1.9s1.2 2.3 1.2 3.7c0 1.7-.6 3.2-1.7 4.4-1.1 1.1-2.8 1.7-4.9 1.7m-1.7-14c.6 0 1.1-.2 1.4-.5.4-.4.6-.8.6-1.4 0-.5-.2-1-.6-1.3s-.9-.5-1.4-.5h-5.7v3.8h5.7zm.2 9c.7 0 1.3-.2 1.6-.6s.6-.9.6-1.5q0-.9-.6-1.5c-.6-.6-.9-.6-1.6-.6h-5.9v4.1h5.9zM199.1 28.5h-6.6l-1.1-3.3h-8.9l-1.1 3.3h-6.6l8.5-22.7h7.3zm-9.3-8.4-2.9-8.5-2.9 8.5zM206.8 28.5h-5.6V5.8h5.8v13.4l9.2-13.4h6.1v22.7h-5.9v-14zm10.8-26.7q-2.25 3-6 3t-6-3l2.2-1.8c1 1.3 2.2 2 3.7 2 1.6 0 2.8-.7 3.7-2z" class="st0"/></svg>