<?xml version="1.0" encoding="utf-8"?>
<!-- Generator: Adobe Illustrator 25.2.3, SVG Export Plug-In . SVG Version: 6.00 Build 0)  -->
<svg version="1.1" id="Layer_1" xmlns="http://www.w3.org/2000/svg" xmlns:xlink="http://www.w3.org/1999/xlink" x="0px" y="0px"
	 viewBox="0 0 243.5 18.4" style="enable-background:new 0 0 243.5 18.4;" xml:space="preserve">
<style type="text/css">
	.st0{fill:#FFFFFF;}
</style>
<g>
	<path class="st0" d="M5.6,0L0,14.4h3.5L4.4,12h6.2l0.9,2.4H15L9.4,0H5.6z M5.3,9.3l2.3-6.2l2.2,6.2H5.3z"/>
	<polygon class="st0" points="16.5,14.4 19.2,14.4 19.2,6.4 23.6,6.4 23.6,14.4 26.3,14.4 26.3,4 16.5,4 	"/>
	<polygon class="st0" points="28.2,6.4 31.2,6.4 31.2,14.4 33.9,14.4 33.9,6.4 36.9,6.4 36.9,4 28.2,4 	"/>
	<path class="st0" d="M46.5,4.7c-0.9-0.6-1.9-0.9-3.3-0.9c-1.8,0-3.3,0.5-4.6,1.6l1,1.8c0.9-0.8,1.9-1.2,3-1.2
		c0.7,0,1.2,0.2,1.7,0.5c0.4,0.3,0.6,0.7,0.6,1.3v1.4c-0.7-0.9-1.8-1.3-3.3-1.3c-1,0-1.8,0.3-2.5,0.8c-0.7,0.6-1.1,1.4-1.1,2.5
		c0,1.1,0.4,1.9,1.1,2.5c0.7,0.6,1.6,0.9,2.5,0.9c1.5,0,2.6-0.4,3.3-1.3v1.1h2.7V7.7C47.8,6.3,47.4,5.3,46.5,4.7 M45.1,11.9
		c-0.4,0.6-1.2,0.9-2.2,0.9c-0.6,0-1-0.1-1.4-0.4c-0.4-0.3-0.6-0.6-0.6-1.1c0-0.5,0.2-0.9,0.6-1.2c0.4-0.3,0.8-0.4,1.4-0.4
		c1,0,1.8,0.3,2.2,0.9V11.9z"/>
	<path class="st0" d="M61.5,6.2c1,0,1.7,0.4,2.2,1.1l1.8-1.7c-0.9-1.3-2.3-1.9-4.1-1.9c-1.6,0-2.9,0.5-4,1.5c-1,1-1.6,2.3-1.6,3.9
		c0,1.6,0.5,2.9,1.6,4c1,1,2.4,1.5,4,1.5c1.8,0,3.2-0.6,4.1-1.9l-1.8-1.7c-0.5,0.8-1.3,1.1-2.2,1.1c-0.8,0-1.5-0.3-2-0.8
		c-0.5-0.6-0.8-1.3-0.8-2.2c0-0.9,0.3-1.6,0.8-2.2C60,6.4,60.7,6.2,61.5,6.2"/>
	<path class="st0" d="M75.3,4.7C74.4,4,73.3,3.7,72,3.7c-1.8,0-3.3,0.5-4.6,1.6l1,1.8c0.9-0.8,1.9-1.2,3-1.2c0.7,0,1.2,0.2,1.7,0.5
		c0.4,0.3,0.6,0.7,0.6,1.3v1.4c-0.7-0.9-1.8-1.3-3.3-1.3c-1,0-1.8,0.3-2.5,0.8c-0.7,0.6-1.1,1.4-1.1,2.5c0,1.1,0.4,1.9,1.1,2.5
		c0.7,0.6,1.6,0.9,2.5,0.9c1.5,0,2.6-0.4,3.3-1.3v1.1h2.7V7.7C76.5,6.3,76.1,5.3,75.3,4.7 M73.8,11.9c-0.4,0.6-1.2,0.9-2.2,0.9
		c-0.6,0-1-0.1-1.4-0.4c-0.4-0.3-0.6-0.6-0.6-1.1c0-0.5,0.2-0.9,0.6-1.2c0.4-0.3,0.8-0.4,1.4-0.4c1,0,1.8,0.3,2.2,0.9V11.9z"/>
	<path class="st0" d="M84.4,2.9c1.6,0,2.8-0.6,3.8-1.9L87,0c-0.6,0.9-1.5,1.3-2.6,1.3c-1.1,0-2-0.4-2.6-1.3l-1.2,1
		C81.6,2.3,82.8,2.9,84.4,2.9"/>
	<polygon class="st0" points="82.2,10.3 82.2,4 79.5,4 79.5,14.4 82.1,14.4 86.6,7.9 86.6,14.4 89.3,14.4 89.3,4 86.5,4 	"/>
	<path class="st0" d="M98.6,7.6H95V4h-2.7v10.4h6.3c1.1,0,2-0.3,2.7-1c0.6-0.7,1-1.5,1-2.4c0-1-0.3-1.8-1-2.4
		C100.6,7.9,99.7,7.6,98.6,7.6 M99.1,11.8c-0.2,0.2-0.5,0.3-0.9,0.3H95V9.9h3.2c0.4,0,0.7,0.1,0.9,0.3c0.2,0.2,0.3,0.5,0.3,0.8
		C99.4,11.3,99.3,11.6,99.1,11.8"/>
	<rect x="103.6" y="4" class="st0" width="2.8" height="10.4"/>
	<polygon class="st0" points="116.3,7.9 112,7.9 112,4 109.3,4 109.3,14.4 112,14.4 112,10.3 116.3,10.3 116.3,14.4 119.1,14.4 
		119.1,4 116.3,4 	"/>
	<path class="st0" d="M132.8,6.2c1,0,1.7,0.4,2.2,1.1l1.8-1.7c-0.9-1.3-2.3-1.9-4.1-1.9c-1.6,0-2.9,0.5-4,1.5c-1,1-1.6,2.3-1.6,3.9
		c0,1.6,0.5,2.9,1.6,4c1,1,2.4,1.5,4,1.5c1.8,0,3.2-0.6,4.1-1.9l-1.8-1.7c-0.5,0.8-1.3,1.1-2.2,1.1c-0.8,0-1.5-0.3-2-0.8
		c-0.5-0.6-0.8-1.3-0.8-2.2c0-0.9,0.3-1.6,0.8-2.2C131.2,6.4,131.9,6.2,132.8,6.2"/>
	<path class="st0" d="M145.1,7.6h-3.6V4h-2.7v10.4h6.3c1.1,0,2-0.3,2.7-1c0.6-0.7,1-1.5,1-2.4c0-1-0.3-1.8-1-2.4
		C147.1,7.9,146.2,7.6,145.1,7.6 M145.6,11.8c-0.2,0.2-0.5,0.3-0.9,0.3h-3.2V9.9h3.2c0.4,0,0.7,0.1,0.9,0.3c0.2,0.2,0.3,0.5,0.3,0.8
		C145.9,11.3,145.8,11.6,145.6,11.8"/>
	<rect x="150.1" y="4" class="st0" width="2.8" height="10.4"/>
	<polygon class="st0" points="158.5,10.3 158.5,4 155.8,4 155.8,14.4 158.4,14.4 162.9,7.9 162.9,14.4 165.6,14.4 165.6,4 162.8,4 	
		"/>
	<path class="st0" d="M160.7,2.9c1.6,0,2.8-0.6,3.8-1.9l-1.2-1c-0.6,0.9-1.5,1.3-2.6,1.3c-1.1,0-2-0.4-2.6-1.3l-1.2,1
		C157.8,2.3,159.1,2.9,160.7,2.9"/>
	<path class="st0" d="M169.2,9c-0.2,1.2-0.4,2.1-0.6,2.6c-0.3,0.5-0.6,0.8-1,0.8v2.2c1.3,0,2.3-0.4,3-1.3c0.7-0.9,1.2-2.2,1.4-4
		l0.3-3h3.3v8h2.7V4h-8.5L169.2,9z"/>
	<rect x="192.6" y="4" class="st0" width="2.8" height="10.4"/>
	<path class="st0" d="M187.6,7.6H184V4h-2.7v10.4h6.3c1.1,0,2-0.3,2.7-1c0.6-0.7,1-1.5,1-2.4c0-1-0.3-1.8-1-2.4
		C189.7,7.9,188.8,7.6,187.6,7.6 M188.1,11.8c-0.2,0.2-0.5,0.3-0.9,0.3H184V9.9h3.2c0.4,0,0.7,0.1,0.9,0.3c0.2,0.2,0.3,0.5,0.3,0.8
		C188.4,11.3,188.3,11.6,188.1,11.8"/>
	<polygon class="st0" points="204.3,8.7 208.4,4 205,4 201.1,8.6 201.1,4 198.3,4 198.3,14.4 201.1,14.4 201.1,11.7 202.3,10.4 
		205.1,14.4 206.2,14.4 206.2,15.7 208.9,15.7 208.9,12.3 206.9,12.3 	"/>
	<polygon class="st0" points="210.4,6.4 213.3,6.4 213.3,14.4 216.1,14.4 216.1,6.4 219,6.4 219,4 210.4,4 	"/>
	<path class="st0" d="M228.7,4.7c-0.9-0.6-1.9-0.9-3.3-0.9c-1.8,0-3.3,0.5-4.6,1.6l1,1.8c0.9-0.8,1.9-1.2,3-1.2
		c0.7,0,1.2,0.2,1.7,0.5c0.4,0.3,0.6,0.7,0.6,1.3v1.4c-0.7-0.9-1.8-1.3-3.3-1.3c-1,0-1.8,0.3-2.5,0.8c-0.7,0.6-1.1,1.4-1.1,2.5
		c0,1.1,0.4,1.9,1.1,2.5c0.7,0.6,1.6,0.9,2.5,0.9c1.5,0,2.6-0.4,3.3-1.3v1.1h2.7V7.7C230,6.3,229.5,5.3,228.7,4.7 M227.2,11.9
		c-0.4,0.6-1.2,0.9-2.2,0.9c-0.6,0-1-0.1-1.4-0.4c-0.4-0.3-0.6-0.6-0.6-1.1c0-0.5,0.2-0.9,0.6-1.2c0.4-0.3,0.8-0.4,1.4-0.4
		c1,0,1.8,0.3,2.2,0.9V11.9z"/>
	<path class="st0" d="M242.2,5.2c-0.9-1-2-1.5-3.3-1.5c-1.3,0-2.4,0.5-3.2,1.6V4h-2.7v14.4h2.7v-5.3c0.8,1.1,1.9,1.6,3.2,1.6
		c1.4,0,2.5-0.5,3.3-1.5c0.9-1,1.3-2.3,1.3-4C243.5,7.5,243.1,6.2,242.2,5.2 M239.9,11.4c-0.5,0.6-1.1,0.8-1.9,0.8
		c-0.4,0-0.9-0.1-1.3-0.3c-0.5-0.2-0.8-0.5-1-0.8V7.4c0.2-0.3,0.6-0.6,1-0.8c0.4-0.2,0.9-0.3,1.3-0.3c0.8,0,1.4,0.3,1.9,0.8
		c0.5,0.6,0.7,1.3,0.7,2.2C240.6,10.1,240.4,10.8,239.9,11.4"/>
</g>
</svg>
