<?xml version="1.0" encoding="utf-8"?>
<!-- Generator: Adobe Illustrator 25.2.3, SVG Export Plug-In . SVG Version: 6.00 Build 0)  -->
<svg version="1.1" id="Layer_1" xmlns="http://www.w3.org/2000/svg" xmlns:xlink="http://www.w3.org/1999/xlink" x="0px" y="0px"
	 viewBox="0 0 224.7 29.6" style="enable-background:new 0 0 224.7 29.6;" xml:space="preserve">
<style type="text/css">
	.st0{fill:#FFFFFF;}
</style>
<g>
	<path class="st0" d="M15.5,29.6c-4.4,0-8.1-1.4-11.1-4.1C1.5,22.7,0,19.2,0,14.8c0-4.4,1.5-7.9,4.4-10.7C7.3,1.4,11,0,15.5,0
		c5.8,0,9.9,2.6,12.5,7.7l-6.4,3c-0.5-1.2-1.3-2.2-2.4-3c-1.1-0.8-2.4-1.2-3.7-1.2c-2.3,0-4.2,0.8-5.7,2.4s-2.3,3.6-2.3,5.9
		c0,2.3,0.8,4.3,2.3,5.9c1.5,1.6,3.4,2.4,5.7,2.4c1.3,0,2.6-0.4,3.7-1.2c1.1-0.8,1.9-1.8,2.4-3l6.4,3c-1.1,2.2-2.7,4-4.7,5.5
		C21.2,28.9,18.6,29.6,15.5,29.6z"/>
	<path class="st0" d="M59.1,29.1h-8.4L49.3,25H38l-1.4,4.1h-8.4L39,0.5h9.3L59.1,29.1z M47.3,18.5L43.6,7.8L40,18.5H47.3z"/>
	<path class="st0" d="M72.7,29.1h-7.4V6.9h-8V0.5h23.4v6.4h-8V29.1z"/>
	<path class="st0" d="M84.7,0.5h7.4v9.6h7c3.1,0,5.5,0.9,7.3,2.7c1.8,1.8,2.7,4.1,2.7,6.8c0,2.7-0.9,5-2.7,6.8
		c-1.8,1.8-4.2,2.7-7.3,2.7H84.7V0.5z M98,16.5h-6v6.1h6c1,0,1.8-0.3,2.5-0.8s1-1.3,1-2.3c0-0.9-0.3-1.7-1-2.2S99,16.5,98,16.5z
		 M118.5,29.1h-7.4V0.5h7.4V29.1z"/>
	<path class="st0" d="M150.7,29.1h-7.4V6.9h-11.9v22.2H124V0.5h26.7V29.1z"/>
	<path class="st0" d="M195.5,29.1h-8.4l-1.4-4.1h-11.3l-1.4,4.1h-8.4l10.8-28.6h9.3L195.5,29.1z M183.7,18.5l-3.7-10.8l-3.6,10.8
		H183.7z"/>
	<path class="st0" d="M196.5,29.6v-6.5c1.4,0,2.6-0.6,3.4-1.7c0.8-1.2,1.4-3.3,1.8-6.4l1.7-14.5h21.3v28.6h-7.4V6.9h-7.3l-1,8.6
		c-0.3,2.8-0.9,5.2-1.6,7.1c-0.7,1.9-1.7,3.3-2.8,4.3c-1.1,1-2.4,1.7-3.6,2.1C199.7,29.4,198.2,29.6,196.5,29.6z"/>
</g>
</svg>
