<?xml version="1.0" encoding="utf-8"?>
<!-- Generator: Adobe Illustrator 25.2.3, SVG Export Plug-In . SVG Version: 6.00 Build 0)  -->
<svg version="1.1" id="Layer_1" xmlns="http://www.w3.org/2000/svg" xmlns:xlink="http://www.w3.org/1999/xlink" x="0px" y="0px"
	 viewBox="0 0 118.7 11.6" style="enable-background:new 0 0 118.7 11.6;" xml:space="preserve">
<style type="text/css">
	.st0{fill:#FFFFFF;}
</style>
<g>
	<path class="st0" d="M0,3.1h2.2v2.2c0,0.6,0.1,0.9,0.4,1.2c0.3,0.2,0.7,0.4,1.3,0.4c0.7,0,1.2-0.1,1.6-0.3V3.1h2.2v8.2H5.5v-3
		C4.9,8.6,4.1,8.8,3.1,8.8C2,8.8,1.2,8.6,0.7,8.1S0,7,0,6.1C0,6.1,0,3.1,0,3.1z"/>
	<path class="st0" d="M13.9,11.5c-1.3,0-2.3-0.4-3.1-1.2S9.6,8.5,9.6,7.2C9.6,6,10,5,10.8,4.1c0.7-0.8,1.7-1.2,2.9-1.2
		s2.2,0.4,3,1.2s1.1,1.9,1.1,3.3v0.5h-6.1c0.1,0.5,0.3,1,0.7,1.4s1,0.5,1.6,0.5c0.4,0,0.8-0.1,1.2-0.2s0.8-0.3,1-0.6l1,1.4
		C16.4,11.1,15.3,11.5,13.9,11.5z M15.7,6.4c0-0.5-0.2-0.9-0.6-1.3c-0.3-0.4-0.8-0.6-1.5-0.6c-0.6,0-1.1,0.2-1.4,0.6
		c-0.3,0.4-0.5,0.8-0.6,1.3H15.7z"/>
	<path class="st0" d="M27.6,11.3h-2.7l-2.2-3.1l-1,1.1v2.1h-2.2V3.1h2.2v3.7l3.1-3.7h2.7l-3.2,3.7L27.6,11.3z"/>
	<path class="st0" d="M35.5,11.3h-2.2V3.1h2.2v3h3.4v-3h2.2v8.2h-2.2V8h-3.4V11.3z"/>
	<path class="st0" d="M50.5,11.3h-2.2v-0.8c-0.6,0.7-1.5,1.1-2.6,1.1c-0.7,0-1.4-0.2-2-0.7s-0.9-1.1-0.9-2s0.3-1.5,0.9-2
		c0.6-0.4,1.2-0.7,2-0.7c1.2,0,2,0.3,2.6,1V6c0-0.4-0.2-0.8-0.5-1S47,4.6,46.5,4.6c-0.9,0-1.7,0.3-2.4,1l-0.8-1.4
		c1-0.9,2.2-1.3,3.6-1.3c1.1,0,1.9,0.2,2.6,0.7s1,1.3,1,2.4C50.5,6,50.5,11.3,50.5,11.3z M46.6,10.1c0.8,0,1.4-0.2,1.7-0.7v-1
		c-0.4-0.5-0.9-0.7-1.7-0.7c-0.4,0-0.8,0.1-1.1,0.3c-0.3,0.2-0.4,0.5-0.4,0.9s0.1,0.7,0.4,0.9C45.8,10,46.1,10.1,46.6,10.1z"/>
	<path class="st0" d="M60.3,11.5c-0.7,0-1.4-0.1-2-0.3c-0.7-0.2-1.2-0.5-1.6-0.9l0.9-1.5c0.3,0.3,0.7,0.6,1.3,0.8
		c0.5,0.2,1.1,0.3,1.5,0.3c0.5,0,0.8-0.1,1-0.2s0.3-0.5,0.3-0.7s-0.1-0.4-0.4-0.5c-0.2-0.1-0.5-0.2-0.9-0.3
		c-0.3-0.1-0.7-0.2-1.1-0.3s-0.8-0.2-1.2-0.4c-0.4-0.2-0.7-0.4-0.9-0.8c-0.2-0.3-0.4-0.8-0.4-1.3c0-0.7,0.3-1.3,0.9-1.8
		c0.7-0.4,1.5-0.7,2.5-0.7c1.3,0,2.4,0.4,3.3,1.1l-0.8,1.5c-0.3-0.3-0.6-0.5-1-0.7s-0.9-0.3-1.4-0.3c-0.4,0-0.7,0.1-0.9,0.2
		S59,5,59,5.3c0,0.2,0.1,0.3,0.4,0.5s0.5,0.2,0.9,0.3c0.4,0.1,0.8,0.1,1.2,0.3c0.4,0.1,0.8,0.3,1.2,0.4c0.4,0.2,0.7,0.4,0.9,0.8
		c0.1,0.3,0.2,0.8,0.2,1.3c0,0.8-0.3,1.4-0.9,1.9C62.2,11.3,61.4,11.5,60.3,11.5z"/>
	<path class="st0" d="M77.9,11.3h-2.2V6.1c0-0.9-0.4-1.3-1.2-1.3c-0.4,0-0.7,0.1-1,0.3c-0.3,0.2-0.5,0.4-0.7,0.7v5.5h-2.1V6.1
		c0-0.9-0.4-1.3-1.2-1.3c-0.3,0-0.7,0.1-1,0.3c-0.3,0.2-0.5,0.4-0.7,0.7v5.5h-2.2V3.1h2.2v1.1c0.2-0.3,0.6-0.6,1.1-0.9
		s1-0.4,1.6-0.4c1.2,0,1.9,0.5,2.3,1.5C73.1,4,73.4,3.6,74,3.3s1.1-0.4,1.7-0.4c0.8,0,1.4,0.2,1.8,0.6s0.6,1,0.6,1.9v5.9H77.9z"/>
	<path class="st0" d="M87.3,11.3h-2.2v-0.8c-0.6,0.7-1.5,1.1-2.6,1.1c-0.7,0-1.4-0.2-2-0.7s-0.9-1.1-0.9-2s0.3-1.5,0.9-2
		c0.6-0.4,1.2-0.7,2-0.7c1.2,0,2,0.3,2.6,1V6c0-0.4-0.2-0.8-0.5-1s-0.8-0.4-1.3-0.4c-0.9,0-1.7,0.3-2.4,1l-0.8-1.4
		c1-0.9,2.2-1.3,3.6-1.3c1.1,0,1.9,0.2,2.6,0.7s1,1.3,1,2.4C87.3,6,87.3,11.3,87.3,11.3z M83.4,10.1c0.8,0,1.4-0.2,1.7-0.7v-1
		c-0.4-0.5-0.9-0.7-1.7-0.7c-0.4,0-0.8,0.1-1.1,0.3c-0.3,0.2-0.4,0.5-0.4,0.9s0.1,0.7,0.4,0.9C82.6,10,83,10.1,83.4,10.1z"/>
	<path class="st0" d="M91.8,11.3h-2.2V0h2.2V11.3z"/>
	<path class="st0" d="M96.3,11.3h-2.2V0h2.2V11.3z"/>
	<path class="st0" d="M100.7,11.1c-0.3,0.3-0.6,0.4-1,0.4s-0.7-0.1-1-0.4c-0.3-0.3-0.4-0.6-0.4-1s0.1-0.7,0.4-1
		c0.3-0.3,0.6-0.4,1-0.4s0.7,0.1,1,0.4c0.3,0.3,0.4,0.6,0.4,1S100.9,10.8,100.7,11.1z"/>
	<path class="st0" d="M111.1,11.3h-2.7l-2.2-3.2l-1,1.1v2.1H103V0h2.2v6.8l3.1-3.7h2.7l-3.2,3.7L111.1,11.3z"/>
	<path class="st0" d="M118.7,11.3H112V9.7l3.7-4.7H112V3.1h6.6v1.6l-3.8,4.8h3.8L118.7,11.3L118.7,11.3z"/>
</g>
</svg>
