<?xml version="1.0" encoding="utf-8"?>
<!-- Generator: Adobe Illustrator 25.2.3, SVG Export Plug-In . SVG Version: 6.00 Build 0)  -->
<svg version="1.1" id="Layer_1" xmlns="http://www.w3.org/2000/svg" xmlns:xlink="http://www.w3.org/1999/xlink" x="0px" y="0px"
	 viewBox="0 0 174.9 32.2" style="enable-background:new 0 0 174.9 32.2;" xml:space="preserve">
<style type="text/css">
	.st0{fill:#FFFFFF;}
</style>
<g>
	<path class="st0" d="M4.6,12.2c-1.3,0-2.4-0.4-3.3-1.3S0,9,0,7.6c0-1.3,0.4-2.4,1.3-3.3s2-1.3,3.3-1.3c1.5,0,2.7,0.5,3.4,1.6
		L6.6,6.1c-0.4-0.6-1-0.9-1.8-0.9C4,5.1,3.5,5.4,3,5.8C2.6,6.3,2.4,6.9,2.4,7.6S2.6,9,3,9.5c0.4,0.5,1,0.7,1.7,0.7
		c0.8,0,1.4-0.3,1.8-0.9L8,10.6C7.3,11.7,6.1,12.2,4.6,12.2z"/>
	<path class="st0" d="M9.7,3.3H12v3h3c1,0,1.7,0.3,2.2,0.8s0.8,1.2,0.8,2c0,0.8-0.3,1.5-0.8,2C16.7,11.7,15.9,12,15,12H9.7V3.3z
		 M14.6,8.2H12v1.9h2.6c0.3,0,0.6-0.1,0.7-0.3c0.2-0.2,0.3-0.4,0.3-0.7s-0.1-0.5-0.3-0.7C15.2,8.3,14.9,8.2,14.6,8.2z M21.4,12h-2.3
		V3.3h2.3V12z"/>
	<path class="st0" d="M28.8,12.2c-1.1,0-2-0.4-2.7-1.3v4.4h-2.3v-12h2.3v1.1c0.7-0.9,1.6-1.3,2.7-1.3c1.1,0,2.1,0.4,2.8,1.2
		s1.1,1.9,1.1,3.3s-0.4,2.5-1.1,3.3S30,12.2,28.8,12.2z M28.1,10.2c0.7,0,1.2-0.2,1.6-0.7c0.4-0.5,0.6-1.1,0.6-1.8
		c0-0.7-0.2-1.4-0.6-1.8c-0.4-0.5-0.9-0.7-1.6-0.7c-0.4,0-0.7,0.1-1.1,0.3s-0.7,0.4-0.8,0.7v3.1c0.2,0.3,0.5,0.5,0.9,0.7
		S27.8,10.2,28.1,10.2z"/>
	<path class="st0" d="M50.2,12h-2.6V7h-5.7v5h-2.6V0h2.6v4.7h5.7V0h2.6V12z"/>
	<path class="st0" d="M60,10.9c-0.8,0.9-2,1.3-3.3,1.3c-1.4,0-2.5-0.4-3.3-1.3s-1.3-2-1.3-3.2s0.4-2.4,1.3-3.2
		c0.8-0.9,1.9-1.3,3.3-1.3c1.4,0,2.5,0.4,3.3,1.3c0.8,0.9,1.3,2,1.3,3.2S60.9,10,60,10.9z M55.1,9.5c0.4,0.5,0.9,0.7,1.6,0.7
		s1.2-0.2,1.6-0.7c0.4-0.5,0.6-1.1,0.6-1.8c0-0.7-0.2-1.3-0.6-1.8s-0.9-0.7-1.6-0.7s-1.2,0.2-1.6,0.7c-0.4,0.5-0.6,1.1-0.6,1.8
		C54.5,8.4,54.7,9,55.1,9.5z"/>
	<path class="st0" d="M67.2,12.2c-1.3,0-2.4-0.4-3.3-1.3S62.6,9,62.6,7.6c0-1.3,0.4-2.4,1.3-3.3s2-1.3,3.3-1.3
		c1.5,0,2.7,0.5,3.4,1.6l-1.5,1.4c-0.4-0.6-1-0.9-1.8-0.9c-0.7,0-1.3,0.2-1.7,0.7C65.2,6.3,65,6.9,65,7.6s0.2,1.4,0.7,1.8
		c0.4,0.5,1,0.7,1.7,0.7c0.8,0,1.4-0.3,1.8-0.9l1.5,1.4C69.9,11.7,68.8,12.2,67.2,12.2z"/>
	<path class="st0" d="M80.5,12h-2.3V6.7c0-0.6-0.1-1-0.4-1.2c-0.3-0.2-0.7-0.4-1.2-0.4c-0.8,0-1.5,0.3-2,1V12h-2.3V0h2.3v4.4
		c0.3-0.4,0.7-0.7,1.3-1c0.5-0.3,1.1-0.4,1.8-0.4c0.9,0,1.6,0.2,2.1,0.7c0.5,0.5,0.7,1.2,0.7,2V12z"/>
	<path class="st0" d="M85.2,12H83V0h2.3V12z"/>
	<path class="st0" d="M95.2,12h-2.3v-0.9c-0.6,0.7-1.5,1.1-2.8,1.1c-0.8,0-1.5-0.3-2.1-0.8s-0.9-1.2-0.9-2.1c0-0.9,0.3-1.6,0.9-2.1
		c0.6-0.5,1.3-0.7,2.1-0.7c1.2,0,2.2,0.4,2.8,1.1V6.4c0-0.4-0.2-0.8-0.5-1.1C92,5.1,91.6,5,91,5c-0.9,0-1.8,0.3-2.5,1l-0.9-1.5
		c1-0.9,2.3-1.4,3.8-1.4c1.1,0,2,0.3,2.7,0.8c0.7,0.5,1.1,1.4,1.1,2.5V12z M91.1,10.7c0.9,0,1.5-0.3,1.8-0.8V8.8
		c-0.4-0.5-1-0.8-1.8-0.8c-0.5,0-0.9,0.1-1.2,0.4c-0.3,0.2-0.5,0.6-0.5,1c0,0.4,0.2,0.7,0.5,0.9C90.2,10.6,90.6,10.7,91.1,10.7z"/>
	<path class="st0" d="M105.8,12h-2.3V6.8c0-1.1-0.5-1.6-1.6-1.6c-0.8,0-1.5,0.3-2,1V12h-2.3V3.3h2.3v1.1c0.8-0.9,1.8-1.4,3-1.4
		c0.9,0,1.6,0.2,2.1,0.7c0.5,0.5,0.7,1.2,0.7,2V12z"/>
	<path class="st0" d="M116.5,12h-2.3v-1.1c-0.7,0.9-1.6,1.3-2.7,1.3c-1.1,0-2.1-0.4-2.8-1.2c-0.7-0.8-1.1-1.9-1.1-3.3
		c0-1.4,0.4-2.5,1.1-3.3c0.7-0.8,1.6-1.2,2.8-1.2c1.1,0,2,0.4,2.7,1.3V0h2.3V12z M112.2,10.2c0.4,0,0.8-0.1,1.1-0.3
		c0.4-0.2,0.7-0.4,0.8-0.7V6.1c-0.2-0.3-0.5-0.5-0.8-0.7c-0.4-0.2-0.8-0.3-1.1-0.3c-0.6,0-1.2,0.2-1.6,0.7c-0.4,0.5-0.6,1.1-0.6,1.8
		c0,0.7,0.2,1.4,0.6,1.8C111.1,10,111.6,10.2,112.2,10.2z"/>
	<path class="st0" d="M126,12h-2.2V3.3h2.3v5.3l3.6-5.3h2.3V12h-2.3V6.6L126,12z"/>
	<path class="st0" d="M133.6,12.2v-1.9c0.4,0,0.6-0.2,0.9-0.6c0.2-0.4,0.4-1.2,0.5-2.2l0.6-4.2h7V12h-2.3V5.3h-2.8l-0.3,2.5
		c-0.2,1.5-0.6,2.6-1.1,3.4S134.7,12.2,133.6,12.2z"/>
	<path class="st0" d="M147.2,12H145V3.3h2.3v5.3l3.6-5.3h2.3V12h-2.3V6.6L147.2,12z"/>
	<path class="st0" d="M6.4,32.2c-1.8,0-3.3-0.6-4.5-1.7C0.7,29.4,0,27.9,0,26c0-1.9,0.6-3.4,1.8-4.5c1.2-1.1,2.7-1.7,4.5-1.7
		c2.2,0,3.8,0.9,5,2.7l-2.1,1.2c-0.3-0.5-0.7-0.8-1.2-1.1S7,22.1,6.4,22.1c-1.1,0-2,0.4-2.7,1.1C3,23.9,2.7,24.9,2.7,26
		c0,1.1,0.4,2.1,1.1,2.8S5.3,30,6.4,30c0.5,0,1-0.1,1.5-0.3C8.4,29.5,8.7,29.3,9,29v-1.4H5.8v-2.2h5.7V30
		C10.2,31.5,8.5,32.2,6.4,32.2z"/>
	<path class="st0" d="M16,32h-2.3v-8.7H16v1.2c0.3-0.4,0.7-0.7,1.2-1s1-0.4,1.5-0.4v2.2c-0.2,0-0.4-0.1-0.6-0.1
		c-0.4,0-0.8,0.1-1.2,0.3c-0.4,0.2-0.7,0.4-0.9,0.7V32z"/>
	<path class="st0" d="M28.5,32h-2.3v-1.1c-0.8,0.9-1.8,1.3-3.1,1.3c-0.9,0-1.6-0.2-2.1-0.7c-0.5-0.5-0.7-1.2-0.7-2v-6.2h2.3v5.3
		c0,1.1,0.5,1.6,1.6,1.6c0.8,0,1.5-0.3,2-1v-5.9h2.3V32z M23.4,20.2c0.2,0.2,0.4,0.5,0.4,0.9s-0.1,0.6-0.4,0.9s-0.5,0.4-0.9,0.4
		s-0.6-0.1-0.9-0.4c-0.2-0.2-0.4-0.5-0.4-0.9c0-0.3,0.1-0.6,0.4-0.9c0.2-0.2,0.5-0.4,0.9-0.4S23.2,19.9,23.4,20.2z M27.2,20.2
		c0.2,0.2,0.4,0.5,0.4,0.9s-0.1,0.6-0.4,0.9s-0.5,0.4-0.9,0.4c-0.3,0-0.6-0.1-0.9-0.4s-0.4-0.5-0.4-0.9s0.1-0.6,0.4-0.9
		c0.2-0.2,0.5-0.4,0.9-0.4C26.7,19.8,27,19.9,27.2,20.2z"/>
	<path class="st0" d="M39.1,32h-2.3v-5.3c0-1.1-0.5-1.6-1.6-1.6c-0.8,0-1.5,0.3-2,1V32H31v-8.7h2.3v1.1c0.8-0.9,1.8-1.4,3-1.4
		c0.9,0,1.6,0.2,2.1,0.7c0.5,0.5,0.7,1.2,0.7,2V32z"/>
	<path class="st0" d="M43.8,32h-2.3V20h2.3V32z"/>
	<path class="st0" d="M53.8,32h-2.3v-0.9c-0.6,0.7-1.5,1.1-2.8,1.1c-0.8,0-1.5-0.3-2.1-0.8s-0.9-1.2-0.9-2.1c0-0.9,0.3-1.6,0.9-2.1
		c0.6-0.5,1.3-0.7,2.1-0.7c1.2,0,2.2,0.4,2.8,1.1v-1.2c0-0.4-0.2-0.8-0.5-1.1c-0.3-0.3-0.8-0.4-1.4-0.4c-0.9,0-1.8,0.3-2.5,1
		l-0.9-1.5c1-0.9,2.3-1.4,3.8-1.4c1.1,0,2,0.3,2.7,0.8s1.1,1.4,1.1,2.5V32z M49,20.2c0.2,0.2,0.4,0.5,0.4,0.9s-0.1,0.6-0.4,0.9
		c-0.2,0.2-0.5,0.4-0.9,0.4s-0.6-0.1-0.9-0.4s-0.4-0.5-0.4-0.9c0-0.3,0.1-0.6,0.4-0.9c0.2-0.2,0.5-0.4,0.9-0.4S48.7,19.9,49,20.2z
		 M49.7,30.7c0.9,0,1.5-0.3,1.8-0.8v-1.1c-0.4-0.5-1-0.8-1.8-0.8c-0.5,0-0.9,0.1-1.2,0.4c-0.3,0.2-0.5,0.6-0.5,1
		c0,0.4,0.2,0.7,0.5,0.9C48.8,30.6,49.2,30.7,49.7,30.7z M52.8,20.2c0.2,0.2,0.4,0.5,0.4,0.9s-0.1,0.6-0.4,0.9
		c-0.2,0.2-0.5,0.4-0.9,0.4s-0.6-0.1-0.9-0.4s-0.4-0.5-0.4-0.9s0.1-0.6,0.4-0.9c0.2-0.2,0.5-0.4,0.9-0.4S52.5,19.9,52.8,20.2z"/>
	<path class="st0" d="M64.4,32h-2.3v-5.3c0-1.1-0.5-1.6-1.6-1.6c-0.8,0-1.5,0.3-2,1V32h-2.3v-8.7h2.3v1.1c0.8-0.9,1.8-1.4,3-1.4
		c0.9,0,1.6,0.2,2.1,0.7c0.5,0.5,0.7,1.2,0.7,2V32z"/>
	<path class="st0" d="M75.1,32h-2.3v-1.1c-0.7,0.9-1.6,1.3-2.7,1.3c-1.1,0-2.1-0.4-2.8-1.2c-0.7-0.8-1.1-1.9-1.1-3.3
		c0-1.4,0.4-2.5,1.1-3.3c0.7-0.8,1.6-1.2,2.8-1.2c1.1,0,2,0.4,2.7,1.3V20h2.3V32z M70.8,30.2c0.4,0,0.8-0.1,1.1-0.3
		c0.4-0.2,0.7-0.4,0.8-0.7v-3.1c-0.2-0.3-0.5-0.5-0.8-0.7c-0.4-0.2-0.8-0.3-1.1-0.3c-0.6,0-1.2,0.2-1.6,0.7s-0.6,1.1-0.6,1.8
		c0,0.7,0.2,1.3,0.6,1.8C69.7,30,70.2,30.2,70.8,30.2z"/>
	<path class="st0" d="M81.7,32.2c-1.3,0-2.5-0.4-3.3-1.3S77,29,77,27.6c0-1.3,0.4-2.4,1.3-3.2c0.8-0.9,1.9-1.3,3.2-1.3
		c1.3,0,2.3,0.4,3.1,1.3c0.8,0.9,1.2,2,1.2,3.5v0.5h-6.5c0.1,0.6,0.3,1.1,0.8,1.4c0.4,0.4,1,0.6,1.7,0.6c0.4,0,0.8-0.1,1.3-0.2
		c0.5-0.2,0.8-0.4,1.1-0.6l1,1.5C84.4,31.8,83.2,32.2,81.7,32.2z M83.7,26.8c0-0.5-0.2-0.9-0.6-1.3c-0.4-0.4-0.9-0.6-1.6-0.6
		c-0.6,0-1.2,0.2-1.5,0.6c-0.4,0.4-0.6,0.8-0.6,1.3H83.7z"/>
	<path class="st0" d="M90,32h-2.3v-8.7H90v1.2c0.3-0.4,0.7-0.7,1.2-1s1-0.4,1.5-0.4v2.2c-0.2,0-0.4-0.1-0.6-0.1
		c-0.4,0-0.8,0.1-1.2,0.3c-0.4,0.2-0.7,0.4-0.9,0.7V32z"/>
	<path class="st0" d="M106.5,30.9c-0.8,0.9-2,1.3-3.3,1.3c-1.4,0-2.5-0.4-3.3-1.3c-0.8-0.9-1.3-2-1.3-3.2c0-1.3,0.4-2.4,1.3-3.2
		s1.9-1.3,3.3-1.3c1.4,0,2.5,0.4,3.3,1.3s1.3,2,1.3,3.2C107.8,28.9,107.4,30,106.5,30.9z M101.6,29.5c0.4,0.5,0.9,0.7,1.6,0.7
		s1.2-0.2,1.6-0.7s0.6-1.1,0.6-1.8c0-0.7-0.2-1.3-0.6-1.8c-0.4-0.5-0.9-0.7-1.6-0.7s-1.2,0.2-1.6,0.7c-0.4,0.5-0.6,1.1-0.6,1.8
		C101,28.4,101.2,29,101.6,29.5z"/>
	<path class="st0" d="M113.6,32h-2.3v-6.7h-2.4v-2h7.2v2h-2.4V32z"/>
	<path class="st0" d="M127.5,32h-2.6v-8.7l-2,2l-1.5-1.5l3.8-3.8h2.2V32z"/>
	<path class="st0" d="M134.4,32.2c-2,0-3.5-0.6-4.6-1.8l1.4-1.8c0.8,0.9,1.9,1.3,3.2,1.3c0.7,0,1.2-0.2,1.6-0.5
		c0.4-0.3,0.6-0.8,0.6-1.3c0-0.5-0.2-1-0.6-1.3c-0.4-0.3-0.9-0.5-1.6-0.5c-1,0-1.8,0.3-2.5,1l-1.8-0.5V20h8.2v2.2h-5.7v2.9
		c0.7-0.7,1.6-1,2.6-1c1.1,0,2,0.4,2.7,1.1c0.7,0.7,1.1,1.6,1.1,2.8c0,1.3-0.4,2.3-1.3,3S135.8,32.2,134.4,32.2z"/>
	<path class="st0" d="M148.4,31.3c-0.8,0.6-1.7,0.9-2.8,0.9s-2-0.3-2.8-0.9c-0.8-0.6-1.3-1.4-1.7-2.3s-0.5-1.9-0.5-3s0.2-2.1,0.5-3
		c0.3-0.9,0.9-1.7,1.7-2.3c0.8-0.6,1.7-0.9,2.8-0.9s2,0.3,2.8,0.9c0.8,0.6,1.3,1.4,1.7,2.3c0.3,0.9,0.5,1.9,0.5,3s-0.2,2.1-0.5,3
		S149.1,30.7,148.4,31.3z M143.8,28.9c0.4,0.7,1,1.1,1.8,1.1c0.8,0,1.4-0.4,1.8-1.1s0.6-1.7,0.6-2.9c0-1.2-0.2-2.1-0.6-2.9
		s-1-1.1-1.8-1.1c-0.8,0-1.4,0.4-1.8,1.1c-0.4,0.7-0.6,1.7-0.6,2.9C143.2,27.2,143.4,28.2,143.8,28.9z"/>
	<path class="st0" d="M159.7,31.3c-0.8,0.6-1.7,0.9-2.8,0.9s-2-0.3-2.8-0.9c-0.8-0.6-1.3-1.4-1.7-2.3s-0.5-1.9-0.5-3s0.2-2.1,0.5-3
		c0.3-0.9,0.9-1.7,1.7-2.3c0.8-0.6,1.7-0.9,2.8-0.9s2,0.3,2.8,0.9c0.8,0.6,1.3,1.4,1.7,2.3c0.3,0.9,0.5,1.9,0.5,3s-0.2,2.1-0.5,3
		S160.5,30.7,159.7,31.3z M155.1,28.9c0.4,0.7,1,1.1,1.8,1.1c0.8,0,1.4-0.4,1.8-1.1s0.6-1.7,0.6-2.9c0-1.2-0.2-2.1-0.6-2.9
		s-1-1.1-1.8-1.1c-0.8,0-1.4,0.4-1.8,1.1c-0.4,0.7-0.6,1.7-0.6,2.9C154.5,27.2,154.7,28.2,155.1,28.9z"/>
	<path class="st0" d="M172.5,32h-2.3v-6.7h-2.4v-2h7.2v2h-2.4V32z"/>
</g>
</svg>
