<?xml version="1.0" encoding="utf-8"?>
<!-- Generator: Adobe Illustrator 25.2.3, SVG Export Plug-In . SVG Version: 6.00 Build 0)  -->
<svg version="1.1" id="Layer_1" xmlns="http://www.w3.org/2000/svg" xmlns:xlink="http://www.w3.org/1999/xlink" x="0px" y="0px"
	 viewBox="0 0 187.3 11.7" style="enable-background:new 0 0 187.3 11.7;" xml:space="preserve">
<style type="text/css">
	.st0{fill:#FFFFFF;}
</style>
<g>
	<path class="st0" d="M7.7,8.4H5.6V2.1H2.2v6.3H0V0.2h7.7V8.4z"/>
	<path class="st0" d="M14.7,8.6c-1,0-1.9-0.4-2.5-1.3v4.2H10V0.2h2.2v1C12.8,0.4,13.7,0,14.7,0c1.1,0,2,0.4,2.6,1.1
		c0.7,0.8,1,1.8,1,3.2c0,1.3-0.3,2.4-1,3.2C16.7,8.2,15.8,8.6,14.7,8.6z M14,6.7c0.6,0,1.1-0.2,1.5-0.7c0.4-0.4,0.6-1,0.6-1.7
		c0-0.7-0.2-1.3-0.6-1.7c-0.4-0.4-0.9-0.7-1.5-0.7c-0.4,0-0.7,0.1-1.1,0.3c-0.4,0.2-0.6,0.4-0.8,0.7v2.9C12.4,6,12.6,6.2,13,6.4
		C13.4,6.6,13.7,6.7,14,6.7z"/>
	<path class="st0" d="M22.2,8.4h-2.1V0.2h2.2v5l3.4-5h2.2v8.2h-2.2V3.3L22.2,8.4z"/>
	<path class="st0" d="M33.1,8.6c-1.7,0-2.9-0.4-3.8-1.3l1-1.3C31,6.6,32,6.9,33.1,6.9c0.5,0,1-0.1,1.3-0.2c0.3-0.2,0.4-0.4,0.4-0.6
		c0-0.6-0.6-0.9-1.8-0.9h-1.7V3.4H33c1.1,0,1.7-0.3,1.7-0.9c0-0.2-0.2-0.5-0.5-0.6c-0.3-0.2-0.7-0.2-1.2-0.2c-1.1,0-1.9,0.3-2.5,0.9
		l-1.1-1.3C30.3,0.5,31.5,0,32.9,0c1.3,0,2.3,0.2,3,0.6s1.1,1,1.1,1.7c0,0.5-0.2,0.9-0.6,1.3c-0.4,0.4-0.9,0.6-1.5,0.7
		c0.6,0,1.1,0.2,1.6,0.6c0.5,0.4,0.7,0.8,0.7,1.4c0,0.7-0.4,1.3-1.1,1.8S34.3,8.6,33.1,8.6z"/>
	<path class="st0" d="M38.9,0.2H41V3h2.8c0.9,0,1.6,0.3,2.1,0.8c0.5,0.5,0.7,1.2,0.7,1.9c0,0.8-0.3,1.4-0.8,1.9
		c-0.5,0.5-1.2,0.8-2.1,0.8h-5V0.2z M43.5,4.8H41v1.8h2.5c0.3,0,0.5-0.1,0.7-0.2c0.2-0.2,0.3-0.4,0.3-0.6c0-0.3-0.1-0.5-0.3-0.6
		C44,4.9,43.8,4.8,43.5,4.8z M49.9,8.4h-2.2V0.2h2.2V8.4z"/>
	<path class="st0" d="M64.8,8.4h-2.7l-2.2-3.2l-1,1.1v2.1h-2.2V0.2h2.2v3.7L62,0.2h2.7l-3.2,3.7L64.8,8.4z"/>
	<path class="st0" d="M73.1,8.4H71V7.6c-0.6,0.7-1.5,1.1-2.6,1.1c-0.7,0-1.4-0.2-2-0.7c-0.6-0.5-0.9-1.1-0.9-2c0-0.9,0.3-1.5,0.9-2
		c0.6-0.4,1.2-0.7,2-0.7c1.2,0,2,0.3,2.6,1V3.1c0-0.4-0.2-0.8-0.5-1s-0.8-0.4-1.3-0.4c-0.9,0-1.7,0.3-2.4,1l-0.8-1.4
		c1-0.9,2.2-1.3,3.6-1.3c1.1,0,1.9,0.2,2.6,0.7c0.7,0.5,1,1.3,1,2.4V8.4z M69.2,7.2c0.8,0,1.4-0.2,1.7-0.7v-1
		c-0.4-0.5-0.9-0.7-1.7-0.7c-0.4,0-0.8,0.1-1.1,0.3c-0.3,0.2-0.4,0.5-0.4,0.9c0,0.4,0.1,0.7,0.4,0.9C68.4,7,68.8,7.2,69.2,7.2z"/>
	<path class="st0" d="M77.1,8.4h-2.7l3.3-4.5l-3.2-3.7h2.7l2.5,3v-3h2.2v3l2.5-3H87l-3.2,3.7l3.3,4.5h-2.7l-2.2-3.2l-0.4,0.4v2.7
		h-2.2V5.7l-0.4-0.4L77.1,8.4z"/>
	<path class="st0" d="M87.6,10.5V6.6c0.2,0,0.4-0.1,0.6-0.2c0.1-0.1,0.3-0.4,0.4-0.7c0.1-0.3,0.2-0.8,0.3-1.5l0.5-4h6.6v6.3H97v4
		h-2.2V8.4h-5v2.1H87.6z M91.3,2.1l-0.3,2.2c-0.1,1-0.4,1.7-1,2.2h3.8V2.1H91.3z"/>
	<path class="st0" d="M98.2,11.6l0.3-1.9c0.2,0.1,0.4,0.1,0.7,0.1c0.6,0,1-0.2,1.1-0.6l0.3-0.7l-3.3-8.3h2.3l2.1,5.7l2.1-5.7h2.3
		l-3.9,9.6c-0.3,0.7-0.7,1.2-1.2,1.5c-0.5,0.3-1.2,0.4-1.9,0.5C98.9,11.7,98.5,11.7,98.2,11.6z"/>
	<path class="st0" d="M115.2,8.6c-1.1,0-2.1-0.3-2.9-1c-0.8-0.7-1.2-1.5-1.4-2.5h-1.4v3.3h-2.2V0.2h2.2v3h1.4c0.2-1,0.7-1.7,1.4-2.3
		s1.7-0.9,2.8-0.9c1.3,0,2.4,0.4,3.2,1.2c0.8,0.8,1.2,1.8,1.2,3.1c0,1.2-0.4,2.2-1.2,3.1C117.5,8.2,116.5,8.6,115.2,8.6z M115.2,6.7
		c0.7,0,1.2-0.2,1.5-0.7s0.6-1,0.6-1.7c0-0.7-0.2-1.2-0.6-1.7s-0.9-0.7-1.5-0.7c-0.6,0-1.2,0.2-1.5,0.7s-0.6,1-0.6,1.7
		c0,0.7,0.2,1.2,0.6,1.7S114.5,6.7,115.2,6.7z"/>
	<path class="st0" d="M128,8.4h-2.2V0.2h2.2v3h3.4v-3h2.2v8.2h-2.2V5.1H128V8.4z"/>
	<path class="st0" d="M139.7,8.6c-1.3,0-2.3-0.4-3.1-1.2c-0.8-0.8-1.2-1.8-1.2-3.1c0-1.2,0.4-2.2,1.2-3.1s1.8-1.2,3.1-1.2
		c1.2,0,2.2,0.4,3,1.2c0.8,0.8,1.1,1.9,1.1,3.3V5h-6.1c0.1,0.5,0.3,1,0.7,1.4c0.4,0.4,1,0.5,1.6,0.5c0.4,0,0.8-0.1,1.2-0.2
		s0.8-0.3,1-0.6l1,1.4C142.3,8.2,141.1,8.6,139.7,8.6z M141.6,3.5c0-0.5-0.2-0.9-0.6-1.3c-0.3-0.4-0.8-0.6-1.5-0.6
		c-0.6,0-1.1,0.2-1.4,0.6c-0.3,0.4-0.5,0.8-0.6,1.3H141.6z"/>
	<path class="st0" d="M144.7,10.5V6.6c0.2,0,0.4-0.1,0.6-0.2c0.1-0.1,0.3-0.4,0.4-0.7c0.1-0.3,0.2-0.8,0.3-1.5l0.5-4h6.6v6.3h0.9v4
		h-2.2V8.4h-5v2.1H144.7z M148.4,2.1l-0.3,2.2c-0.1,1-0.4,1.7-1,2.2h3.8V2.1H148.4z"/>
	<path class="st0" d="M159.4,8.6c-1.3,0-2.3-0.4-3.1-1.2c-0.8-0.8-1.2-1.8-1.2-3.1c0-1.2,0.4-2.2,1.2-3.1s1.8-1.2,3.1-1.2
		c1.2,0,2.2,0.4,3,1.2c0.8,0.8,1.1,1.9,1.1,3.3V5h-6.1c0.1,0.5,0.3,1,0.7,1.4c0.4,0.4,1,0.5,1.6,0.5c0.4,0,0.8-0.1,1.2-0.2
		s0.8-0.3,1-0.6l1,1.4C162,8.2,160.9,8.6,159.4,8.6z M161.3,3.5c0-0.5-0.2-0.9-0.6-1.3c-0.3-0.4-0.8-0.6-1.5-0.6
		c-0.6,0-1.1,0.2-1.4,0.6c-0.3,0.4-0.5,0.8-0.6,1.3H161.3z"/>
	<path class="st0" d="M164.4,8.6V6.9c0.3,0,0.6-0.2,0.8-0.6s0.4-1.1,0.5-2.1l0.5-4h6.6v8.2h-2.2V2.1h-2.6l-0.3,2.3
		c-0.2,1.4-0.5,2.5-1.1,3.2C166.2,8.3,165.4,8.6,164.4,8.6z"/>
	<path class="st0" d="M183,8.6c-1.1,0-2.1-0.3-2.9-1c-0.8-0.7-1.2-1.5-1.4-2.5h-1.4v3.3h-2.2V0.2h2.2v3h1.4c0.2-1,0.7-1.7,1.4-2.3
		S181.9,0,183,0c1.3,0,2.4,0.4,3.2,1.2c0.8,0.8,1.2,1.8,1.2,3.1c0,1.2-0.4,2.2-1.2,3.1C185.3,8.2,184.3,8.6,183,8.6z M183,6.7
		c0.7,0,1.2-0.2,1.5-0.7s0.6-1,0.6-1.7c0-0.7-0.2-1.2-0.6-1.7s-0.9-0.7-1.5-0.7c-0.6,0-1.2,0.2-1.5,0.7s-0.6,1-0.6,1.7
		c0,0.7,0.2,1.2,0.6,1.7S182.3,6.7,183,6.7z"/>
</g>
</svg>
