<?xml version="1.0" encoding="utf-8"?>
<!-- Generator: Adobe Illustrator 25.2.3, SVG Export Plug-In . SVG Version: 6.00 Build 0)  -->
<svg version="1.1" id="Layer_1" xmlns="http://www.w3.org/2000/svg" xmlns:xlink="http://www.w3.org/1999/xlink" x="0px" y="0px"
	 viewBox="0 0 258.1 126.4" style="enable-background:new 0 0 258.1 126.4;" xml:space="preserve">
<style type="text/css">
	.st0{fill:#FFFFFF;}
</style>
<g>
	<path class="st0" d="M18.1,0.5h22.4v6.4h-15v3.7h7.2c3,0,5.4,0.9,7.1,2.6c1.7,1.8,2.6,4,2.6,6.6s-0.9,4.8-2.6,6.6
		c-1.7,1.8-4.1,2.7-7.1,2.7H18.1V0.5z M31.8,17h-6.3v5.6h6.3c0.9,0,1.7-0.3,2.2-0.8c0.6-0.5,0.9-1.2,0.9-2.1c0-0.9-0.3-1.5-0.9-2
		C33.5,17.3,32.8,17,31.8,17z"/>
	<path class="st0" d="M50.6,29.6c-3,0-5.5-0.7-7.3-2.2l2.9-5.8c1.3,0.9,2.5,1.4,3.7,1.4c0.9,0,1.6-0.2,2.1-0.5s1-0.9,1.4-1.7
		L43.1,0.5h8.3l6.2,13.4l6.2-13.4h8.3l-11.6,23C58.5,27.6,55.2,29.6,50.6,29.6z"/>
	<path class="st0" d="M88.5,29.1h-7.4V6.9h-8V0.5h23.4v6.4h-8V29.1z"/>
	<path class="st0" d="M121.5,29.1h-21V0.5h21v6.4h-13.6v4.5h13.3v6.4h-13.3v4.9h13.6V29.1z"/>
	<path class="st0" d="M133.6,29.1h-7.4V0.5h14.3c3.1,0,5.5,0.9,7.3,2.7c1.8,1.8,2.7,4.1,2.7,6.8c0,2.7-0.9,4.9-2.7,6.8
		c-1.8,1.8-4.2,2.7-7.3,2.7h-7V29.1z M139.5,13.1c1,0,1.8-0.3,2.5-0.8c0.6-0.5,1-1.3,1-2.2c0-1-0.3-1.7-1-2.3
		c-0.6-0.5-1.5-0.8-2.5-0.8h-6v6.1H139.5z"/>
	<path class="st0" d="M154.2,0.5h22.4v6.4h-15v3.7h7.2c3,0,5.4,0.9,7.1,2.6c1.7,1.8,2.6,4,2.6,6.6s-0.9,4.8-2.6,6.6
		c-1.7,1.8-4.1,2.7-7.1,2.7h-14.6V0.5z M167.9,17h-6.3v5.6h6.3c0.9,0,1.7-0.3,2.2-0.8c0.6-0.5,0.9-1.2,0.9-2.1c0-0.9-0.3-1.5-0.9-2
		C169.6,17.3,168.8,17,167.9,17z"/>
	<path class="st0" d="M207.1,25.5c-2.9,2.8-6.5,4.2-11,4.2s-8.1-1.4-11-4.2s-4.4-6.3-4.4-10.6c0-4.3,1.5-7.9,4.4-10.6
		c2.9-2.8,6.6-4.2,11-4.2s8.1,1.4,11,4.2c2.9,2.8,4.3,6.3,4.3,10.6C211.4,19.1,210,22.7,207.1,25.5z M196.1,23.1
		c2.3,0,4.2-0.8,5.6-2.4s2.1-3.5,2.1-5.9c0-2.4-0.7-4.4-2.1-5.9c-1.4-1.6-3.3-2.4-5.6-2.4c-2.3,0-4.2,0.8-5.7,2.4
		c-1.4,1.6-2.1,3.5-2.1,5.9c0,2.4,0.7,4.4,2.1,5.9S193.8,23.1,196.1,23.1z"/>
	<path class="st0" d="M212.6,34.4V23.1c1.5-0.2,2.7-0.9,3.5-1.9c0.8-1.1,1.4-3.1,1.7-6.2l1.7-14.5h21.3v22.2h2.6v11.7H236v-5.3h-16
		v5.3H212.6z M225.1,15.5c-0.4,3-1.4,5.4-3.1,7.1h11.5V6.9h-7.3L225.1,15.5z"/>
	<path class="st0" d="M15.5,75.6c-4.4,0-8.1-1.4-11.1-4.1S0,65.2,0,60.8c0-4.4,1.5-7.9,4.4-10.7C7.3,47.4,11,46,15.5,46
		c5.8,0,9.9,2.6,12.5,7.7l-6.4,3c-0.5-1.2-1.3-2.2-2.4-3c-1.1-0.8-2.4-1.2-3.7-1.2c-2.3,0-4.2,0.8-5.7,2.4s-2.3,3.6-2.3,5.9
		c0,2.3,0.8,4.3,2.3,5.9c1.5,1.6,3.4,2.4,5.7,2.4c1.3,0,2.6-0.4,3.7-1.2c1.1-0.8,1.9-1.8,2.4-3l6.4,3c-1.1,2.2-2.7,4-4.7,5.5
		C21.2,74.9,18.6,75.6,15.5,75.6z"/>
	<path class="st0" d="M56.4,71.5c-2.9,2.8-6.5,4.2-11,4.2s-8.1-1.4-11-4.2s-4.4-6.3-4.4-10.6c0-4.3,1.5-7.9,4.4-10.6s6.6-4.2,11-4.2
		s8.1,1.4,11,4.2c2.9,2.8,4.3,6.3,4.3,10.6C60.8,65.1,59.3,68.7,56.4,71.5z M45.5,69.1c2.3,0,4.2-0.8,5.6-2.4
		c1.4-1.6,2.1-3.5,2.1-5.9c0-2.4-0.7-4.4-2.1-5.9c-1.4-1.6-3.3-2.4-5.6-2.4c-2.3,0-4.2,0.8-5.7,2.4c-1.4,1.6-2.1,3.5-2.1,5.9
		c0,2.4,0.7,4.4,2.1,5.9C41.2,68.3,43.1,69.1,45.5,69.1z"/>
	<path class="st0" d="M93.1,75.1H76.3V46.5h16.2c2.7,0,4.7,0.7,6.2,2.2s2.2,3.2,2.2,5.1c0,1.7-0.5,3.2-1.4,4.3
		c-0.9,1.2-2.1,1.9-3.5,2.2c1.5,0.2,2.8,1,3.9,2.3s1.6,2.9,1.6,4.7c0,2.2-0.7,4.1-2.2,5.5S95.8,75.1,93.1,75.1z M90.9,57.5
		c0.7,0,1.4-0.2,1.8-0.7c0.5-0.4,0.7-1,0.7-1.7c0-0.7-0.2-1.3-0.7-1.7c-0.5-0.4-1.1-0.7-1.8-0.7h-7.2v4.8H90.9z M91.2,68.9
		c0.9,0,1.6-0.2,2.1-0.7s0.8-1.1,0.8-1.9c0-0.7-0.3-1.4-0.8-1.8c-0.5-0.5-1.2-0.7-2.1-0.7h-7.4v5.2H91.2z"/>
	<path class="st0" d="M131.9,75.1h-9.1l-7.5-10.8l-1.9,2.4v8.4H106V46.5h7.4v11.8l8.8-11.8h9.1l-11.1,13.4L131.9,75.1z"/>
	<path class="st0" d="M138.9,75.6c-3,0-5.5-0.7-7.3-2.2l2.9-5.8c1.3,0.9,2.5,1.4,3.7,1.4c0.9,0,1.6-0.2,2.1-0.5s1-0.9,1.4-1.7
		l-10.3-20.5h8.3l6.2,13.4l6.2-13.4h8.3l-11.6,23C146.8,73.6,143.5,75.6,138.9,75.6z"/>
	<path class="st0" d="M176.2,75.6c-4.4,0-8.1-1.4-11.1-4.1s-4.4-6.3-4.4-10.7c0-4.4,1.5-7.9,4.4-10.7c2.9-2.7,6.6-4.1,11.1-4.1
		c5.8,0,9.9,2.6,12.5,7.7l-6.4,3c-0.5-1.2-1.3-2.2-2.4-3c-1.1-0.8-2.4-1.2-3.7-1.2c-2.3,0-4.2,0.8-5.7,2.4s-2.3,3.6-2.3,5.9
		c0,2.3,0.8,4.3,2.3,5.9c1.5,1.6,3.4,2.4,5.7,2.4c1.3,0,2.6-0.4,3.7-1.2c1.1-0.8,1.9-1.8,2.4-3l6.4,3c-1.1,2.2-2.7,4-4.7,5.5
		C182,74.9,179.4,75.6,176.2,75.6z"/>
	<path class="st0" d="M217.1,71.5c-2.9,2.8-6.5,4.2-11,4.2s-8.1-1.4-11-4.2s-4.4-6.3-4.4-10.6c0-4.3,1.5-7.9,4.4-10.6
		s6.6-4.2,11-4.2s8.1,1.4,11,4.2c2.9,2.8,4.3,6.3,4.3,10.6C221.5,65.1,220,68.7,217.1,71.5z M206.2,69.1c2.3,0,4.2-0.8,5.6-2.4
		c1.4-1.6,2.1-3.5,2.1-5.9c0-2.4-0.7-4.4-2.1-5.9c-1.4-1.6-3.3-2.4-5.6-2.4c-2.3,0-4.2,0.8-5.7,2.4c-1.4,1.6-2.1,3.5-2.1,5.9
		c0,2.4,0.7,4.4,2.1,5.9C202,68.3,203.8,69.1,206.2,69.1z"/>
	<path class="st0" d="M258.1,75.1h-7.4V56.5l-7.3,18.6h-3.3L233,56.5v18.6h-7.4V46.5h10.3l6,15.5l6-15.5h10.3V75.1z"/>
	<path class="st0" d="M62.7,121.6c-3,0-5.5-0.7-7.3-2.2l2.9-5.8c1.3,0.9,2.5,1.4,3.7,1.4c0.9,0,1.6-0.2,2.1-0.5s1-0.9,1.4-1.7
		L55.2,92.5h8.3l6.2,13.4L76,92.5h8.3l-11.6,23C70.6,119.6,67.3,121.6,62.7,121.6z"/>
	<path class="st0" d="M83.4,126.4v-11.3c1.5-0.2,2.7-0.9,3.5-1.9c0.8-1.1,1.4-3.1,1.7-6.2l1.7-14.5h21.3v22.2h2.6v11.7h-7.4v-5.3
		h-16v5.3H83.4z M95.9,107.5c-0.4,3-1.4,5.4-3.1,7.1h11.5V98.9h-7.3L95.9,107.5z"/>
	<path class="st0" d="M145.6,121.1h-8.4l-1.4-4.1h-11.3l-1.4,4.1h-8.4l10.8-28.6h9.3L145.6,121.1z M133.8,110.5l-3.7-10.8l-3.6,10.8
		H133.8z"/>
	<path class="st0" d="M152.3,92.5v8.5c0,2.9,1.5,4.4,4.6,4.4c1.8,0,3.4-0.3,4.8-0.8V92.5h7.4v28.6h-7.4v-10
		c-2.2,0.5-4.2,0.8-5.8,0.8c-3.7,0-6.4-1-8.3-2.9c-1.8-1.9-2.8-4.6-2.8-7.9v-8.5H152.3z"/>
	<path class="st0" d="M181.8,121.1h-7.1V92.5h7.4v16.9l11.6-16.9h7.6v28.6h-7.4v-17.7L181.8,121.1z"/>
</g>
</svg>
