<?xml version="1.0" encoding="utf-8"?>
<!-- Generator: Adobe Illustrator 27.3.1, SVG Export Plug-In . SVG Version: 6.00 Build 0)  -->
<svg version="1.1" id="Layer_1" xmlns="http://www.w3.org/2000/svg" xmlns:xlink="http://www.w3.org/1999/xlink" x="0px" y="0px"
	 viewBox="0 0 187.3 15" style="enable-background:new 0 0 187.3 15;" xml:space="preserve">
<style type="text/css">
	.st0{fill:#FFFFFF;}
</style>
<g>
	<path class="st0" d="M40.2,11.3h-2.7l-2.1-3.1l-1,1v2.1h-2.1v-8h2.1v3.6l3.1-3.6h2.6L36.9,7L40.2,11.3z"/>
	<path class="st0" d="M48.4,11.3h-2.1v-0.8c-0.6,0.7-1.4,1-2.6,1c-0.7,0-1.4-0.2-1.9-0.7s-0.9-1.1-0.9-2s0.3-1.5,0.8-2
		c0.6-0.4,1.2-0.7,2-0.7c1.1,0,2,0.3,2.6,1v-1c0-0.4-0.2-0.7-0.5-1c-0.3-0.3-0.8-0.4-1.3-0.4c-0.9,0-1.7,0.3-2.4,1l-0.8-1.4
		c1-0.8,2.1-1.3,3.5-1.3c1,0,1.9,0.2,2.5,0.7c0.7,0.5,1,1.3,1,2.3L48.4,11.3L48.4,11.3z M44.6,10.1c0.8,0,1.4-0.2,1.7-0.7v-1
		c-0.3-0.5-0.9-0.7-1.7-0.7c-0.4,0-0.8,0.1-1.1,0.3c-0.3,0.2-0.4,0.5-0.4,0.9s0.1,0.7,0.4,0.9S44.2,10.1,44.6,10.1z"/>
	<path class="st0" d="M55.3,11.5c-1,0-1.8-0.4-2.5-1.2v4.1h-2.1V3.3h2.1v1c0.6-0.8,1.5-1.2,2.5-1.2c1.1,0,1.9,0.4,2.6,1.1
		s1,1.8,1,3.1s-0.3,2.3-1,3.1S56.3,11.5,55.3,11.5z M54.6,9.6c0.6,0,1.1-0.2,1.5-0.7c0.4-0.4,0.6-1,0.6-1.7s-0.2-1.3-0.6-1.7
		c-0.4-0.4-0.9-0.7-1.5-0.7c-0.3,0-0.7,0.1-1,0.3c-0.3,0.2-0.6,0.4-0.8,0.7v2.9C53,9,53.2,9.2,53.6,9.4C53.9,9.5,54.3,9.6,54.6,9.6z
		"/>
	<path class="st0" d="M64.2,11.3h-2.1V5.1h-2.3V3.3h6.6v1.9h-2.2V11.3z"/>
	<path class="st0" d="M67.7,14.5l0.3-1.9c0.2,0.1,0.4,0.1,0.7,0.1c0.6,0,0.9-0.2,1.1-0.6l0.3-0.7l-3.3-8.2h2.3l2.1,5.7l2.1-5.6h2.3
		l-3.8,9.4c-0.3,0.7-0.7,1.2-1.2,1.5s-1.1,0.4-1.9,0.5C68.3,14.6,68,14.6,67.7,14.5z"/>
	<path class="st0" d="M93.2,11.3h-2.4V3.5l-3.1,7.8h-1l-3.1-7.8v7.8h-2.4V0.2h3.3l2.7,6.7l2.7-6.7h3.3V11.3z"/>
	<path class="st0" d="M102.5,11.3h-2.1v-0.8c-0.6,0.7-1.4,1-2.6,1c-0.7,0-1.4-0.2-1.9-0.7S95,9.7,95,8.8s0.3-1.5,0.8-2
		c0.6-0.4,1.2-0.7,2-0.7c1.1,0,2,0.3,2.6,1v-1c0-0.4-0.2-0.7-0.5-1s-0.7-0.3-1.3-0.3c-0.9,0-1.7,0.3-2.4,1l-0.8-1.4
		c1-0.8,2.1-1.3,3.5-1.3c1,0,1.9,0.2,2.5,0.7c0.7,0.5,1,1.3,1,2.3v5.2H102.5z M98.7,10.1c0.8,0,1.4-0.2,1.7-0.7v-1
		c-0.3-0.5-0.9-0.7-1.7-0.7c-0.4,0-0.8,0.1-1.1,0.3c-0.3,0.2-0.4,0.5-0.4,0.9s0.1,0.7,0.4,0.9C97.9,10,98.3,10.1,98.7,10.1z"/>
	<path class="st0" d="M108.1,14.6c-1.4,0-2.5-0.4-3.5-1.2l1-1.5c0.6,0.7,1.4,1,2.5,1c0.6,0,1.1-0.2,1.6-0.5c0.4-0.3,0.7-0.8,0.7-1.6
		V10c-0.7,0.8-1.5,1.3-2.5,1.3s-1.9-0.4-2.6-1.1c-0.7-0.7-1-1.7-1-3s0.3-2.3,1-3s1.5-1.1,2.6-1.1c1,0,1.8,0.4,2.5,1.2v-1h2.1v7.5
		c0,0.7-0.1,1.4-0.4,1.9s-0.6,0.9-1.1,1.2c-0.4,0.3-0.9,0.5-1.4,0.6C109.1,14.5,108.6,14.6,108.1,14.6z M108.5,9.4
		c0.3,0,0.7-0.1,1-0.3s0.6-0.4,0.8-0.7V5.9c-0.2-0.3-0.4-0.5-0.8-0.7c-0.3-0.2-0.7-0.3-1-0.3c-0.6,0-1.1,0.2-1.5,0.6
		s-0.6,0.9-0.6,1.6s0.2,1.2,0.6,1.6C107.4,9.2,107.9,9.4,108.5,9.4z"/>
	<path class="st0" d="M122.3,11.3h-2.1V6.5c0-1-0.5-1.5-1.5-1.5c-0.8,0-1.4,0.3-1.8,1v5.4h-2.1V3.3h2.1v1.1c0.7-0.8,1.6-1.3,2.8-1.3
		c0.9,0,1.5,0.2,2,0.7c0.4,0.5,0.7,1.1,0.7,1.9L122.3,11.3L122.3,11.3z"/>
	<path class="st0" d="M132.1,11.3H130v-1c-0.7,0.8-1.7,1.2-2.8,1.2c-0.9,0-1.5-0.2-2-0.7c-0.4-0.4-0.7-1.1-0.7-1.9V3.3h2.1v4.9
		c0,1,0.5,1.5,1.5,1.5c0.7,0,1.4-0.3,1.8-0.9V3.3h2.1v8H132.1z"/>
	<path class="st0" d="M146.5,11.3h-2.1V6.2c0-0.9-0.4-1.3-1.2-1.3c-0.3,0-0.7,0.1-1,0.3c-0.3,0.2-0.5,0.4-0.7,0.7v5.4h-2.1V6.2
		c0-0.9-0.4-1.3-1.2-1.3c-0.3,0-0.7,0.1-1,0.3c-0.3,0.2-0.5,0.4-0.7,0.7v5.4h-2.1v-8h2.1v1.1c0.2-0.3,0.6-0.6,1.1-0.8
		c0.5-0.3,1-0.4,1.6-0.4c1.2,0,1.9,0.5,2.2,1.5c0.3-0.4,0.6-0.7,1.1-1s1-0.4,1.6-0.4c0.8,0,1.3,0.2,1.8,0.6c0.4,0.4,0.6,1,0.6,1.8
		L146.5,11.3L146.5,11.3z"/>
	<path class="st0" d="M158.7,11.5c-1.7,0-3.1-0.5-4.2-1.6c-1.1-1.1-1.7-2.5-1.7-4.1c0-1.7,0.6-3.1,1.7-4.1c1.1-1.1,2.5-1.6,4.2-1.6
		c2.1,0,3.6,0.9,4.7,2.7l-2,1c-0.2-0.5-0.6-0.9-1.1-1.2s-1-0.5-1.5-0.5c-1,0-1.8,0.3-2.5,1s-1,1.6-1,2.6c0,1.1,0.3,1.9,1,2.6
		s1.5,1,2.5,1c0.6,0,1.1-0.2,1.5-0.5c0.5-0.3,0.8-0.7,1.1-1.2l2,1C162.2,10.6,160.7,11.5,158.7,11.5z"/>
	<path class="st0" d="M167,11.3h-2.1V0.2h2.1V11.3z"/>
	<path class="st0" d="M176.8,11.3h-2.1v-1c-0.7,0.8-1.7,1.2-2.8,1.2c-0.9,0-1.5-0.2-2-0.7c-0.4-0.4-0.7-1.1-0.7-1.9V3.3h2.1v4.9
		c0,1,0.5,1.5,1.5,1.5c0.7,0,1.4-0.3,1.8-0.9V3.3h2.1L176.8,11.3L176.8,11.3z"/>
	<path class="st0" d="M181.2,11.3h-2.1V0.2h2.1v4.1c0.6-0.8,1.5-1.2,2.5-1.2s1.9,0.4,2.6,1.2c0.7,0.8,1,1.8,1,3.1s-0.3,2.3-1,3.1
		s-1.5,1.1-2.6,1.1c-1,0-1.8-0.4-2.5-1.2V11.3z M181.2,8.7c0.2,0.3,0.4,0.5,0.8,0.6c0.3,0.2,0.7,0.3,1,0.3c0.6,0,1.1-0.2,1.5-0.6
		c0.4-0.4,0.6-1,0.6-1.7s-0.2-1.3-0.6-1.7c-0.4-0.4-0.9-0.7-1.5-0.7c-0.3,0-0.7,0.1-1,0.3c-0.3,0.2-0.6,0.4-0.8,0.7V8.7z"/>
</g>
</svg>
