<?xml version="1.0" encoding="utf-8"?>
<!-- Generator: Adobe Illustrator 25.2.3, SVG Export Plug-In . SVG Version: 6.00 Build 0)  -->
<svg version="1.1" id="Layer_1" xmlns="http://www.w3.org/2000/svg" xmlns:xlink="http://www.w3.org/1999/xlink" x="0px" y="0px"
	 viewBox="0 0 222.2 28.5" style="enable-background:new 0 0 222.2 28.5;" xml:space="preserve">
<style type="text/css">
	.st0{fill:#FFFFFF;}
</style>
<g>
	<path class="st0" d="M13.3,28.5H0V5.8h12.9c2.1,0,3.7,0.6,4.9,1.7c1.2,1.1,1.7,2.5,1.7,4.1c0,1.4-0.4,2.5-1.1,3.4
		c-0.7,0.9-1.7,1.5-2.8,1.8c1.2,0.2,2.2,0.8,3.1,1.9s1.2,2.3,1.2,3.7c0,1.7-0.6,3.2-1.7,4.4C17,27.9,15.4,28.5,13.3,28.5z
		 M11.5,14.5c0.6,0,1.1-0.2,1.4-0.5c0.4-0.4,0.6-0.8,0.6-1.4c0-0.5-0.2-1-0.6-1.3s-0.9-0.5-1.4-0.5H5.8v3.8H11.5z M11.7,23.5
		c0.7,0,1.3-0.2,1.6-0.6s0.6-0.9,0.6-1.5c0-0.6-0.2-1.1-0.6-1.5s-0.9-0.6-1.6-0.6H5.8v4.1H11.7z"/>
	<path class="st0" d="M23.5,5.8h5.8v7.6h5.5c2.4,0,4.4,0.7,5.8,2.2s2.1,3.2,2.1,5.4c0,2.2-0.7,4-2.1,5.4c-1.4,1.4-3.3,2.2-5.8,2.2
		H23.5V5.8z M34,18.5h-4.7v4.9H34c0.8,0,1.4-0.2,2-0.6c0.5-0.4,0.8-1,0.8-1.8c0-0.7-0.3-1.3-0.8-1.8C35.5,18.7,34.8,18.5,34,18.5z
		 M50.2,28.5h-5.8V5.8h5.8V28.5z"/>
	<path class="st0" d="M60.3,28.5h-5.6V5.8h5.8v13.4l9.2-13.4h6.1v22.7h-5.9v-14L60.3,28.5z"/>
	<path class="st0" d="M86,28.5h-5.8V5.8h16.6v5.1H86V28.5z"/>
	<path class="st0" d="M106.1,28.5h-5.8V5.8h11.4c2.4,0,4.4,0.7,5.8,2.2s2.1,3.2,2.1,5.4c0,2.1-0.7,3.9-2.1,5.4s-3.3,2.2-5.8,2.2
		h-5.5V28.5z M110.8,15.7c0.8,0,1.4-0.2,2-0.6c0.5-0.4,0.8-1,0.8-1.8c0-0.8-0.3-1.4-0.8-1.8c-0.5-0.4-1.2-0.6-2-0.6h-4.7v4.9H110.8z
		"/>
	<path class="st0" d="M122.5,5.8h5.8v7.6h5.5c2.4,0,4.4,0.7,5.8,2.2s2.1,3.2,2.1,5.4c0,2.2-0.7,4-2.1,5.4c-1.4,1.4-3.3,2.2-5.8,2.2
		h-11.4V5.8z M133,18.5h-4.7v4.9h4.7c0.8,0,1.4-0.2,2-0.6c0.5-0.4,0.8-1,0.8-1.8c0-0.7-0.3-1.3-0.8-1.8
		C134.5,18.7,133.8,18.5,133,18.5z M149.2,28.5h-5.8V5.8h5.8V28.5z"/>
	<path class="st0" d="M166.9,28.5h-13.3V5.8h12.9c2.1,0,3.7,0.6,4.9,1.7c1.2,1.1,1.7,2.5,1.7,4.1c0,1.4-0.4,2.5-1.1,3.4
		c-0.7,0.9-1.7,1.5-2.8,1.8c1.2,0.2,2.2,0.8,3.1,1.9s1.2,2.3,1.2,3.7c0,1.7-0.6,3.2-1.7,4.4C170.7,27.9,169,28.5,166.9,28.5z
		 M165.2,14.5c0.6,0,1.1-0.2,1.4-0.5c0.4-0.4,0.6-0.8,0.6-1.4c0-0.5-0.2-1-0.6-1.3s-0.9-0.5-1.4-0.5h-5.7v3.8H165.2z M165.4,23.5
		c0.7,0,1.3-0.2,1.6-0.6s0.6-0.9,0.6-1.5c0-0.6-0.2-1.1-0.6-1.5s-0.9-0.6-1.6-0.6h-5.9v4.1H165.4z"/>
	<path class="st0" d="M199.1,28.5h-6.6l-1.1-3.3h-8.9l-1.1,3.3h-6.6l8.5-22.7h7.3L199.1,28.5z M189.8,20.1l-2.9-8.5l-2.9,8.5H189.8z
		"/>
	<path class="st0" d="M206.8,28.5h-5.6V5.8h5.8v13.4l9.2-13.4h6.1v22.7h-5.9v-14L206.8,28.5z M217.6,1.8c-1.5,2-3.5,3-6,3
		c-2.5,0-4.5-1-6-3l2.2-1.8c1,1.3,2.2,2,3.7,2c1.6,0,2.8-0.7,3.7-2L217.6,1.8z"/>
</g>
</svg>
