<?xml version="1.0" encoding="utf-8"?>
<!-- Generator: Adobe Illustrator 25.2.3, SVG Export Plug-In . SVG Version: 6.00 Build 0)  -->
<svg version="1.1" id="Layer_1" xmlns="http://www.w3.org/2000/svg" xmlns:xlink="http://www.w3.org/1999/xlink" x="0px" y="0px"
	 viewBox="0 0 258.2 116.3" style="enable-background:new 0 0 258.2 116.3;" xml:space="preserve">
<style type="text/css">
	.st0{fill:#FFFFFF;}
</style>
<g>
	<path class="st0" d="M18.1,0.4h22.4v6.4h-15v3.7h7.2c3,0,5.4,0.9,7.1,2.6c1.7,1.8,2.6,4,2.6,6.6c0,2.6-0.9,4.8-2.6,6.6
		c-1.7,1.8-4.1,2.7-7.1,2.7H18.1V0.4z M31.8,16.9h-6.3v5.6h6.3c0.9,0,1.7-0.3,2.2-0.8c0.6-0.5,0.9-1.2,0.9-2.1c0-0.9-0.3-1.5-0.9-2
		C33.5,17.2,32.8,16.9,31.8,16.9z"/>
	<path class="st0" d="M50.6,29.5c-3,0-5.5-0.7-7.3-2.2l2.9-5.8c1.3,0.9,2.5,1.4,3.7,1.4c0.9,0,1.6-0.2,2.1-0.5s1-0.9,1.4-1.7
		L43.1,0.4h8.3l6.2,13.4l6.2-13.4h8.3l-11.6,23C58.5,27.5,55.2,29.5,50.6,29.5z"/>
	<path class="st0" d="M88.5,29h-7.4V6.8h-8V0.4h23.4v6.4h-8V29z"/>
	<path class="st0" d="M121.5,29h-21V0.4h21v6.4h-13.6v4.5h13.3v6.4h-13.3v4.9h13.6V29z"/>
	<path class="st0" d="M133.6,29h-7.4V0.4h14.3c3.1,0,5.5,0.9,7.3,2.7s2.7,4.1,2.7,6.8s-0.9,4.9-2.7,6.8c-1.8,1.8-4.2,2.7-7.3,2.7h-7
		V29H133.6z M139.5,13c1,0,1.8-0.3,2.5-0.8c0.6-0.5,1-1.3,1-2.2c0-1-0.3-1.7-1-2.3c-0.6-0.5-1.5-0.8-2.5-0.8h-6V13H139.5z"/>
	<path class="st0" d="M154.2,0.4h22.4v6.4h-15v3.7h7.2c3,0,5.4,0.9,7.1,2.6c1.7,1.8,2.6,4,2.6,6.6c0,2.6-0.9,4.8-2.6,6.6
		c-1.7,1.8-4.1,2.7-7.1,2.7h-14.6L154.2,0.4L154.2,0.4z M167.9,16.9h-6.3v5.6h6.3c0.9,0,1.7-0.3,2.2-0.8c0.6-0.5,0.9-1.2,0.9-2.1
		c0-0.9-0.3-1.5-0.9-2C169.6,17.2,168.8,16.9,167.9,16.9z"/>
	<path class="st0" d="M207.1,25.4c-2.9,2.8-6.5,4.2-11,4.2s-8.1-1.4-11-4.2s-4.4-6.3-4.4-10.6s1.5-7.9,4.4-10.6
		c2.9-2.8,6.6-4.2,11-4.2s8.1,1.4,11,4.2s4.3,6.3,4.3,10.6C211.4,19,210,22.6,207.1,25.4z M196.1,23c2.3,0,4.2-0.8,5.6-2.4
		c1.4-1.6,2.1-3.5,2.1-5.9s-0.7-4.4-2.1-5.9c-1.4-1.6-3.3-2.4-5.6-2.4s-4.2,0.8-5.7,2.4c-1.4,1.6-2.1,3.5-2.1,5.9s0.7,4.4,2.1,5.9
		S193.8,23,196.1,23z"/>
	<path class="st0" d="M212.6,34.3V23c1.5-0.2,2.7-0.9,3.5-1.9c0.8-1.1,1.4-3.1,1.7-6.2l1.7-14.5h21.3v22.2h2.6v11.7H236V29h-16v5.3
		H212.6z M225.1,15.4c-0.4,3-1.4,5.4-3.1,7.1h11.5V6.8h-7.3L225.1,15.4z"/>
	<path class="st0" d="M15.5,70.5c-4.4,0-8.1-1.4-11.1-4.1S0,60.1,0,55.7S1.5,47.8,4.4,45c2.9-2.7,6.6-4.1,11.1-4.1
		c5.8,0,9.9,2.6,12.5,7.7l-6.4,3c-0.5-1.2-1.3-2.2-2.4-3s-2.4-1.2-3.7-1.2c-2.3,0-4.2,0.8-5.7,2.4s-2.3,3.6-2.3,5.9
		c0,2.3,0.8,4.3,2.3,5.9s3.4,2.4,5.7,2.4c1.3,0,2.6-0.4,3.7-1.2c1.1-0.8,1.9-1.8,2.4-3l6.4,3c-1.1,2.2-2.7,4-4.7,5.5
		C21.2,69.8,18.6,70.5,15.5,70.5z"/>
	<path class="st0" d="M56.4,66.4c-2.9,2.8-6.5,4.2-11,4.2s-8.1-1.4-11-4.2S30,60.1,30,55.8s1.5-7.9,4.4-10.6S41,41,45.4,41
		s8.1,1.4,11,4.2s4.3,6.3,4.3,10.6C60.8,60,59.3,63.6,56.4,66.4z M45.5,64c2.3,0,4.2-0.8,5.6-2.4c1.4-1.6,2.1-3.5,2.1-5.9
		s-0.7-4.4-2.1-5.9c-1.4-1.6-3.3-2.4-5.6-2.4s-4.2,0.8-5.7,2.4c-1.4,1.6-2.1,3.5-2.1,5.9s0.7,4.4,2.1,5.9C41.2,63.2,43.1,64,45.5,64
		z"/>
	<path class="st0" d="M93.1,70H76.3V41.4h16.2c2.7,0,4.7,0.7,6.2,2.2s2.2,3.2,2.2,5.1c0,1.7-0.5,3.2-1.4,4.3
		c-0.9,1.2-2.1,1.9-3.5,2.2c1.5,0.2,2.8,1,3.9,2.3s1.6,2.9,1.6,4.7c0,2.2-0.7,4.1-2.2,5.5S95.8,70,93.1,70z M90.9,52.4
		c0.7,0,1.4-0.2,1.8-0.7c0.5-0.4,0.7-1,0.7-1.7s-0.2-1.3-0.7-1.7s-1.1-0.7-1.8-0.7h-7.2v4.8C83.7,52.4,90.9,52.4,90.9,52.4z
		 M91.2,63.8c0.9,0,1.6-0.2,2.1-0.7s0.8-1.1,0.8-1.9c0-0.7-0.3-1.4-0.8-1.8c-0.5-0.5-1.2-0.7-2.1-0.7h-7.4v5.2L91.2,63.8L91.2,63.8z
		"/>
	<path class="st0" d="M131.9,70h-9.1l-7.5-10.8l-1.9,2.4V70H106V41.4h7.4v11.8l8.8-11.8h9.1l-11.1,13.4L131.9,70z"/>
	<path class="st0" d="M138.9,70.5c-3,0-5.5-0.7-7.3-2.2l2.9-5.8c1.3,0.9,2.5,1.4,3.7,1.4c0.9,0,1.6-0.2,2.1-0.5s1-0.9,1.4-1.7
		l-10.3-20.5h8.3l6.2,13.4l6.2-13.4h8.3l-11.6,23C146.8,68.5,143.5,70.5,138.9,70.5z"/>
	<path class="st0" d="M176.2,70.5c-4.4,0-8.1-1.4-11.1-4.1s-4.4-6.3-4.4-10.7s1.5-7.9,4.4-10.7c2.9-2.7,6.6-4.1,11.1-4.1
		c5.8,0,9.9,2.6,12.5,7.7l-6.4,3c-0.5-1.2-1.3-2.2-2.4-3c-1.1-0.8-2.4-1.2-3.7-1.2c-2.3,0-4.2,0.8-5.7,2.4s-2.3,3.6-2.3,5.9
		c0,2.3,0.8,4.3,2.3,5.9s3.4,2.4,5.7,2.4c1.3,0,2.6-0.4,3.7-1.2c1.1-0.8,1.9-1.8,2.4-3l6.4,3c-1.1,2.2-2.7,4-4.7,5.5
		C182,69.8,179.4,70.5,176.2,70.5z"/>
	<path class="st0" d="M217.1,66.4c-2.9,2.8-6.5,4.2-11,4.2s-8.1-1.4-11-4.2s-4.4-6.3-4.4-10.6s1.5-7.9,4.4-10.6s6.6-4.2,11-4.2
		s8.1,1.4,11,4.2s4.3,6.3,4.3,10.6C221.5,60,220,63.6,217.1,66.4z M206.2,64c2.3,0,4.2-0.8,5.6-2.4c1.4-1.6,2.1-3.5,2.1-5.9
		s-0.7-4.4-2.1-5.9c-1.4-1.6-3.3-2.4-5.6-2.4s-4.2,0.8-5.7,2.4c-1.4,1.6-2.1,3.5-2.1,5.9s0.7,4.4,2.1,5.9
		C202,63.2,203.8,64,206.2,64z"/>
	<path class="st0" d="M258.1,70h-7.4V51.4L243.4,70h-3.3L233,51.4V70h-7.4V41.4h10.3l6,15.5l6-15.5h10.3V70H258.1z"/>
	<path class="st0" d="M62.7,111.5c-3,0-5.5-0.7-7.3-2.2l2.9-5.8c1.3,0.9,2.5,1.4,3.7,1.4c0.9,0,1.6-0.2,2.1-0.5
		c0.5-0.3,1-0.9,1.4-1.7L55.2,82.4h8.3l6.2,13.4L76,82.4h8.3l-11.6,23C70.6,109.5,67.3,111.5,62.7,111.5z"/>
	<path class="st0" d="M83.4,116.3V105c1.5-0.2,2.7-0.9,3.5-1.9c0.8-1.1,1.4-3.1,1.7-6.2l1.7-14.5h21.3v22.2h2.6v11.7h-7.4V111h-16
		v5.3C90.8,116.3,83.4,116.3,83.4,116.3z M95.9,97.4c-0.4,3-1.4,5.4-3.1,7.1h11.5V88.8H97L95.9,97.4z"/>
	<path class="st0" d="M145.6,111h-8.4l-1.4-4.1h-11.3l-1.4,4.1h-8.4l10.8-28.6h9.3L145.6,111z M133.8,100.4l-3.7-10.8l-3.6,10.8
		H133.8z"/>
	<path class="st0" d="M152.3,82.4v8.5c0,2.9,1.5,4.4,4.6,4.4c1.8,0,3.4-0.3,4.8-0.8V82.4h7.4V111h-7.4v-10c-2.2,0.5-4.2,0.8-5.8,0.8
		c-3.7,0-6.4-1-8.3-2.9c-1.8-1.9-2.8-4.6-2.8-7.9v-8.5L152.3,82.4L152.3,82.4z"/>
	<path class="st0" d="M181.8,111h-7.1V82.4h7.4v16.9l11.6-16.9h7.6V111h-7.4V93.3L181.8,111z"/>
</g>
</svg>
