<?xml version="1.0" encoding="utf-8"?>
<!-- Generator: Adobe Illustrator 25.2.3, SVG Export Plug-In . SVG Version: 6.00 Build 0)  -->
<svg version="1.1" id="Layer_1" xmlns="http://www.w3.org/2000/svg" xmlns:xlink="http://www.w3.org/1999/xlink" x="0px" y="0px"
	 viewBox="0 0 145.9 33.1" style="enable-background:new 0 0 145.9 33.1;" xml:space="preserve">
<style type="text/css">
	.st0{fill:#FFFFFF;}
</style>
<g>
	<path class="st0" d="M8.6,9.4H6.2V2.3H2.4v7.1H0V0.2h8.6V9.4z"/>
	<path class="st0" d="M16.5,9.6c-1.2,0-2.1-0.5-2.8-1.4v4.7h-2.4V0.2h2.4v1.2C14.3,0.5,15.3,0,16.5,0c1.2,0,2.2,0.4,2.9,1.3
		c0.8,0.9,1.1,2,1.1,3.5c0,1.5-0.4,2.7-1.1,3.5C18.6,9.2,17.7,9.6,16.5,9.6z M15.7,7.5c0.7,0,1.3-0.2,1.7-0.7
		C17.8,6.3,18,5.6,18,4.8c0-0.8-0.2-1.4-0.6-1.9s-1-0.7-1.7-0.7c-0.4,0-0.8,0.1-1.2,0.3c-0.4,0.2-0.7,0.5-0.9,0.7v3.2
		c0.2,0.3,0.5,0.5,0.9,0.7C14.9,7.4,15.3,7.5,15.7,7.5z"/>
	<path class="st0" d="M24.8,9.4h-2.3V0.2h2.4v5.5l3.8-5.5h2.4v9.2h-2.4V3.6L24.8,9.4z"/>
	<path class="st0" d="M37,9.6c-1.8,0-3.3-0.5-4.3-1.5l1.1-1.5c0.8,0.7,1.9,1,3.2,1c0.6,0,1.1-0.1,1.4-0.3c0.3-0.2,0.5-0.4,0.5-0.7
		c0-0.7-0.7-1-2.1-1H35V3.8h1.9c1.3,0,1.9-0.3,1.9-1c0-0.3-0.2-0.5-0.5-0.7s-0.8-0.3-1.3-0.3c-1.2,0-2.1,0.3-2.8,1l-1.2-1.4
		c1-1,2.3-1.5,3.9-1.5c1.4,0,2.5,0.2,3.3,0.7c0.8,0.5,1.2,1.1,1.2,1.9c0,0.6-0.2,1-0.7,1.4c-0.5,0.4-1,0.6-1.7,0.7
		c0.6,0,1.2,0.3,1.8,0.6c0.5,0.4,0.8,0.9,0.8,1.5c0,0.8-0.4,1.5-1.2,2C39.5,9.4,38.4,9.6,37,9.6z"/>
	<path class="st0" d="M43.5,0.2h2.4v3.2H49c1,0,1.8,0.3,2.4,0.9c0.6,0.6,0.8,1.3,0.8,2.1c0,0.8-0.3,1.6-0.9,2.1
		C50.8,9.1,50,9.4,49,9.4h-5.5V0.2z M48.6,5.4h-2.8v2h2.8c0.3,0,0.6-0.1,0.8-0.3c0.2-0.2,0.3-0.4,0.3-0.7s-0.1-0.5-0.3-0.7
		C49.2,5.5,49,5.4,48.6,5.4z M55.8,9.4h-2.4V0.2h2.4V9.4z"/>
	<path class="st0" d="M9,26.4h-3l-2.4-3.5L2.4,24v2.4H0v-9.2h2.4v4.1l3.5-4.1h3l-3.6,4.2L9,26.4z"/>
	<path class="st0" d="M18.3,26.4h-2.4v-1c-0.7,0.8-1.6,1.2-2.9,1.2c-0.8,0-1.6-0.3-2.2-0.8c-0.7-0.5-1-1.3-1-2.2c0-1,0.3-1.7,1-2.2
		s1.4-0.7,2.2-0.7c1.3,0,2.3,0.4,2.9,1.1v-1.2c0-0.5-0.2-0.8-0.6-1.1c-0.4-0.3-0.9-0.4-1.5-0.4c-1,0-1.9,0.4-2.7,1.1l-0.9-1.6
		c1.1-1,2.4-1.4,4-1.4c1.2,0,2.1,0.3,2.9,0.8s1.1,1.4,1.1,2.7V26.4z M13.9,25c0.9,0,1.5-0.3,1.9-0.8v-1.1c-0.4-0.5-1-0.8-1.9-0.8
		c-0.5,0-0.9,0.1-1.2,0.4c-0.3,0.2-0.5,0.6-0.5,1c0,0.4,0.2,0.7,0.5,1C13,24.9,13.4,25,13.9,25z"/>
	<path class="st0" d="M22.7,26.4h-3l3.7-5l-3.6-4.2h3l2.8,3.3v-3.3H28v3.3l2.8-3.3h3l-3.6,4.2l3.7,5h-3l-2.5-3.5L28,23.3v3.1h-2.4
		v-3.1l-0.4-0.5L22.7,26.4z"/>
	<path class="st0" d="M34.4,28.7v-4.4c0.3-0.1,0.5-0.1,0.7-0.3c0.2-0.1,0.3-0.4,0.5-0.8s0.3-0.9,0.4-1.7l0.6-4.4h7.4v7.1h1v4.4h-2.4
		v-2.3h-5.6v2.3H34.4z M38.6,19.3l-0.3,2.5c-0.1,1.1-0.5,1.9-1.1,2.5h4.3v-5H38.6z"/>
	<path class="st0" d="M46.3,30l0.4-2.2c0.2,0.1,0.5,0.2,0.8,0.2c0.6,0,1.1-0.2,1.3-0.7l0.3-0.8l-3.7-9.3h2.6l2.4,6.4l2.4-6.4h2.6
		L51,27.9c-0.3,0.8-0.8,1.4-1.3,1.7c-0.6,0.3-1.3,0.5-2.1,0.5C47.1,30.1,46.7,30.1,46.3,30z"/>
	<path class="st0" d="M65.3,26.6c-1.3,0-2.3-0.4-3.2-1.1s-1.4-1.7-1.6-2.8H59v3.7h-2.4v-9.2H59v3.4h1.6c0.2-1.1,0.8-1.9,1.6-2.6
		s1.9-1,3.1-1c1.5,0,2.6,0.5,3.5,1.4s1.3,2.1,1.3,3.4s-0.4,2.5-1.3,3.4C67.9,26.2,66.8,26.6,65.3,26.6z M65.3,24.5
		c0.7,0,1.3-0.3,1.7-0.8s0.6-1.1,0.6-1.9c0-0.7-0.2-1.4-0.6-1.9c-0.4-0.5-1-0.8-1.7-0.8c-0.7,0-1.3,0.3-1.7,0.8
		c-0.4,0.5-0.6,1.1-0.6,1.9c0,0.8,0.2,1.4,0.6,1.9S64.6,24.5,65.3,24.5z"/>
	<path class="st0" d="M79.6,26.4h-2.4v-9.2h2.4v3.4h3.8v-3.4h2.4v9.2h-2.4v-3.7h-3.8V26.4z"/>
	<path class="st0" d="M92.7,26.6c-1.4,0-2.6-0.4-3.5-1.3s-1.4-2.1-1.4-3.5c0-1.4,0.4-2.5,1.3-3.4c0.9-0.9,2-1.4,3.4-1.4
		c1.4,0,2.5,0.5,3.3,1.4c0.8,0.9,1.3,2.2,1.3,3.7v0.5h-6.8c0.1,0.6,0.3,1.1,0.8,1.5s1.1,0.6,1.8,0.6c0.4,0,0.8-0.1,1.3-0.2
		c0.5-0.2,0.9-0.4,1.1-0.7l1.1,1.6C95.6,26.2,94.3,26.6,92.7,26.6z M94.8,21c0-0.5-0.2-1-0.6-1.4c-0.4-0.4-0.9-0.6-1.6-0.6
		c-0.7,0-1.2,0.2-1.6,0.6c-0.4,0.4-0.6,0.9-0.7,1.4H94.8z"/>
	<path class="st0" d="M98.2,28.7v-4.4c0.3-0.1,0.5-0.1,0.7-0.3c0.2-0.1,0.3-0.4,0.5-0.8s0.3-0.9,0.4-1.7l0.6-4.4h7.4v7.1h1v4.4h-2.4
		v-2.3h-5.6v2.3H98.2z M102.4,19.3l-0.3,2.5c-0.1,1.1-0.5,1.9-1.1,2.5h4.3v-5H102.4z"/>
	<path class="st0" d="M114.8,26.6c-1.4,0-2.6-0.4-3.5-1.3s-1.4-2.1-1.4-3.5c0-1.4,0.4-2.5,1.3-3.4c0.9-0.9,2-1.4,3.4-1.4
		c1.4,0,2.5,0.5,3.3,1.4c0.8,0.9,1.3,2.2,1.3,3.7v0.5h-6.8c0.1,0.6,0.3,1.1,0.8,1.5s1.1,0.6,1.8,0.6c0.4,0,0.8-0.1,1.3-0.2
		c0.5-0.2,0.9-0.4,1.1-0.7l1.1,1.6C117.6,26.2,116.4,26.6,114.8,26.6z M116.9,21c0-0.5-0.2-1-0.6-1.4c-0.4-0.4-0.9-0.6-1.6-0.6
		c-0.7,0-1.2,0.2-1.6,0.6c-0.4,0.4-0.6,0.9-0.7,1.4H116.9z"/>
	<path class="st0" d="M120.3,26.6v-2c0.4,0,0.7-0.2,0.9-0.7c0.2-0.4,0.4-1.2,0.6-2.3l0.6-4.4h7.4v9.2h-2.4v-7.1h-2.9l-0.3,2.6
		c-0.2,1.6-0.6,2.8-1.2,3.5S121.4,26.6,120.3,26.6z"/>
	<path class="st0" d="M141.1,26.6c-1.3,0-2.3-0.4-3.2-1.1s-1.4-1.7-1.6-2.8h-1.5v3.7h-2.4v-9.2h2.4v3.4h1.6c0.2-1.1,0.8-1.9,1.6-2.6
		s1.9-1,3.1-1c1.5,0,2.6,0.5,3.5,1.4s1.3,2.1,1.3,3.4s-0.4,2.5-1.3,3.4C143.7,26.2,142.5,26.6,141.1,26.6z M141.1,24.5
		c0.7,0,1.3-0.3,1.7-0.8s0.6-1.1,0.6-1.9c0-0.7-0.2-1.4-0.6-1.9c-0.4-0.5-1-0.8-1.7-0.8c-0.7,0-1.3,0.3-1.7,0.8
		c-0.4,0.5-0.6,1.1-0.6,1.9c0,0.8,0.2,1.4,0.6,1.9S140.3,24.5,141.1,24.5z"/>
</g>
</svg>
