<?xml version="1.0" encoding="utf-8"?>
<!-- Generator: Adobe Illustrator 25.2.3, SVG Export Plug-In . SVG Version: 6.00 Build 0)  -->
<svg version="1.1" id="Layer_1" xmlns="http://www.w3.org/2000/svg" xmlns:xlink="http://www.w3.org/1999/xlink" x="0px" y="0px"
	 viewBox="0 0 241.1 35.5" style="enable-background:new 0 0 241.1 35.5;" xml:space="preserve">
<style type="text/css">
	.st0{fill:#FFFFFF;}
</style>
<g>
	<path class="st0" d="M6,12.2H3.5V3.5l-2,2L0,4l3.8-3.8H6V12.2z"/>
	<path class="st0" d="M12.9,12.4c-2,0-3.5-0.6-4.6-1.8l1.4-1.8c0.8,0.9,1.9,1.3,3.2,1.3c0.7,0,1.2-0.2,1.6-0.5
		c0.4-0.3,0.6-0.8,0.6-1.3s-0.2-1-0.6-1.3c-0.4-0.3-0.9-0.5-1.6-0.5c-1,0-1.8,0.3-2.5,1L8.6,7.1V0.2h8.2v2.2h-5.7v2.9
		c0.7-0.7,1.6-1,2.6-1c1.1,0,2,0.4,2.7,1.1s1.1,1.7,1.1,2.8c0,1.3-0.4,2.3-1.3,3C15.5,12,14.3,12.4,12.9,12.4z"/>
	<path class="st0" d="M26.9,11.5c-0.8,0.6-1.7,0.9-2.8,0.9s-2-0.3-2.8-0.9c-0.8-0.6-1.3-1.4-1.7-2.3s-0.5-1.9-0.5-3s0.2-2.1,0.5-3
		s0.9-1.7,1.7-2.3C22.1,0.3,23,0,24.1,0s2,0.3,2.8,0.9s1.3,1.4,1.7,2.3s0.5,1.9,0.5,3s-0.2,2.1-0.5,3S27.6,10.9,26.9,11.5z
		 M22.3,9.1c0.4,0.7,1,1.1,1.8,1.1s1.4-0.4,1.8-1.1c0.4-0.7,0.6-1.7,0.6-2.9s-0.2-2.1-0.6-2.9c-0.4-0.7-1-1.1-1.8-1.1
		s-1.4,0.4-1.8,1.1S21.7,5,21.7,6.2S21.9,8.3,22.3,9.1z"/>
	<path class="st0" d="M38.2,11.5c-0.8,0.6-1.7,0.9-2.8,0.9s-2-0.3-2.8-0.9c-0.8-0.6-1.3-1.4-1.7-2.3s-0.5-1.9-0.5-3s0.2-2.1,0.5-3
		s0.9-1.7,1.7-2.3C33.4,0.3,34.3,0,35.4,0s2,0.3,2.8,0.9s1.3,1.4,1.7,2.3s0.5,1.9,0.5,3s-0.2,2.1-0.5,3S39,10.9,38.2,11.5z
		 M33.6,9.1c0.4,0.7,1,1.1,1.8,1.1s1.4-0.4,1.8-1.1c0.4-0.7,0.6-1.7,0.6-2.9s-0.2-2.1-0.6-2.9c-0.4-0.7-1-1.1-1.8-1.1
		S34,2.6,33.6,3.3C33.2,4.1,33,5,33,6.2S33.2,8.3,33.6,9.1z"/>
	<path class="st0" d="M51,12.2h-2.3V5.5h-2.4v-2h7.2v2H51V12.2z"/>
	<path class="st0" d="M63.9,12.4c-1.4,0-2.5-0.5-3.4-1.4c-0.8-0.9-1.2-2.1-1.2-3.6c0-2.1,0.4-3.6,1.1-4.7c0.7-1,1.9-1.6,3.4-1.9
		c1.3-0.2,2-0.4,2-0.7h2.4c0,1.3-1.2,2-3.6,2.3c-1.8,0.2-2.9,1-3.1,2.2c0.7-0.9,1.7-1.4,3-1.4c1.2,0,2.2,0.4,3,1.3s1.1,2,1.1,3.2
		c0,1.3-0.4,2.4-1.3,3.3C66.4,12,65.3,12.4,63.9,12.4z M62.3,9.6c0.4,0.5,0.9,0.7,1.6,0.7c0.7,0,1.2-0.2,1.6-0.7s0.6-1.1,0.6-1.8
		S65.9,6.5,65.5,6s-0.9-0.7-1.6-0.7S62.7,5.6,62.3,6c-0.4,0.5-0.6,1.1-0.6,1.8S61.9,9.1,62.3,9.6z"/>
	<path class="st0" d="M77.9,12.2h-2.3v-0.9c-0.6,0.7-1.5,1.1-2.8,1.1c-0.8,0-1.5-0.3-2.1-0.8s-0.9-1.2-0.9-2.1
		c0-0.9,0.3-1.6,0.9-2.1s1.3-0.7,2.1-0.7c1.2,0,2.2,0.4,2.8,1.1V6.6c0-0.4-0.2-0.8-0.5-1.1c-0.3-0.3-0.8-0.4-1.4-0.4
		c-0.9,0-1.8,0.3-2.5,1l-0.9-1.5c1-0.9,2.3-1.4,3.8-1.4c1.1,0,2,0.3,2.7,0.8s1.1,1.4,1.1,2.5C77.9,6.5,77.9,12.2,77.9,12.2z
		 M73.8,10.9c0.9,0,1.5-0.3,1.8-0.8V9c-0.4-0.5-1-0.8-1.8-0.8c-0.5,0-0.9,0.1-1.2,0.4c-0.3,0.2-0.5,0.6-0.5,1s0.2,0.7,0.5,0.9
		C72.9,10.7,73.3,10.9,73.8,10.9z"/>
	<path class="st0" d="M84.4,12.4c-1.3,0-2.4-0.4-3.3-1.3s-1.3-1.9-1.3-3.3c0-1.3,0.4-2.4,1.3-3.3s2-1.3,3.3-1.3
		c1.5,0,2.7,0.5,3.4,1.6l-1.5,1.4c-0.4-0.6-1-0.9-1.8-0.9c-0.7,0-1.3,0.2-1.7,0.7c-0.4,0.5-0.7,1.1-0.7,1.8s0.2,1.4,0.7,1.8
		c0.4,0.5,1,0.7,1.7,0.7c0.8,0,1.4-0.3,1.8-0.9l1.5,1.4C87.1,11.9,86,12.4,84.4,12.4z"/>
	<path class="st0" d="M93.4,12.2h-2.3V5.5h-2.4v-2h7.2v2h-2.4L93.4,12.2L93.4,12.2z"/>
	<path class="st0" d="M105,12.2h-2.3v-0.9c-0.6,0.7-1.5,1.1-2.8,1.1c-0.8,0-1.5-0.3-2.1-0.8s-0.9-1.2-0.9-2.1c0-0.9,0.3-1.6,0.9-2.1
		s1.3-0.7,2.1-0.7c1.2,0,2.2,0.4,2.8,1.1V6.6c0-0.4-0.2-0.8-0.5-1.1c-0.3-0.3-0.8-0.4-1.4-0.4c-0.9,0-1.8,0.3-2.5,1l-0.9-1.5
		c1-0.9,2.3-1.4,3.8-1.4c1.1,0,2,0.3,2.7,0.8s1.1,1.4,1.1,2.5C105,6.5,105,12.2,105,12.2z M100.9,10.9c0.9,0,1.5-0.3,1.8-0.8V9
		c-0.4-0.5-1-0.8-1.8-0.8c-0.5,0-0.9,0.1-1.2,0.4c-0.3,0.2-0.5,0.6-0.5,1s0.2,0.7,0.5,0.9C100,10.7,100.4,10.9,100.9,10.9z"/>
	<path class="st0" d="M115.6,12.2h-2.3V5.5h-3.6v6.7h-2.3V3.5h8.2C115.6,3.5,115.6,12.2,115.6,12.2z"/>
	<path class="st0" d="M133.7,12.2h-2.6v-5h-5.7v5h-2.6v-12h2.6v4.7h5.7V0.2h2.6V12.2z"/>
	<path class="st0" d="M143.6,11.1c-0.8,0.9-2,1.3-3.3,1.3c-1.4,0-2.5-0.4-3.3-1.3s-1.3-2-1.3-3.2s0.4-2.4,1.3-3.2
		c0.8-0.9,1.9-1.3,3.3-1.3c1.4,0,2.5,0.4,3.3,1.3s1.3,2,1.3,3.2S144.4,10.2,143.6,11.1z M138.6,9.6c0.4,0.5,0.9,0.7,1.6,0.7
		s1.2-0.2,1.6-0.7c0.4-0.5,0.6-1.1,0.6-1.8s-0.2-1.3-0.6-1.8s-0.9-0.7-1.6-0.7S139,5.6,138.6,6c-0.4,0.5-0.6,1.1-0.6,1.8
		C138,8.6,138.2,9.2,138.6,9.6z"/>
	<path class="st0" d="M150.7,12.4c-1.3,0-2.4-0.4-3.3-1.3s-1.3-1.9-1.3-3.3c0-1.3,0.4-2.4,1.3-3.3s2-1.3,3.3-1.3
		c1.5,0,2.7,0.5,3.4,1.6l-1.5,1.4c-0.4-0.6-1-0.9-1.8-0.9c-0.7,0-1.3,0.2-1.7,0.7s-0.7,1.1-0.7,1.8s0.2,1.4,0.7,1.8
		c0.4,0.5,1,0.7,1.7,0.7c0.8,0,1.4-0.3,1.8-0.9l1.5,1.4C153.4,11.9,152.3,12.4,150.7,12.4z"/>
	<path class="st0" d="M164,12.2h-2.3V6.9c0-0.6-0.1-1-0.4-1.2c-0.3-0.2-0.7-0.4-1.2-0.4c-0.8,0-1.5,0.3-2,1v5.9h-2.3v-12h2.3v4.4
		c0.3-0.4,0.7-0.7,1.3-1c0.5-0.3,1.1-0.4,1.8-0.4c0.9,0,1.6,0.2,2.1,0.7s0.7,1.2,0.7,2L164,12.2L164,12.2z"/>
	<path class="st0" d="M168.8,12.2h-2.3v-12h2.3V12.2z"/>
	<path class="st0" d="M178.7,12.2h-2.3v-0.9c-0.6,0.7-1.5,1.1-2.8,1.1c-0.8,0-1.5-0.3-2.1-0.8s-0.9-1.2-0.9-2.1
		c0-0.9,0.3-1.6,0.9-2.1c0.6-0.5,1.3-0.7,2.1-0.7c1.2,0,2.2,0.4,2.8,1.1V6.6c0-0.4-0.2-0.8-0.5-1.1c-0.3-0.3-0.8-0.4-1.4-0.4
		c-0.9,0-1.8,0.3-2.5,1l-0.9-1.5c1-0.9,2.3-1.4,3.8-1.4c1.1,0,2,0.3,2.7,0.8s1.1,1.4,1.1,2.5L178.7,12.2L178.7,12.2z M174.6,10.9
		c0.9,0,1.5-0.3,1.8-0.8V9c-0.4-0.5-1-0.8-1.8-0.8c-0.5,0-0.9,0.1-1.2,0.4c-0.3,0.2-0.5,0.6-0.5,1s0.2,0.7,0.5,0.9
		C173.7,10.7,174.1,10.9,174.6,10.9z"/>
	<path class="st0" d="M189.3,12.2H187V6.9c0-1.1-0.5-1.6-1.6-1.6c-0.8,0-1.5,0.3-2,1v5.9h-2.3V3.5h2.3v1.1c0.8-0.9,1.8-1.4,3-1.4
		c0.9,0,1.6,0.2,2.1,0.7s0.7,1.2,0.7,2v6.3H189.3z"/>
	<path class="st0" d="M200.1,12.2h-2.3v-1.1c-0.7,0.9-1.6,1.3-2.7,1.3c-1.1,0-2.1-0.4-2.8-1.2s-1.1-1.9-1.1-3.3s0.4-2.5,1.1-3.3
		c0.7-0.8,1.6-1.2,2.8-1.2c1.1,0,2,0.4,2.7,1.3V0.2h2.3V12.2z M195.8,10.4c0.4,0,0.8-0.1,1.1-0.3c0.4-0.2,0.7-0.4,0.8-0.7V6.3
		c-0.2-0.3-0.5-0.5-0.8-0.7c-0.4-0.2-0.8-0.3-1.1-0.3c-0.6,0-1.2,0.2-1.6,0.7c-0.4,0.5-0.6,1.1-0.6,1.8s0.2,1.4,0.6,1.8
		C194.6,10.1,195.1,10.4,195.8,10.4z"/>
	<path class="st0" d="M3.2,32.2H0.9v-8.7h2.3v3.2h3.6v-3.2h2.3v8.7H6.8v-3.5H3.2V32.2z"/>
	<path class="st0" d="M15.6,32.4c-1.3,0-2.5-0.4-3.3-1.3S11,29.2,11,27.8c0-1.3,0.4-2.4,1.3-3.2c0.8-0.9,1.9-1.3,3.2-1.3
		s2.3,0.4,3.1,1.3c0.8,0.9,1.2,2,1.2,3.5v0.5h-6.5c0.1,0.6,0.3,1.1,0.8,1.4c0.4,0.4,1,0.6,1.7,0.6c0.4,0,0.8-0.1,1.3-0.2
		c0.5-0.2,0.8-0.4,1.1-0.6l1,1.5C18.3,32,17.2,32.4,15.6,32.4z M17.6,27c0-0.5-0.2-0.9-0.6-1.3s-0.9-0.6-1.6-0.6
		c-0.6,0-1.2,0.2-1.5,0.6c-0.4,0.4-0.6,0.8-0.6,1.3H17.6z"/>
	<path class="st0" d="M32,32.2h-2.3v-5.7l-2.3,5.7h-1L24,26.5v5.7h-2.3v-8.7h3l2.1,5.2l2.1-5.2h3L32,32.2L32,32.2z"/>
	<path class="st0" d="M38.5,32.4c-1.3,0-2.5-0.4-3.3-1.3s-1.3-1.9-1.3-3.3c0-1.3,0.4-2.4,1.3-3.2c0.8-0.9,1.9-1.3,3.2-1.3
		s2.3,0.4,3.1,1.3s1.2,2,1.2,3.5v0.5h-6.5c0.1,0.6,0.3,1.1,0.8,1.4c0.4,0.4,1,0.6,1.7,0.6c0.4,0,0.8-0.1,1.3-0.2
		c0.5-0.2,0.8-0.4,1.1-0.6l1,1.5C41.2,32,40,32.4,38.5,32.4z M40.5,27c0-0.5-0.2-0.9-0.6-1.3c-0.4-0.4-0.9-0.6-1.6-0.6
		c-0.6,0-1.2,0.2-1.5,0.6c-0.4,0.4-0.6,0.8-0.6,1.3H40.5z"/>
	<path class="st0" d="M48.6,32.4c-1.3,0-2.4-0.4-3.3-1.3c-0.9-0.9-1.3-2-1.3-3.3s0.4-2.4,1.3-3.3c0.9-0.9,2-1.3,3.3-1.3
		c1.5,0,2.7,0.5,3.4,1.6l-1.5,1.4c-0.4-0.6-1-0.9-1.8-0.9c-0.7,0-1.3,0.2-1.7,0.7s-0.7,1.1-0.7,1.8c0,0.8,0.2,1.4,0.7,1.8
		c0.4,0.5,1,0.7,1.7,0.7c0.8,0,1.4-0.3,1.8-0.9l1.5,1.4C51.3,31.9,50.1,32.4,48.6,32.4z"/>
	<path class="st0" d="M57.8,32.4c-1.3,0-2.5-0.4-3.3-1.3s-1.3-1.9-1.3-3.3c0-1.3,0.4-2.4,1.3-3.2c0.8-0.9,1.9-1.3,3.2-1.3
		s2.3,0.4,3.1,1.3s1.2,2,1.2,3.5v0.5h-6.5c0.1,0.6,0.3,1.1,0.8,1.4c0.4,0.4,1,0.6,1.7,0.6c0.4,0,0.8-0.1,1.3-0.2
		c0.5-0.2,0.8-0.4,1.1-0.6l1,1.5C60.5,32,59.3,32.4,57.8,32.4z M59.8,27c0-0.5-0.2-0.9-0.6-1.3c-0.4-0.4-0.9-0.6-1.6-0.6
		c-0.6,0-1.2,0.2-1.5,0.6c-0.4,0.4-0.6,0.8-0.6,1.3H59.8z"/>
	<path class="st0" d="M74.5,32.4c-1.8,0-3.3-0.6-4.5-1.7c-1.2-1.2-1.8-2.7-1.8-4.5c0-1.9,0.6-3.4,1.8-4.5c1.2-1.1,2.7-1.7,4.5-1.7
		c2.2,0,3.8,0.9,5,2.7l-2.1,1.2c-0.3-0.5-0.7-0.8-1.2-1.1s-1.1-0.4-1.7-0.4c-1.1,0-2,0.4-2.7,1.1s-1.1,1.7-1.1,2.8
		c0,1.1,0.4,2.1,1.1,2.8s1.6,1.1,2.7,1.1c0.5,0,1-0.1,1.5-0.3c0.5-0.2,0.8-0.4,1.1-0.6v-1.4h-3.2v-2.2h5.7v4.6
		C78.3,31.7,76.6,32.4,74.5,32.4z"/>
	<path class="st0" d="M84.1,32.2h-2.3v-8.7h2.3v1.2c0.3-0.4,0.7-0.7,1.2-1s1-0.4,1.5-0.4v2.2c-0.2,0-0.4-0.1-0.6-0.1
		c-0.4,0-0.8,0.1-1.2,0.3c-0.4,0.2-0.7,0.4-0.9,0.7V32.2z"/>
	<path class="st0" d="M96.6,32.2h-2.3v-1.1c-0.8,0.9-1.8,1.3-3.1,1.3c-0.9,0-1.6-0.2-2.1-0.7s-0.7-1.2-0.7-2v-6.2h2.3v5.3
		c0,1.1,0.5,1.6,1.6,1.6c0.8,0,1.5-0.3,2-1v-5.9h2.3C96.6,23.5,96.6,32.2,96.6,32.2z M91.5,20.3c0.2,0.2,0.4,0.5,0.4,0.9
		s-0.1,0.6-0.4,0.9s-0.5,0.4-0.9,0.4s-0.6-0.1-0.9-0.4c-0.2-0.2-0.4-0.5-0.4-0.9c0-0.3,0.1-0.6,0.4-0.9c0.2-0.2,0.5-0.4,0.9-0.4
		S91.2,20.1,91.5,20.3z M95.3,20.3c0.2,0.2,0.4,0.5,0.4,0.9s-0.1,0.6-0.4,0.9s-0.5,0.4-0.9,0.4c-0.3,0-0.6-0.1-0.9-0.4
		s-0.4-0.5-0.4-0.9s0.1-0.6,0.4-0.9c0.2-0.2,0.5-0.4,0.9-0.4C94.7,20,95,20.1,95.3,20.3z"/>
	<path class="st0" d="M107.2,32.2h-2.3v-5.3c0-1.1-0.5-1.6-1.6-1.6c-0.8,0-1.5,0.3-2,1v5.8H99v-8.7h2.3v1.1c0.8-0.9,1.8-1.4,3-1.4
		c0.9,0,1.6,0.2,2.1,0.7s0.7,1.2,0.7,2L107.2,32.2L107.2,32.2z"/>
	<path class="st0" d="M111.9,32.2h-2.3v-12h2.3V32.2z"/>
	<path class="st0" d="M121.9,32.2h-2.3v-0.9c-0.6,0.7-1.5,1.1-2.8,1.1c-0.8,0-1.5-0.3-2.1-0.8s-0.9-1.2-0.9-2.1s0.3-1.6,0.9-2.1
		s1.3-0.7,2.1-0.7c1.2,0,2.2,0.4,2.8,1.1v-1.2c0-0.4-0.2-0.8-0.5-1.1c-0.3-0.3-0.8-0.4-1.4-0.4c-0.9,0-1.8,0.3-2.5,1l-0.9-1.5
		c1-0.9,2.3-1.4,3.8-1.4c1.1,0,2,0.3,2.7,0.8s1.1,1.4,1.1,2.5C121.9,26.5,121.9,32.2,121.9,32.2z M117,20.3c0.2,0.2,0.4,0.5,0.4,0.9
		s-0.1,0.6-0.4,0.9c-0.2,0.2-0.5,0.4-0.9,0.4s-0.6-0.1-0.9-0.4s-0.4-0.5-0.4-0.9c0-0.3,0.1-0.6,0.4-0.9c0.2-0.2,0.5-0.4,0.9-0.4
		S116.8,20.1,117,20.3z M117.8,30.9c0.9,0,1.5-0.3,1.8-0.8V29c-0.4-0.5-1-0.8-1.8-0.8c-0.5,0-0.9,0.1-1.2,0.4
		c-0.3,0.2-0.5,0.6-0.5,1s0.2,0.7,0.5,0.9C116.9,30.7,117.3,30.9,117.8,30.9z M120.9,20.3c0.2,0.2,0.4,0.5,0.4,0.9s-0.1,0.6-0.4,0.9
		c-0.2,0.2-0.5,0.4-0.9,0.4s-0.6-0.1-0.9-0.4s-0.4-0.5-0.4-0.9s0.1-0.6,0.4-0.9c0.2-0.2,0.5-0.4,0.9-0.4S120.6,20.1,120.9,20.3z"/>
	<path class="st0" d="M132.5,32.2h-2.3v-5.3c0-1.1-0.5-1.6-1.6-1.6c-0.8,0-1.5,0.3-2,1v5.8h-2.3v-8.7h2.3v1.1c0.8-0.9,1.8-1.4,3-1.4
		c0.9,0,1.6,0.2,2.1,0.7s0.7,1.2,0.7,2v6.4H132.5z"/>
	<path class="st0" d="M143.2,32.2h-2.3v-1.1c-0.7,0.9-1.6,1.3-2.7,1.3c-1.1,0-2.1-0.4-2.8-1.2s-1.1-1.9-1.1-3.3s0.4-2.5,1.1-3.3
		c0.7-0.8,1.6-1.2,2.8-1.2c1.1,0,2,0.4,2.7,1.3v-4.4h2.3V32.2z M138.9,30.4c0.4,0,0.8-0.1,1.1-0.3c0.4-0.2,0.7-0.4,0.8-0.7v-3.1
		c-0.2-0.3-0.5-0.5-0.8-0.7c-0.4-0.2-0.8-0.3-1.1-0.3c-0.6,0-1.2,0.2-1.6,0.7s-0.6,1.1-0.6,1.8c0,0.7,0.2,1.3,0.6,1.8
		C137.7,30.1,138.3,30.4,138.9,30.4z"/>
	<path class="st0" d="M149.7,32.4c-1.3,0-2.5-0.4-3.3-1.3s-1.3-1.9-1.3-3.3c0-1.3,0.4-2.4,1.3-3.2c0.8-0.9,1.9-1.3,3.2-1.3
		s2.3,0.4,3.1,1.3s1.2,2,1.2,3.5v0.5h-6.5c0.1,0.6,0.3,1.1,0.8,1.4c0.4,0.4,1,0.6,1.7,0.6c0.4,0,0.8-0.1,1.3-0.2
		c0.5-0.2,0.8-0.4,1.1-0.6l1,1.5C152.4,32,151.3,32.4,149.7,32.4z M151.7,27c0-0.5-0.2-0.9-0.6-1.3c-0.4-0.4-0.9-0.6-1.6-0.6
		c-0.6,0-1.2,0.2-1.5,0.6c-0.4,0.4-0.6,0.8-0.6,1.3H151.7z"/>
	<path class="st0" d="M158.1,32.2h-2.3v-8.7h2.3v1.2c0.3-0.4,0.7-0.7,1.2-1s1-0.4,1.5-0.4v2.2c-0.2,0-0.4-0.1-0.6-0.1
		c-0.4,0-0.8,0.1-1.2,0.3c-0.4,0.2-0.7,0.4-0.9,0.7V32.2z"/>
	<path class="st0" d="M168.4,22.6c-0.4,0-0.7-0.1-1-0.4s-0.4-0.6-0.4-1s0.1-0.7,0.4-1c0.3-0.3,0.6-0.4,1-0.4s0.7,0.1,1,0.4
		s0.4,0.6,0.4,1s-0.1,0.7-0.4,1C169.1,22.4,168.8,22.6,168.4,22.6z M169.5,32.2h-2.3v-8.7h2.3V32.2z"/>
	<path class="st0" d="M176.9,32.4c-1.1,0-2-0.4-2.7-1.3v4.4H172v-12h2.3v1.1c0.7-0.9,1.6-1.3,2.7-1.3c1.1,0,2.1,0.4,2.8,1.2
		c0.7,0.8,1.1,1.9,1.1,3.3s-0.4,2.5-1.1,3.3S178.1,32.4,176.9,32.4z M176.2,30.4c0.7,0,1.2-0.2,1.6-0.7c0.4-0.5,0.6-1.1,0.6-1.8
		c0-0.7-0.2-1.3-0.6-1.8c-0.4-0.5-0.9-0.7-1.6-0.7c-0.4,0-0.7,0.1-1.1,0.3s-0.7,0.4-0.8,0.7v3.1c0.2,0.3,0.5,0.5,0.9,0.7
		C175.5,30.3,175.9,30.4,176.2,30.4z"/>
	<path class="st0" d="M183.8,22.6c-0.4,0-0.7-0.1-1-0.4s-0.4-0.6-0.4-1s0.1-0.7,0.4-1c0.3-0.3,0.6-0.4,1-0.4s0.7,0.1,1,0.4
		s0.4,0.6,0.4,1s-0.1,0.7-0.4,1C184.5,22.4,184.2,22.6,183.8,22.6z M184.9,32.2h-2.3v-8.7h2.3V32.2z"/>
	<path class="st0" d="M197.7,32.2h-2.3v-5.7l-2.3,5.7h-1l-2.3-5.7v5.7h-2.3v-8.7h3l2.1,5.2l2.1-5.2h3V32.2z"/>
	<path class="st0" d="M210.3,23.5h2.3v8.7h-12.5v-8.7h2.3v6.7h2.8v-6.7h2.3v6.7h2.8L210.3,23.5L210.3,23.5z"/>
	<path class="st0" d="M216.2,22.6c-0.4,0-0.7-0.1-1-0.4s-0.4-0.6-0.4-1s0.1-0.7,0.4-1c0.3-0.3,0.6-0.4,1-0.4s0.7,0.1,1,0.4
		s0.4,0.6,0.4,1s-0.1,0.7-0.4,1C216.9,22.4,216.6,22.6,216.2,22.6z M217.4,32.2h-2.3v-8.7h2.3V32.2z"/>
	<path class="st0" d="M226.5,23.5v2h-4.4v6.7h-2.3v-8.7H226.5z"/>
	<path class="st0" d="M229.3,22.6c-0.4,0-0.7-0.1-1-0.4s-0.4-0.6-0.4-1s0.1-0.7,0.4-1c0.3-0.3,0.6-0.4,1-0.4s0.7,0.1,1,0.4
		s0.4,0.6,0.4,1s-0.1,0.7-0.4,1C230,22.4,229.7,22.6,229.3,22.6z M230.5,32.2h-2.3v-8.7h2.3V32.2z"/>
	<path class="st0" d="M235.2,32.2h-2.3v-8.7h2.3v3.2h3.6v-3.2h2.3v8.7h-2.3v-3.5h-3.6V32.2z"/>
</g>
</svg>
