<?xml version="1.0" encoding="utf-8"?>
<!-- Generator: Adobe Illustrator 25.2.3, SVG Export Plug-In . SVG Version: 6.00 Build 0)  -->
<svg version="1.1" id="Layer_1" xmlns="http://www.w3.org/2000/svg" xmlns:xlink="http://www.w3.org/1999/xlink" x="0px" y="0px"
	 viewBox="0 0 240.2 35.5" style="enable-background:new 0 0 240.2 35.5;" xml:space="preserve">
<style type="text/css">
	.st0{fill:#FFFFFF;}
</style>
<g>
	<path class="st0" d="M27.9,12.2h-2.6V3.5l-2,2L21.9,4l3.8-3.8h2.2V12.2z"/>
	<path class="st0" d="M34.8,12.4c-2,0-3.5-0.6-4.6-1.8l1.4-1.8c0.8,0.9,1.9,1.3,3.2,1.3c0.7,0,1.2-0.2,1.6-0.5
		C36.8,9.3,37,8.9,37,8.4c0-0.5-0.2-1-0.6-1.3c-0.4-0.3-0.9-0.5-1.6-0.5c-1,0-1.8,0.3-2.5,1l-1.8-0.5V0.2h8.2v2.2h-5.7v2.9
		c0.7-0.7,1.6-1,2.6-1c1.1,0,2,0.4,2.7,1.1c0.8,0.7,1.1,1.7,1.1,2.8c0,1.3-0.4,2.3-1.3,3S36.2,12.4,34.8,12.4z"/>
	<path class="st0" d="M48.8,11.5c-0.8,0.6-1.7,0.9-2.8,0.9s-2-0.3-2.8-0.9c-0.8-0.6-1.3-1.4-1.7-2.3c-0.3-0.9-0.5-1.9-0.5-3
		s0.2-2.1,0.5-3c0.3-0.9,0.9-1.7,1.7-2.3C43.9,0.3,44.9,0,46,0s2,0.3,2.8,0.9c0.8,0.6,1.3,1.4,1.7,2.3c0.3,0.9,0.5,1.9,0.5,3
		s-0.2,2.1-0.5,3C50.1,10.1,49.5,10.9,48.8,11.5z M44.2,9.1c0.4,0.7,1,1.1,1.8,1.1c0.8,0,1.4-0.4,1.8-1.1c0.4-0.7,0.6-1.7,0.6-2.9
		c0-1.2-0.2-2.1-0.6-2.9c-0.4-0.7-1-1.1-1.8-1.1c-0.8,0-1.4,0.4-1.8,1.1c-0.4,0.7-0.6,1.7-0.6,2.9C43.6,7.4,43.8,8.3,44.2,9.1z"/>
	<path class="st0" d="M60.1,11.5c-0.8,0.6-1.7,0.9-2.8,0.9c-1.1,0-2-0.3-2.8-0.9c-0.8-0.6-1.3-1.4-1.7-2.3c-0.3-0.9-0.5-1.9-0.5-3
		s0.2-2.1,0.5-3c0.3-0.9,0.9-1.7,1.7-2.3C55.3,0.3,56.2,0,57.3,0c1.1,0,2,0.3,2.8,0.9c0.8,0.6,1.3,1.4,1.7,2.3
		c0.3,0.9,0.5,1.9,0.5,3s-0.2,2.1-0.5,3C61.4,10.1,60.9,10.9,60.1,11.5z M55.5,9.1c0.4,0.7,1,1.1,1.8,1.1c0.8,0,1.4-0.4,1.8-1.1
		c0.4-0.7,0.6-1.7,0.6-2.9c0-1.2-0.2-2.1-0.6-2.9c-0.4-0.7-1-1.1-1.8-1.1c-0.8,0-1.4,0.4-1.8,1.1c-0.4,0.7-0.6,1.7-0.6,2.9
		C54.9,7.4,55.1,8.3,55.5,9.1z"/>
	<path class="st0" d="M72.9,12.2h-2.3V5.5h-2.4v-2h7.2v2h-2.4V12.2z"/>
	<path class="st0" d="M85.8,12.4c-1.4,0-2.5-0.5-3.4-1.4c-0.8-0.9-1.2-2.1-1.2-3.6c0-2.1,0.4-3.6,1.1-4.7s1.9-1.7,3.4-1.9
		c1.3-0.2,2-0.4,2-0.7H90c0,1.3-1.2,2-3.6,2.3c-1.8,0.2-2.9,1-3.1,2.2c0.7-0.9,1.7-1.4,3-1.4c1.2,0,2.2,0.4,3,1.3
		c0.8,0.9,1.1,2,1.1,3.2c0,1.3-0.4,2.4-1.3,3.3S87.2,12.4,85.8,12.4z M84.1,9.6c0.4,0.5,0.9,0.7,1.6,0.7c0.7,0,1.2-0.2,1.6-0.7
		C87.8,9.1,88,8.5,88,7.8c0-0.7-0.2-1.3-0.6-1.8c-0.4-0.5-0.9-0.7-1.6-0.7c-0.7,0-1.2,0.2-1.6,0.7c-0.4,0.5-0.6,1.1-0.6,1.8
		C83.6,8.5,83.8,9.1,84.1,9.6z"/>
	<path class="st0" d="M99.8,12.2h-2.3v-0.9c-0.6,0.7-1.5,1.1-2.8,1.1c-0.8,0-1.5-0.3-2.1-0.8c-0.6-0.5-0.9-1.2-0.9-2.1
		c0-0.9,0.3-1.6,0.9-2.1c0.6-0.5,1.3-0.7,2.1-0.7c1.2,0,2.2,0.4,2.8,1.1V6.6c0-0.4-0.2-0.8-0.5-1.1c-0.3-0.3-0.8-0.4-1.4-0.4
		c-0.9,0-1.8,0.3-2.5,1l-0.9-1.5c1-0.9,2.3-1.4,3.8-1.4c1.1,0,2,0.3,2.7,0.8c0.7,0.5,1.1,1.4,1.1,2.5V12.2z M95.7,10.9
		c0.9,0,1.5-0.3,1.8-0.8V9c-0.4-0.5-1-0.8-1.8-0.8c-0.5,0-0.9,0.1-1.2,0.4c-0.3,0.2-0.5,0.6-0.5,1c0,0.4,0.2,0.7,0.5,0.9
		C94.8,10.7,95.2,10.9,95.7,10.9z"/>
	<path class="st0" d="M106.3,12.4c-1.3,0-2.4-0.4-3.3-1.3c-0.9-0.9-1.3-1.9-1.3-3.3c0-1.3,0.4-2.4,1.3-3.3c0.9-0.9,2-1.3,3.3-1.3
		c1.5,0,2.7,0.5,3.4,1.6l-1.5,1.4c-0.4-0.6-1-0.9-1.8-0.9c-0.7,0-1.3,0.2-1.7,0.7c-0.4,0.5-0.7,1.1-0.7,1.8s0.2,1.4,0.7,1.8
		c0.4,0.5,1,0.7,1.7,0.7c0.8,0,1.4-0.3,1.8-0.9l1.5,1.4C109,11.9,107.8,12.4,106.3,12.4z"/>
	<path class="st0" d="M115.3,12.2H113V5.5h-2.4v-2h7.2v2h-2.4V12.2z"/>
	<path class="st0" d="M126.9,12.2h-2.3v-0.9c-0.6,0.7-1.5,1.1-2.8,1.1c-0.8,0-1.5-0.3-2.1-0.8c-0.6-0.5-0.9-1.2-0.9-2.1
		c0-0.9,0.3-1.6,0.9-2.1c0.6-0.5,1.3-0.7,2.1-0.7c1.2,0,2.2,0.4,2.8,1.1V6.6c0-0.4-0.2-0.8-0.5-1.1c-0.3-0.3-0.8-0.4-1.4-0.4
		c-0.9,0-1.8,0.3-2.5,1l-0.9-1.5c1-0.9,2.3-1.4,3.8-1.4c1.1,0,2,0.3,2.7,0.8c0.7,0.5,1.1,1.4,1.1,2.5V12.2z M122.8,10.9
		c0.9,0,1.5-0.3,1.8-0.8V9c-0.4-0.5-1-0.8-1.8-0.8c-0.5,0-0.9,0.1-1.2,0.4c-0.3,0.2-0.5,0.6-0.5,1c0,0.4,0.2,0.7,0.5,0.9
		C121.9,10.7,122.3,10.9,122.8,10.9z"/>
	<path class="st0" d="M137.5,12.2h-2.3V5.5h-3.6v6.7h-2.3V3.5h8.2V12.2z"/>
	<path class="st0" d="M155.6,12.2H153v-5h-5.7v5h-2.6v-12h2.6v4.7h5.7V0.2h2.6V12.2z"/>
	<path class="st0" d="M165.5,11.1c-0.8,0.9-2,1.3-3.3,1.3c-1.4,0-2.5-0.4-3.3-1.3s-1.3-2-1.3-3.2s0.4-2.4,1.3-3.2
		c0.8-0.9,1.9-1.3,3.3-1.3c1.4,0,2.5,0.4,3.3,1.3c0.8,0.9,1.3,2,1.3,3.2S166.3,10.2,165.5,11.1z M160.5,9.6c0.4,0.5,0.9,0.7,1.6,0.7
		s1.2-0.2,1.6-0.7c0.4-0.5,0.6-1.1,0.6-1.8c0-0.7-0.2-1.3-0.6-1.8c-0.4-0.5-0.9-0.7-1.6-0.7s-1.2,0.2-1.6,0.7
		c-0.4,0.5-0.6,1.1-0.6,1.8C159.9,8.5,160.1,9.2,160.5,9.6z"/>
	<path class="st0" d="M172.6,12.4c-1.3,0-2.4-0.4-3.3-1.3c-0.9-0.9-1.3-1.9-1.3-3.3c0-1.3,0.4-2.4,1.3-3.3c0.9-0.9,2-1.3,3.3-1.3
		c1.5,0,2.7,0.5,3.4,1.6l-1.5,1.4c-0.4-0.6-1-0.9-1.8-0.9c-0.7,0-1.3,0.2-1.7,0.7c-0.4,0.5-0.7,1.1-0.7,1.8s0.2,1.4,0.7,1.8
		c0.4,0.5,1,0.7,1.7,0.7c0.8,0,1.4-0.3,1.8-0.9l1.5,1.4C175.3,11.9,174.2,12.4,172.6,12.4z"/>
	<path class="st0" d="M185.9,12.2h-2.3V6.9c0-0.6-0.1-1-0.4-1.2c-0.3-0.2-0.7-0.4-1.2-0.4c-0.8,0-1.5,0.3-2,1v5.9h-2.3v-12h2.3v4.4
		c0.3-0.4,0.7-0.7,1.3-1c0.5-0.3,1.1-0.4,1.8-0.4c0.9,0,1.6,0.2,2.1,0.7c0.5,0.5,0.7,1.2,0.7,2V12.2z"/>
	<path class="st0" d="M190.7,12.2h-2.3v-12h2.3V12.2z"/>
	<path class="st0" d="M200.6,12.2h-2.3v-0.9c-0.6,0.7-1.5,1.1-2.8,1.1c-0.8,0-1.5-0.3-2.1-0.8c-0.6-0.5-0.9-1.2-0.9-2.1
		c0-0.9,0.3-1.6,0.9-2.1c0.6-0.5,1.3-0.7,2.1-0.7c1.2,0,2.2,0.4,2.8,1.1V6.6c0-0.4-0.2-0.8-0.5-1.1c-0.3-0.3-0.8-0.4-1.4-0.4
		c-0.9,0-1.8,0.3-2.5,1L193,4.6c1-0.9,2.3-1.4,3.8-1.4c1.1,0,2,0.3,2.7,0.8c0.7,0.5,1.1,1.4,1.1,2.5V12.2z M196.5,10.9
		c0.9,0,1.5-0.3,1.8-0.8V9c-0.4-0.5-1-0.8-1.8-0.8c-0.5,0-0.9,0.1-1.2,0.4c-0.3,0.2-0.5,0.6-0.5,1c0,0.4,0.2,0.7,0.5,0.9
		C195.6,10.7,196,10.9,196.5,10.9z"/>
	<path class="st0" d="M211.2,12.2h-2.3V6.9c0-1.1-0.5-1.6-1.6-1.6c-0.8,0-1.5,0.3-2,1v5.9h-2.3V3.5h2.3v1.1c0.8-0.9,1.8-1.3,3-1.3
		c0.9,0,1.6,0.2,2.1,0.7c0.5,0.5,0.7,1.2,0.7,2V12.2z"/>
	<path class="st0" d="M221.9,12.2h-2.3v-1.1c-0.7,0.9-1.6,1.3-2.7,1.3c-1.1,0-2.1-0.4-2.8-1.2c-0.7-0.8-1.1-1.9-1.1-3.3
		c0-1.4,0.4-2.5,1.1-3.3c0.7-0.8,1.6-1.2,2.8-1.2c1.1,0,2,0.4,2.7,1.3V0.2h2.3V12.2z M217.7,10.4c0.4,0,0.8-0.1,1.1-0.3
		c0.4-0.2,0.7-0.4,0.8-0.7V6.3c-0.2-0.3-0.5-0.5-0.8-0.7c-0.4-0.2-0.8-0.3-1.1-0.3c-0.6,0-1.2,0.2-1.6,0.7c-0.4,0.5-0.6,1.1-0.6,1.8
		c0,0.7,0.2,1.3,0.6,1.8C216.5,10.1,217,10.4,217.7,10.4z"/>
	<path class="st0" d="M2.3,32.2H0v-8.7h2.3v3.2h3.6v-3.2h2.3v8.7H5.9v-3.5H2.3V32.2z"/>
	<path class="st0" d="M14.7,32.4c-1.3,0-2.5-0.4-3.3-1.3c-0.9-0.8-1.3-1.9-1.3-3.3c0-1.3,0.4-2.4,1.3-3.2c0.8-0.9,1.9-1.3,3.2-1.3
		c1.3,0,2.3,0.4,3.1,1.3c0.8,0.9,1.2,2,1.2,3.5v0.5h-6.5c0.1,0.6,0.3,1.1,0.8,1.4c0.4,0.4,1,0.6,1.7,0.6c0.4,0,0.8-0.1,1.3-0.2
		c0.4-0.2,0.8-0.4,1.1-0.6l1,1.5C17.4,32,16.2,32.4,14.7,32.4z M16.7,27c0-0.5-0.2-0.9-0.6-1.3c-0.4-0.4-0.9-0.6-1.6-0.6
		c-0.6,0-1.2,0.2-1.5,0.6s-0.6,0.8-0.6,1.3H16.7z"/>
	<path class="st0" d="M31,32.2h-2.3v-5.7l-2.3,5.7h-1L23,26.5v5.7h-2.3v-8.7h3l2.1,5.2l2.1-5.2h3V32.2z"/>
	<path class="st0" d="M37.6,32.4c-1.3,0-2.5-0.4-3.3-1.3c-0.9-0.8-1.3-1.9-1.3-3.3c0-1.3,0.4-2.4,1.3-3.2c0.8-0.9,1.9-1.3,3.2-1.3
		c1.3,0,2.3,0.4,3.1,1.3c0.8,0.9,1.2,2,1.2,3.5v0.5h-6.5c0.1,0.6,0.3,1.1,0.8,1.4c0.4,0.4,1,0.6,1.7,0.6c0.4,0,0.8-0.1,1.3-0.2
		c0.4-0.2,0.8-0.4,1.1-0.6l1,1.5C40.3,32,39.1,32.4,37.6,32.4z M39.6,27c0-0.5-0.2-0.9-0.6-1.3c-0.4-0.4-0.9-0.6-1.6-0.6
		c-0.6,0-1.2,0.2-1.5,0.6s-0.6,0.8-0.6,1.3H39.6z"/>
	<path class="st0" d="M47.7,32.4c-1.3,0-2.4-0.4-3.3-1.3c-0.9-0.9-1.3-2-1.3-3.3c0-1.3,0.4-2.4,1.3-3.3c0.9-0.9,2-1.3,3.3-1.3
		c1.5,0,2.7,0.5,3.4,1.6l-1.5,1.4c-0.4-0.6-1-0.9-1.8-0.9c-0.7,0-1.3,0.2-1.7,0.7s-0.7,1.1-0.7,1.8c0,0.8,0.2,1.4,0.7,1.8
		c0.4,0.5,1,0.7,1.7,0.7c0.8,0,1.4-0.3,1.8-0.9l1.5,1.4C50.3,31.9,49.2,32.4,47.7,32.4z"/>
	<path class="st0" d="M56.9,32.4c-1.3,0-2.5-0.4-3.3-1.3s-1.3-1.9-1.3-3.3c0-1.3,0.4-2.4,1.3-3.2s1.9-1.3,3.2-1.3
		c1.3,0,2.3,0.4,3.1,1.3s1.2,2,1.2,3.5v0.5h-6.5c0.1,0.6,0.3,1.1,0.8,1.4c0.4,0.4,1,0.6,1.7,0.6c0.4,0,0.8-0.1,1.3-0.2
		s0.8-0.4,1.1-0.6l1,1.5C59.6,32,58.4,32.4,56.9,32.4z M58.9,27c0-0.5-0.2-0.9-0.6-1.3c-0.4-0.4-0.9-0.6-1.6-0.6
		c-0.6,0-1.2,0.2-1.5,0.6c-0.4,0.4-0.6,0.8-0.6,1.3H58.9z"/>
	<path class="st0" d="M73.6,32.4c-1.8,0-3.3-0.6-4.5-1.7c-1.2-1.2-1.8-2.7-1.8-4.5c0-1.9,0.6-3.4,1.8-4.5c1.2-1.1,2.7-1.7,4.5-1.7
		c2.2,0,3.8,0.9,5,2.7l-2.1,1.2c-0.3-0.5-0.7-0.8-1.2-1.1s-1.1-0.4-1.7-0.4c-1.1,0-2,0.4-2.7,1.1c-0.7,0.7-1.1,1.7-1.1,2.8
		c0,1.1,0.4,2.1,1.1,2.8s1.6,1.1,2.7,1.1c0.5,0,1-0.1,1.5-0.3c0.5-0.2,0.8-0.4,1.1-0.6v-1.4H73v-2.2h5.7v4.6
		C77.3,31.7,75.6,32.4,73.6,32.4z"/>
	<path class="st0" d="M83.1,32.2h-2.3v-8.7h2.3v1.2c0.3-0.4,0.7-0.7,1.2-1s1-0.4,1.5-0.4v2.2c-0.2,0-0.4-0.1-0.6-0.1
		c-0.4,0-0.8,0.1-1.2,0.3c-0.4,0.2-0.7,0.4-0.9,0.7V32.2z"/>
	<path class="st0" d="M95.7,32.2h-2.3v-1.1c-0.8,0.9-1.8,1.3-3.1,1.3c-0.9,0-1.6-0.2-2.1-0.7c-0.5-0.5-0.7-1.2-0.7-2v-6.2h2.3v5.3
		c0,1.1,0.5,1.6,1.6,1.6c0.8,0,1.5-0.3,2-1v-5.9h2.3V32.2z M90.5,20.3c0.2,0.2,0.4,0.5,0.4,0.9s-0.1,0.6-0.4,0.9
		c-0.2,0.2-0.5,0.4-0.9,0.4s-0.6-0.1-0.9-0.4s-0.4-0.5-0.4-0.9c0-0.3,0.1-0.6,0.4-0.9c0.2-0.2,0.5-0.4,0.9-0.4S90.3,20.1,90.5,20.3z
		 M94.3,20.3c0.2,0.2,0.4,0.5,0.4,0.9s-0.1,0.6-0.4,0.9c-0.2,0.2-0.5,0.4-0.9,0.4s-0.6-0.1-0.9-0.4s-0.4-0.5-0.4-0.9
		s0.1-0.6,0.4-0.9c0.2-0.2,0.5-0.4,0.9-0.4S94.1,20.1,94.3,20.3z"/>
	<path class="st0" d="M106.3,32.2H104v-5.3c0-1.1-0.5-1.6-1.6-1.6c-0.8,0-1.5,0.3-2,1v5.8h-2.3v-8.7h2.3v1.1c0.8-0.9,1.8-1.4,3-1.4
		c0.9,0,1.6,0.2,2.1,0.7c0.5,0.5,0.7,1.2,0.7,2V32.2z"/>
	<path class="st0" d="M111,32.2h-2.3v-12h2.3V32.2z"/>
	<path class="st0" d="M120.9,32.2h-2.3v-0.9c-0.6,0.7-1.5,1.1-2.8,1.1c-0.8,0-1.5-0.3-2.1-0.8s-0.9-1.2-0.9-2.1
		c0-0.9,0.3-1.6,0.9-2.1c0.6-0.5,1.3-0.7,2.1-0.7c1.2,0,2.2,0.4,2.8,1.1v-1.2c0-0.4-0.2-0.8-0.5-1.1c-0.3-0.3-0.8-0.4-1.4-0.4
		c-0.9,0-1.8,0.3-2.5,1l-0.9-1.5c1-0.9,2.3-1.4,3.8-1.4c1.1,0,2,0.3,2.7,0.8s1.1,1.4,1.1,2.5V32.2z M116.1,20.3
		c0.2,0.2,0.4,0.5,0.4,0.9s-0.1,0.6-0.4,0.9c-0.2,0.2-0.5,0.4-0.9,0.4s-0.6-0.1-0.9-0.4s-0.4-0.5-0.4-0.9c0-0.3,0.1-0.6,0.4-0.9
		c0.2-0.2,0.5-0.4,0.9-0.4S115.9,20.1,116.1,20.3z M116.8,30.9c0.9,0,1.5-0.3,1.8-0.8V29c-0.4-0.5-1-0.8-1.8-0.8
		c-0.5,0-0.9,0.1-1.2,0.4c-0.3,0.2-0.5,0.6-0.5,1c0,0.4,0.2,0.7,0.5,0.9C116,30.7,116.4,30.9,116.8,30.9z M119.9,20.3
		c0.2,0.2,0.4,0.5,0.4,0.9s-0.1,0.6-0.4,0.9s-0.5,0.4-0.9,0.4s-0.6-0.1-0.9-0.4c-0.2-0.2-0.4-0.5-0.4-0.9s0.1-0.6,0.4-0.9
		c0.2-0.2,0.5-0.4,0.9-0.4S119.7,20.1,119.9,20.3z"/>
	<path class="st0" d="M131.5,32.2h-2.3v-5.3c0-1.1-0.5-1.6-1.6-1.6c-0.8,0-1.5,0.3-2,1v5.8h-2.3v-8.7h2.3v1.1c0.8-0.9,1.8-1.4,3-1.4
		c0.9,0,1.6,0.2,2.1,0.7c0.5,0.5,0.7,1.2,0.7,2V32.2z"/>
	<path class="st0" d="M142.3,32.2H140v-1.1c-0.7,0.9-1.6,1.3-2.7,1.3c-1.1,0-2.1-0.4-2.8-1.2c-0.7-0.8-1.1-1.9-1.1-3.3
		c0-1.4,0.4-2.5,1.1-3.3c0.7-0.8,1.6-1.2,2.8-1.2c1.1,0,2,0.4,2.7,1.3v-4.4h2.3V32.2z M138,30.4c0.4,0,0.8-0.1,1.1-0.3
		c0.4-0.2,0.7-0.4,0.8-0.7v-3.1c-0.2-0.3-0.5-0.5-0.8-0.7c-0.4-0.2-0.8-0.3-1.1-0.3c-0.6,0-1.2,0.2-1.6,0.7s-0.6,1.1-0.6,1.8
		c0,0.7,0.2,1.3,0.6,1.8C136.8,30.1,137.3,30.4,138,30.4z"/>
	<path class="st0" d="M148.8,32.4c-1.3,0-2.5-0.4-3.3-1.3s-1.3-1.9-1.3-3.3c0-1.3,0.4-2.4,1.3-3.2c0.8-0.9,1.9-1.3,3.2-1.3
		c1.3,0,2.3,0.4,3.1,1.3c0.8,0.9,1.2,2,1.2,3.5v0.5h-6.5c0.1,0.6,0.3,1.1,0.8,1.4c0.4,0.4,1,0.6,1.7,0.6c0.4,0,0.8-0.1,1.3-0.2
		c0.5-0.2,0.8-0.4,1.1-0.6l1,1.5C151.5,32,150.3,32.4,148.8,32.4z M150.8,27c0-0.5-0.2-0.9-0.6-1.3c-0.4-0.4-0.9-0.6-1.6-0.6
		c-0.6,0-1.2,0.2-1.5,0.6c-0.4,0.4-0.6,0.8-0.6,1.3H150.8z"/>
	<path class="st0" d="M157.1,32.2h-2.3v-8.7h2.3v1.2c0.3-0.4,0.7-0.7,1.2-1s1-0.4,1.5-0.4v2.2c-0.2,0-0.4-0.1-0.6-0.1
		c-0.4,0-0.8,0.1-1.2,0.3c-0.4,0.2-0.7,0.4-0.9,0.7V32.2z"/>
	<path class="st0" d="M167.4,22.6c-0.4,0-0.7-0.1-1-0.4c-0.3-0.3-0.4-0.6-0.4-1s0.1-0.7,0.4-1c0.3-0.3,0.6-0.4,1-0.4
		c0.4,0,0.7,0.1,1,0.4c0.3,0.3,0.4,0.6,0.4,1s-0.1,0.7-0.4,1C168.1,22.4,167.8,22.6,167.4,22.6z M168.6,32.2h-2.3v-8.7h2.3V32.2z"/>
	<path class="st0" d="M176,32.4c-1.1,0-2-0.4-2.7-1.3v4.4H171v-12h2.3v1.1c0.7-0.9,1.6-1.3,2.7-1.3c1.1,0,2.1,0.4,2.8,1.2
		c0.7,0.8,1.1,1.9,1.1,3.3c0,1.4-0.4,2.5-1.1,3.3S177.1,32.4,176,32.4z M175.3,30.4c0.7,0,1.2-0.2,1.6-0.7c0.4-0.5,0.6-1.1,0.6-1.8
		c0-0.7-0.2-1.3-0.6-1.8c-0.4-0.5-0.9-0.7-1.6-0.7c-0.4,0-0.7,0.1-1.1,0.3s-0.7,0.4-0.8,0.7v3.1c0.2,0.3,0.5,0.5,0.9,0.7
		C174.6,30.3,174.9,30.4,175.3,30.4z"/>
	<path class="st0" d="M182.8,22.6c-0.4,0-0.7-0.1-1-0.4c-0.3-0.3-0.4-0.6-0.4-1s0.1-0.7,0.4-1c0.3-0.3,0.6-0.4,1-0.4
		c0.4,0,0.7,0.1,1,0.4c0.3,0.3,0.4,0.6,0.4,1s-0.1,0.7-0.4,1C183.5,22.4,183.2,22.6,182.8,22.6z M184,32.2h-2.3v-8.7h2.3V32.2z"/>
	<path class="st0" d="M196.7,32.2h-2.3v-5.7l-2.3,5.7h-1l-2.3-5.7v5.7h-2.3v-8.7h3l2.1,5.2l2.1-5.2h3V32.2z"/>
	<path class="st0" d="M209.4,23.5h2.3v8.7h-12.5v-8.7h2.3v6.7h2.8v-6.7h2.3v6.7h2.8V23.5z"/>
	<path class="st0" d="M215.3,22.6c-0.4,0-0.7-0.1-1-0.4c-0.3-0.3-0.4-0.6-0.4-1s0.1-0.7,0.4-1c0.3-0.3,0.6-0.4,1-0.4
		c0.4,0,0.7,0.1,1,0.4c0.3,0.3,0.4,0.6,0.4,1s-0.1,0.7-0.4,1C216,22.4,215.7,22.6,215.3,22.6z M216.4,32.2h-2.3v-8.7h2.3V32.2z"/>
	<path class="st0" d="M225.6,23.5v2h-4.4v6.7h-2.3v-8.7H225.6z"/>
	<path class="st0" d="M228.4,22.6c-0.4,0-0.7-0.1-1-0.4c-0.3-0.3-0.4-0.6-0.4-1s0.1-0.7,0.4-1c0.3-0.3,0.6-0.4,1-0.4
		c0.4,0,0.7,0.1,1,0.4c0.3,0.3,0.4,0.6,0.4,1s-0.1,0.7-0.4,1C229.1,22.4,228.8,22.6,228.4,22.6z M229.5,32.2h-2.3v-8.7h2.3V32.2z"/>
	<path class="st0" d="M234.3,32.2H232v-8.7h2.3v3.2h3.6v-3.2h2.3v8.7h-2.3v-3.5h-3.6V32.2z"/>
</g>
</svg>
