<svg xmlns="http://www.w3.org/2000/svg" xml:space="preserve" id="Layer_1" x="0" y="0" viewBox="0 0 187.3 11.7"><style>.st0{fill:#fff}</style><path d="M7.7 8.4H5.6V2.1H2.2v6.3H0V.2h7.7zM14.7 8.6c-1 0-1.9-.4-2.5-1.3v4.2H10V.2h2.2v1C12.8.4 13.7 0 14.7 0c1.1 0 2 .4 2.6 1.1.7.8 1 1.8 1 3.2 0 1.3-.3 2.4-1 3.2-.6.7-1.5 1.1-2.6 1.1M14 6.7c.6 0 1.1-.2 1.5-.7.4-.4.6-1 .6-1.7s-.2-1.3-.6-1.7-.9-.7-1.5-.7c-.4 0-.7.1-1.1.3s-.6.4-.8.7v2.9c.3.2.5.4.9.6s.7.3 1 .3M22.2 8.4h-2.1V.2h2.2v5l3.4-5h2.2v8.2h-2.2V3.3zM33.1 8.6c-1.7 0-2.9-.4-3.8-1.3l1-1.3c.7.6 1.7.9 2.8.9.5 0 1-.1 1.3-.2.3-.2.4-.4.4-.6q0-.9-1.8-.9h-1.7V3.4H33c1.1 0 1.7-.3 1.7-.9 0-.2-.2-.5-.5-.6-.3-.2-.7-.2-1.2-.2-1.1 0-1.9.3-2.5.9l-1.1-1.3C30.3.5 31.5 0 32.9 0q1.95 0 3 .6c1.05.6 1.1 1 1.1 1.7 0 .5-.2.9-.6 1.3s-.9.6-1.5.7c.6 0 1.1.2 1.6.6s.7.8.7 1.4c0 .7-.4 1.3-1.1 1.8s-1.8.5-3 .5M38.9.2H41V3h2.8c.9 0 1.6.3 2.1.8s.7 1.2.7 1.9c0 .8-.3 1.4-.8 1.9s-1.2.8-2.1.8h-5V.2zm4.6 4.6H41v1.8h2.5c.3 0 .5-.1.7-.2q.3-.3.3-.6 0-.45-.3-.6c-.2-.3-.4-.4-.7-.4m6.4 3.6h-2.2V.2h2.2zM64.8 8.4h-2.7l-2.2-3.2-1 1.1v2.1h-2.2V.2h2.2v3.7L62 .2h2.7l-3.2 3.7zM73.1 8.4H71v-.8c-.6.7-1.5 1.1-2.6 1.1-.7 0-1.4-.2-2-.7s-.9-1.1-.9-2 .3-1.5.9-2c.6-.4 1.2-.7 2-.7 1.2 0 2 .3 2.6 1V3.1c0-.4-.2-.8-.5-1s-.8-.4-1.3-.4c-.9 0-1.7.3-2.4 1L66 1.3C67 .4 68.2 0 69.6 0c1.1 0 1.9.2 2.6.7s1 1.3 1 2.4v5.3zm-3.9-1.2c.8 0 1.4-.2 1.7-.7v-1c-.4-.5-.9-.7-1.7-.7-.4 0-.8.1-1.1.3s-.4.5-.4.9.1.7.4.9c.3.1.7.3 1.1.3M77.1 8.4h-2.7l3.3-4.5L74.5.2h2.7l2.5 3v-3h2.2v3l2.5-3H87l-3.2 3.7 3.3 4.5h-2.7l-2.2-3.2-.4.4v2.7h-2.2V5.7l-.4-.4zM87.6 10.5V6.6c.2 0 .4-.1.6-.2.1-.1.3-.4.4-.7q.15-.45.3-1.5l.5-4H96v6.3h1v4h-2.2V8.4h-5v2.1zm3.7-8.4L91 4.3c-.1 1-.4 1.7-1 2.2h3.8V2.1zM98.2 11.6l.3-1.9c.2.1.4.1.7.1.6 0 1-.2 1.1-.6l.3-.7L97.3.2h2.3l2.1 5.7 2.1-5.7h2.3l-3.9 9.6q-.45 1.05-1.2 1.5c-.5.3-1.2.4-1.9.5-.2-.1-.6-.1-.9-.2M115.2 8.6c-1.1 0-2.1-.3-2.9-1s-1.2-1.5-1.4-2.5h-1.4v3.3h-2.2V.2h2.2v3h1.4c.2-1 .7-1.7 1.4-2.3s1.7-.9 2.8-.9c1.3 0 2.4.4 3.2 1.2s1.2 1.8 1.2 3.1c0 1.2-.4 2.2-1.2 3.1-.8.8-1.8 1.2-3.1 1.2m0-1.9c.7 0 1.2-.2 1.5-.7s.6-1 .6-1.7-.2-1.2-.6-1.7-.9-.7-1.5-.7-1.2.2-1.5.7-.6 1-.6 1.7.2 1.2.6 1.7.8.7 1.5.7M128 8.4h-2.2V.2h2.2v3h3.4v-3h2.2v8.2h-2.2V5.1H128zM139.7 8.6c-1.3 0-2.3-.4-3.1-1.2s-1.2-1.8-1.2-3.1c0-1.2.4-2.2 1.2-3.1s1.8-1.2 3.1-1.2q1.8 0 3 1.2c.8.8 1.1 1.9 1.1 3.3V5h-6.1c.1.5.3 1 .7 1.4s1 .5 1.6.5c.4 0 .8-.1 1.2-.2s.8-.3 1-.6l1 1.4c-.9.7-2.1 1.1-3.5 1.1m1.9-5.1c0-.5-.2-.9-.6-1.3q-.45-.6-1.5-.6c-.6 0-1.1.2-1.4.6s-.5.8-.6 1.3zM144.7 10.5V6.6c.2 0 .4-.1.6-.2.1-.1.3-.4.4-.7q.15-.45.3-1.5l.5-4h6.6v6.3h.9v4h-2.2V8.4h-5v2.1zm3.7-8.4-.3 2.2c-.1 1-.4 1.7-1 2.2h3.8V2.1zM159.4 8.6c-1.3 0-2.3-.4-3.1-1.2s-1.2-1.8-1.2-3.1c0-1.2.4-2.2 1.2-3.1s1.8-1.2 3.1-1.2q1.8 0 3 1.2c.8.8 1.1 1.9 1.1 3.3V5h-6.1c.1.5.3 1 .7 1.4s1 .5 1.6.5c.4 0 .8-.1 1.2-.2s.8-.3 1-.6l1 1.4c-.9.7-2 1.1-3.5 1.1m1.9-5.1c0-.5-.2-.9-.6-1.3q-.45-.6-1.5-.6c-.6 0-1.1.2-1.4.6s-.5.8-.6 1.3zM164.4 8.6V6.9c.3 0 .6-.2.8-.6s.4-1.1.5-2.1l.5-4h6.6v8.2h-2.2V2.1H168l-.3 2.3c-.2 1.4-.5 2.5-1.1 3.2-.4.7-1.2 1-2.2 1M183 8.6c-1.1 0-2.1-.3-2.9-1s-1.2-1.5-1.4-2.5h-1.4v3.3h-2.2V.2h2.2v3h1.4c.2-1 .7-1.7 1.4-2.3s1.8-.9 2.9-.9c1.3 0 2.4.4 3.2 1.2s1.2 1.8 1.2 3.1c0 1.2-.4 2.2-1.2 3.1-.9.8-1.9 1.2-3.2 1.2m0-1.9c.7 0 1.2-.2 1.5-.7s.6-1 .6-1.7-.2-1.2-.6-1.7-.9-.7-1.5-.7-1.2.2-1.5.7-.6 1-.6 1.7.2 1.2.6 1.7.8.7 1.5.7" class="st0"/></svg>