<svg xmlns="http://www.w3.org/2000/svg" xml:space="preserve" id="Layer_1" x="0" y="0" viewBox="0 0 174.9 32.2"><style>.st0{fill:#fff}</style><path d="M4.6 12.2c-1.3 0-2.4-.4-3.3-1.3S0 9 0 7.6c0-1.3.4-2.4 1.3-3.3S3.3 3 4.6 3c1.5 0 2.7.5 3.4 1.6L6.6 6.1q-.6-.9-1.8-.9c-.8-.1-1.3.2-1.8.6q-.6.75-.6 1.8c0 1.05.2 1.4.6 1.9s1 .7 1.7.7q1.2 0 1.8-.9L8 10.6c-.7 1.1-1.9 1.6-3.4 1.6M9.7 3.3H12v3h3c1 0 1.7.3 2.2.8s.8 1.2.8 2-.3 1.5-.8 2c-.5.6-1.3.9-2.2.9H9.7zm4.9 4.9H12v1.9h2.6c.3 0 .6-.1.7-.3.2-.2.3-.4.3-.7s-.1-.5-.3-.7c-.1-.1-.4-.2-.7-.2m6.8 3.8h-2.3V3.3h2.3zM28.8 12.2c-1.1 0-2-.4-2.7-1.3v4.4h-2.3v-12h2.3v1.1c.7-.9 1.6-1.3 2.7-1.3s2.1.4 2.8 1.2 1.1 1.9 1.1 3.3-.4 2.5-1.1 3.3-1.6 1.3-2.8 1.3m-.7-2c.7 0 1.2-.2 1.6-.7q.6-.75.6-1.8c0-.7-.2-1.4-.6-1.8-.4-.5-.9-.7-1.6-.7-.4 0-.7.1-1.1.3s-.7.4-.8.7v3.1c.2.3.5.5.9.7s.7.2 1 .2M50.2 12h-2.6V7h-5.7v5h-2.6V0h2.6v4.7h5.7V0h2.6zM60 10.9c-.8.9-2 1.3-3.3 1.3-1.4 0-2.5-.4-3.3-1.3s-1.3-2-1.3-3.2.4-2.4 1.3-3.2c.8-.9 1.9-1.3 3.3-1.3s2.5.4 3.3 1.3 1.3 2 1.3 3.2-.4 2.3-1.3 3.2m-4.9-1.4c.4.5.9.7 1.6.7s1.2-.2 1.6-.7q.6-.75.6-1.8t-.6-1.8c-.6-.75-.9-.7-1.6-.7s-1.2.2-1.6.7q-.6.75-.6 1.8t.6 1.8M67.2 12.2c-1.3 0-2.4-.4-3.3-1.3S62.6 9 62.6 7.6c0-1.3.4-2.4 1.3-3.3s2-1.3 3.3-1.3c1.5 0 2.7.5 3.4 1.6L69.1 6q-.6-.9-1.8-.9c-.7 0-1.3.2-1.7.7q-.6.75-.6 1.8c0 1.05.2 1.4.7 1.8.4.5 1 .7 1.7.7q1.2 0 1.8-.9l1.5 1.4c-.8 1.1-1.9 1.6-3.5 1.6M80.5 12h-2.3V6.7c0-.6-.1-1-.4-1.2s-.7-.4-1.2-.4c-.8 0-1.5.3-2 1V12h-2.3V0h2.3v4.4c.3-.4.7-.7 1.3-1 .5-.3 1.1-.4 1.8-.4.9 0 1.6.2 2.1.7s.7 1.2.7 2zM85.2 12H83V0h2.3v12zM95.2 12h-2.3v-.9c-.6.7-1.5 1.1-2.8 1.1-.8 0-1.5-.3-2.1-.8s-.9-1.2-.9-2.1q0-1.35.9-2.1c.6-.5 1.3-.7 2.1-.7 1.2 0 2.2.4 2.8 1.1V6.4c0-.4-.2-.8-.5-1.1-.4-.2-.8-.3-1.4-.3-.9 0-1.8.3-2.5 1l-.9-1.5c1-.9 2.3-1.4 3.8-1.4 1.1 0 2 .3 2.7.8s1.1 1.4 1.1 2.5zm-4.1-1.3c.9 0 1.5-.3 1.8-.8V8.8c-.4-.5-1-.8-1.8-.8-.5 0-.9.1-1.2.4-.3.2-.5.6-.5 1s.2.7.5.9c.3.3.7.4 1.2.4M105.8 12h-2.3V6.8c0-1.1-.5-1.6-1.6-1.6-.8 0-1.5.3-2 1V12h-2.3V3.3h2.3v1.1c.8-.9 1.8-1.4 3-1.4.9 0 1.6.2 2.1.7s.7 1.2.7 2V12zM116.5 12h-2.3v-1.1c-.7.9-1.6 1.3-2.7 1.3s-2.1-.4-2.8-1.2-1.1-1.9-1.1-3.3.4-2.5 1.1-3.3 1.6-1.2 2.8-1.2c1.1 0 2 .4 2.7 1.3V0h2.3zm-4.3-1.8c.4 0 .8-.1 1.1-.3.4-.2.7-.4.8-.7V6.1c-.2-.3-.5-.5-.8-.7-.4-.2-.8-.3-1.1-.3-.6 0-1.2.2-1.6.7q-.6.75-.6 1.8c0 .7.2 1.4.6 1.8.5.6 1 .8 1.6.8M126 12h-2.2V3.3h2.3v5.3l3.6-5.3h2.3V12h-2.3V6.6zM133.6 12.2v-1.9c.4 0 .6-.2.9-.6.2-.4.4-1.2.5-2.2l.6-4.2h7V12h-2.3V5.3h-2.8l-.3 2.5c-.2 1.5-.6 2.6-1.1 3.4s-1.4 1-2.5 1M147.2 12H145V3.3h2.3v5.3l3.6-5.3h2.3V12h-2.3V6.6zM6.4 32.2c-1.8 0-3.3-.6-4.5-1.7S0 27.9 0 26q0-2.85 1.8-4.5c1.2-1.1 2.7-1.7 4.5-1.7 2.2 0 3.8.9 5 2.7l-2.1 1.2c-.3-.5-.7-.8-1.2-1.1s-1-.5-1.6-.5c-1.1 0-2 .4-2.7 1.1s-1 1.7-1 2.8.4 2.1 1.1 2.8S5.3 30 6.4 30q.75 0 1.5-.3c.5-.2.8-.4 1.1-.7v-1.4H5.8v-2.2h5.7V30c-1.3 1.5-3 2.2-5.1 2.2M16 32h-2.3v-8.7H16v1.2c.3-.4.7-.7 1.2-1s1-.4 1.5-.4v2.2c-.2 0-.4-.1-.6-.1q-.6 0-1.2.3c-.4.2-.7.4-.9.7zM28.5 32h-2.3v-1.1c-.8.9-1.8 1.3-3.1 1.3-.9 0-1.6-.2-2.1-.7s-.7-1.2-.7-2v-6.2h2.3v5.3c0 1.1.5 1.6 1.6 1.6.8 0 1.5-.3 2-1v-5.9h2.3zm-5.1-11.8c.2.2.4.5.4.9s-.1.6-.4.9-.5.4-.9.4-.6-.1-.9-.4c-.2-.2-.4-.5-.4-.9 0-.3.1-.6.4-.9.2-.2.5-.4.9-.4s.7.1.9.4m3.8 0c.2.2.4.5.4.9s-.1.6-.4.9-.5.4-.9.4c-.3 0-.6-.1-.9-.4s-.4-.5-.4-.9.1-.6.4-.9c.2-.2.5-.4.9-.4s.7.1.9.4M39.1 32h-2.3v-5.3c0-1.1-.5-1.6-1.6-1.6-.8 0-1.5.3-2 1V32H31v-8.7h2.3v1.1c.8-.9 1.8-1.4 3-1.4.9 0 1.6.2 2.1.7s.7 1.2.7 2zM43.8 32h-2.3V20h2.3zM53.8 32h-2.3v-.9c-.6.7-1.5 1.1-2.8 1.1-.8 0-1.5-.3-2.1-.8s-.9-1.2-.9-2.1q0-1.35.9-2.1c.6-.5 1.3-.7 2.1-.7 1.2 0 2.2.4 2.8 1.1v-1.2c0-.4-.2-.8-.5-1.1s-.8-.4-1.4-.4c-.9 0-1.8.3-2.5 1l-.9-1.5c1-.9 2.3-1.4 3.8-1.4 1.1 0 2 .3 2.7.8s1.1 1.4 1.1 2.5zM49 20.2c.2.2.4.5.4.9s-.1.6-.4.9c-.2.2-.5.4-.9.4s-.6-.1-.9-.4-.4-.5-.4-.9c0-.3.1-.6.4-.9.2-.2.5-.4.9-.4s.6.1.9.4m.7 10.5c.9 0 1.5-.3 1.8-.8v-1.1c-.4-.5-1-.8-1.8-.8-.5 0-.9.1-1.2.4-.3.2-.5.6-.5 1s.2.7.5.9c.3.3.7.4 1.2.4m3.1-10.5c.2.2.4.5.4.9s-.1.6-.4.9c-.2.2-.5.4-.9.4s-.6-.1-.9-.4-.4-.5-.4-.9.1-.6.4-.9c.2-.2.5-.4.9-.4s.6.1.9.4M64.4 32h-2.3v-5.3c0-1.1-.5-1.6-1.6-1.6-.8 0-1.5.3-2 1V32h-2.3v-8.7h2.3v1.1c.8-.9 1.8-1.4 3-1.4.9 0 1.6.2 2.1.7s.7 1.2.7 2V32zM75.1 32h-2.3v-1.1c-.7.9-1.6 1.3-2.7 1.3s-2.1-.4-2.8-1.2-1.1-1.9-1.1-3.3.4-2.5 1.1-3.3 1.6-1.2 2.8-1.2c1.1 0 2 .4 2.7 1.3V20h2.3zm-4.3-1.8c.4 0 .8-.1 1.1-.3.4-.2.7-.4.8-.7v-3.1c-.2-.3-.5-.5-.8-.7-.4-.2-.8-.3-1.1-.3-.6 0-1.2.2-1.6.7s-.6 1.1-.6 1.8q0 1.05.6 1.8c.5.6 1 .8 1.6.8M81.7 32.2c-1.3 0-2.5-.4-3.3-1.3S77 29 77 27.6c0-1.3.4-2.4 1.3-3.2.8-.9 1.9-1.3 3.2-1.3s2.3.4 3.1 1.3 1.2 2 1.2 3.5v.5h-6.5c.1.6.3 1.1.8 1.4.4.4 1 .6 1.7.6.4 0 .8-.1 1.3-.2.5-.2.8-.4 1.1-.6l1 1.5c-.8.7-2 1.1-3.5 1.1m2-5.4c0-.5-.2-.9-.6-1.3s-.9-.6-1.6-.6c-.6 0-1.2.2-1.5.6-.4.4-.6.8-.6 1.3zM90 32h-2.3v-8.7H90v1.2c.3-.4.7-.7 1.2-1s1-.4 1.5-.4v2.2c-.2 0-.4-.1-.6-.1q-.6 0-1.2.3c-.4.2-.7.4-.9.7zM106.5 30.9c-.8.9-2 1.3-3.3 1.3-1.4 0-2.5-.4-3.3-1.3s-1.3-2-1.3-3.2c0-1.3.4-2.4 1.3-3.2s1.9-1.3 3.3-1.3 2.5.4 3.3 1.3 1.3 2 1.3 3.2-.4 2.3-1.3 3.2m-4.9-1.4c.4.5.9.7 1.6.7s1.2-.2 1.6-.7.6-1.1.6-1.8q0-1.05-.6-1.8c-.4-.5-.9-.7-1.6-.7s-1.2.2-1.6.7q-.6.75-.6 1.8t.6 1.8M113.6 32h-2.3v-6.7h-2.4v-2h7.2v2h-2.4V32zM127.5 32h-2.6v-8.7l-2 2-1.5-1.5 3.8-3.8h2.2v12zM134.4 32.2c-2 0-3.5-.6-4.6-1.8l1.4-1.8c.8.9 1.9 1.3 3.2 1.3.7 0 1.2-.2 1.6-.5s.6-.8.6-1.3-.2-1-.6-1.3-.9-.5-1.6-.5c-1 0-1.8.3-2.5 1l-1.8-.5V20h8.2v2.2h-5.7v2.9c.7-.7 1.6-1 2.6-1 1.1 0 2 .4 2.7 1.1s1.1 1.6 1.1 2.8c0 1.3-.4 2.3-1.3 3s-1.9 1.2-3.3 1.2M148.4 31.3c-.8.6-1.7.9-2.8.9s-2-.3-2.8-.9-1.3-1.4-1.7-2.3-.5-1.9-.5-3 .2-2.1.5-3 .9-1.7 1.7-2.3 1.7-.9 2.8-.9 2 .3 2.8.9 1.3 1.4 1.7 2.3c.3.9.5 1.9.5 3s-.2 2.1-.5 3-1 1.7-1.7 2.3m-4.6-2.4c.4.7 1 1.1 1.8 1.1s1.4-.4 1.8-1.1.6-1.7.6-2.9-.2-2.1-.6-2.9-1-1.1-1.8-1.1-1.4.4-1.8 1.1-.6 1.7-.6 2.9.2 2.2.6 2.9M159.7 31.3c-.8.6-1.7.9-2.8.9s-2-.3-2.8-.9-1.3-1.4-1.7-2.3-.5-1.9-.5-3 .2-2.1.5-3 .9-1.7 1.7-2.3 1.7-.9 2.8-.9 2 .3 2.8.9 1.3 1.4 1.7 2.3c.3.9.5 1.9.5 3s-.2 2.1-.5 3-.9 1.7-1.7 2.3m-4.6-2.4c.4.7 1 1.1 1.8 1.1s1.4-.4 1.8-1.1.6-1.7.6-2.9-.2-2.1-.6-2.9-1-1.1-1.8-1.1-1.4.4-1.8 1.1-.6 1.7-.6 2.9.2 2.2.6 2.9M172.5 32h-2.3v-6.7h-2.4v-2h7.2v2h-2.4V32z" class="st0"/></svg>