<?xml version="1.0" encoding="utf-8"?>
<!-- Generator: Adobe Illustrator 25.2.3, SVG Export Plug-In . SVG Version: 6.00 Build 0)  -->
<svg version="1.1" id="Layer_1" xmlns="http://www.w3.org/2000/svg" xmlns:xlink="http://www.w3.org/1999/xlink" x="0px" y="0px"
	 viewBox="0 0 245.2 28.9" style="enable-background:new 0 0 245.2 28.9;" xml:space="preserve">
<style type="text/css">
	.st0{fill:#FFFFFF;}
</style>
<g>
	<path class="st0" d="M5.8,28.5H0V5.8h11.4c2.4,0,4.4,0.7,5.8,2.2c1.4,1.4,2.1,3.2,2.1,5.4c0,2.1-0.7,3.9-2.1,5.4s-3.3,2.2-5.8,2.2
		H5.8V28.5z M10.6,15.7c0.8,0,1.4-0.2,2-0.6c0.5-0.4,0.8-1,0.8-1.8c0-0.8-0.3-1.4-0.8-1.8c-0.5-0.4-1.2-0.6-2-0.6H5.8v4.9H10.6z"/>
	<path class="st0" d="M38.8,28.5H22.2V5.8h16.6v5.1H28v3.5h10.5v5.1H28v3.8h10.8V28.5z"/>
	<path class="st0" d="M48.4,28.5h-5.8V5.8h16.6v5.1H48.4V28.5z"/>
	<path class="st0" d="M68.3,28.5h-5.6V5.8h5.8v13.4l9.2-13.4h6.1v22.7h-5.9v-14L68.3,28.5z"/>
	<path class="st0" d="M99.3,28.9c-3.5,0-6.4-1.1-8.8-3.3s-3.5-5-3.5-8.4c0-3.5,1.2-6.3,3.5-8.5c2.3-2.2,5.3-3.3,8.8-3.3
		c4.6,0,7.9,2,9.9,6.1l-5,2.4c-0.4-0.9-1-1.7-1.9-2.3c-0.9-0.6-1.9-1-2.9-1c-1.8,0-3.3,0.6-4.5,1.9c-1.2,1.3-1.8,2.8-1.8,4.7
		s0.6,3.4,1.8,4.7c1.2,1.3,2.7,1.9,4.5,1.9c1.1,0,2-0.3,2.9-1s1.5-1.4,1.9-2.3l5,2.4c-0.9,1.7-2.1,3.2-3.7,4.3
		C103.9,28.3,101.8,28.9,99.3,28.9z"/>
	<path class="st0" d="M123,28.5h-5.8V10.9h-6.4V5.8h18.5v5.1H123V28.5z"/>
	<path class="st0" d="M138.3,28.5h-5.8V5.8h11.4c2.4,0,4.4,0.7,5.8,2.2c1.4,1.4,2.1,3.2,2.1,5.4c0,2.1-0.7,3.9-2.1,5.4
		s-3.3,2.2-5.8,2.2h-5.5V28.5z M143,15.7c0.8,0,1.4-0.2,2-0.6c0.5-0.4,0.8-1,0.8-1.8c0-0.8-0.3-1.4-0.8-1.8c-0.5-0.4-1.2-0.6-2-0.6
		h-4.7v4.9H143z"/>
	<path class="st0" d="M160.3,28.5h-5.6V5.8h5.8v13.4l9.2-13.4h6.1v22.7h-5.9v-14L160.3,28.5z"/>
	<path class="st0" d="M186,28.5h-5.8V5.8h11.4c2.4,0,4.4,0.7,5.8,2.2c1.4,1.4,2.1,3.2,2.1,5.4c0,2.1-0.7,3.9-2.1,5.4
		s-3.3,2.2-5.8,2.2H186V28.5z M190.7,15.7c0.8,0,1.4-0.2,2-0.6c0.5-0.4,0.8-1,0.8-1.8c0-0.8-0.3-1.4-0.8-1.8c-0.5-0.4-1.2-0.6-2-0.6
		H186v4.9H190.7z"/>
	<path class="st0" d="M205,28.9c-2.4,0-4.3-0.6-5.7-1.7l2.3-4.6c1,0.7,2,1.1,2.9,1.1c0.7,0,1.3-0.1,1.6-0.4c0.4-0.3,0.8-0.7,1.1-1.3
		l-8.2-16.2h6.6l4.9,10.6l4.9-10.6h6.6L212.9,24C211.2,27.2,208.6,28.9,205,28.9z"/>
	<path class="st0" d="M229.7,28.5h-5.6V5.8h5.8v13.4l9.2-13.4h6.1v22.7h-5.9v-14L229.7,28.5z M240.6,1.8c-1.5,2-3.5,3-6,3
		c-2.5,0-4.5-1-6-3l2.2-1.8c1,1.3,2.2,2,3.7,2c1.6,0,2.8-0.7,3.7-2L240.6,1.8z"/>
</g>
</svg>
