<?xml version="1.0" encoding="utf-8"?>
<!-- Generator: Adobe Illustrator 25.2.3, SVG Export Plug-In . SVG Version: 6.00 Build 0)  -->
<svg version="1.1" id="Layer_1" xmlns="http://www.w3.org/2000/svg" xmlns:xlink="http://www.w3.org/1999/xlink" x="0px" y="0px"
	 viewBox="0 0 117.9 28.6" style="enable-background:new 0 0 117.9 28.6;" xml:space="preserve">
<style type="text/css">
	.st0{fill:#FFFFFF;}
</style>
<g>
	<path class="st0" d="M15.4,28.6H8V6.4H0V0h23.4v6.4h-8V28.6z"/>
	<path class="st0" d="M34.7,28.6h-7.4V0h7.4V28.6z"/>
	<path class="st0" d="M47.7,28.6h-7.4V0h14.3c3.1,0,5.5,0.9,7.3,2.7c1.8,1.8,2.7,4.1,2.7,6.8c0,2.7-0.9,4.9-2.7,6.8
		c-1.8,1.8-4.2,2.7-7.3,2.7h-7V28.6z M53.7,12.6c1,0,1.8-0.3,2.5-0.8c0.6-0.5,1-1.3,1-2.2c0-1-0.3-1.7-1-2.3
		c-0.6-0.5-1.5-0.8-2.5-0.8h-6v6.1H53.7z"/>
	<path class="st0" d="M94.3,28.6h-9.1l-7.5-10.8l-1.9,2.4v8.4h-7.4V0h7.4v11.8L84.5,0h9.1L82.5,13.4L94.3,28.6z"/>
	<path class="st0" d="M117.9,28.6h-21V0h21v6.4h-13.6v4.5h13.3v6.4h-13.3v4.9h13.6V28.6z"/>
</g>
</svg>
