<?xml version="1.0" encoding="utf-8"?>
<!-- Generator: Adobe Illustrator 25.2.3, SVG Export Plug-In . SVG Version: 6.00 Build 0)  -->
<svg version="1.1" id="Layer_1" xmlns="http://www.w3.org/2000/svg" xmlns:xlink="http://www.w3.org/1999/xlink" x="0px" y="0px"
	 viewBox="0 0 119.1 36.8" style="enable-background:new 0 0 119.1 36.8;" xml:space="preserve">
<style type="text/css">
	.st0{fill:#FFFFFF;}
</style>
<g>
	<g>
		<path class="st0" d="M5.6,0L0,14.4h3.5L4.4,12h6.2l0.9,2.4H15L9.4,0H5.6z M5.3,9.3l2.3-6.2l2.2,6.2H5.3z"/>
		<polygon class="st0" points="16.5,14.4 19.2,14.4 19.2,6.4 23.6,6.4 23.6,14.4 26.3,14.4 26.3,4 16.5,4 		"/>
		<polygon class="st0" points="28.2,6.4 31.2,6.4 31.2,14.4 33.9,14.4 33.9,6.4 36.9,6.4 36.9,4 28.2,4 		"/>
		<path class="st0" d="M46.5,4.7c-0.9-0.6-1.9-0.9-3.3-0.9c-1.8,0-3.3,0.5-4.6,1.6l1,1.8c0.9-0.8,1.9-1.2,3-1.2
			c0.7,0,1.2,0.2,1.7,0.5c0.4,0.3,0.6,0.7,0.6,1.3v1.4c-0.7-0.9-1.8-1.3-3.3-1.3c-1,0-1.8,0.3-2.5,0.8c-0.7,0.6-1.1,1.4-1.1,2.5
			s0.4,1.9,1.1,2.5c0.7,0.6,1.6,0.9,2.5,0.9c1.5,0,2.6-0.4,3.3-1.3v1.1h2.7V7.7C47.8,6.3,47.4,5.3,46.5,4.7 M45.1,11.9
			c-0.4,0.6-1.2,0.9-2.2,0.9c-0.6,0-1-0.1-1.4-0.4c-0.4-0.3-0.6-0.6-0.6-1.1s0.2-0.9,0.6-1.2c0.4-0.3,0.8-0.4,1.4-0.4
			c1,0,1.8,0.3,2.2,0.9V11.9z"/>
		<path class="st0" d="M61.5,6.2c1,0,1.7,0.4,2.2,1.1l1.8-1.7c-0.9-1.3-2.3-1.9-4.1-1.9c-1.6,0-2.9,0.5-4,1.5c-1,1-1.6,2.3-1.6,3.9
			s0.5,2.9,1.6,4c1,1,2.4,1.5,4,1.5c1.8,0,3.2-0.6,4.1-1.9L63.7,11c-0.5,0.8-1.3,1.1-2.2,1.1c-0.8,0-1.5-0.3-2-0.8
			c-0.5-0.6-0.8-1.3-0.8-2.2s0.3-1.6,0.8-2.2C60,6.4,60.7,6.2,61.5,6.2"/>
		<path class="st0" d="M75.3,4.7c-0.9-0.7-2-1-3.3-1c-1.8,0-3.3,0.5-4.6,1.6l1,1.8c0.9-0.8,1.9-1.2,3-1.2c0.7,0,1.2,0.2,1.7,0.5
			c0.4,0.3,0.6,0.7,0.6,1.3v1.4c-0.7-0.9-1.8-1.3-3.3-1.3c-1,0-1.8,0.3-2.5,0.8c-0.7,0.6-1.1,1.4-1.1,2.5s0.4,1.9,1.1,2.5
			s1.6,0.9,2.5,0.9c1.5,0,2.6-0.4,3.3-1.3v1.1h2.7V7.7C76.5,6.3,76.1,5.3,75.3,4.7 M73.8,11.9c-0.4,0.6-1.2,0.9-2.2,0.9
			c-0.6,0-1-0.1-1.4-0.4c-0.4-0.3-0.6-0.6-0.6-1.1s0.2-0.9,0.6-1.2s0.8-0.4,1.4-0.4c1,0,1.8,0.3,2.2,0.9V11.9z"/>
		<path class="st0" d="M84.4,2.9c1.6,0,2.8-0.6,3.8-1.9L87,0c-0.6,0.9-1.5,1.3-2.6,1.3s-2-0.4-2.6-1.3l-1.2,1
			C81.6,2.3,82.8,2.9,84.4,2.9"/>
		<polygon class="st0" points="82.2,10.3 82.2,4 79.5,4 79.5,14.4 82.1,14.4 86.6,7.9 86.6,14.4 89.3,14.4 89.3,4 86.5,4 		"/>
		<path class="st0" d="M98.6,7.6H95V4h-2.7v10.4h6.3c1.1,0,2-0.3,2.7-1c0.6-0.7,1-1.5,1-2.4c0-1-0.3-1.8-1-2.4
			C100.6,7.9,99.7,7.6,98.6,7.6 M99.1,11.8c-0.2,0.2-0.5,0.3-0.9,0.3H95V9.9h3.2c0.4,0,0.7,0.1,0.9,0.3c0.2,0.2,0.3,0.5,0.3,0.8
			S99.3,11.6,99.1,11.8"/>
		<rect x="103.6" y="4" class="st0" width="2.8" height="10.4"/>
		<polygon class="st0" points="116.3,7.9 112,7.9 112,4 109.3,4 109.3,14.4 112,14.4 112,10.3 116.3,10.3 116.3,14.4 119.1,14.4 
			119.1,4 116.3,4 		"/>
	</g>
	<g>
		<path class="st0" d="M5.7,24.6c1,0,1.7,0.4,2.2,1.1L9.7,24c-0.9-1.3-2.3-1.9-4.1-1.9c-1.6,0-2.9,0.5-4,1.5c-1,1-1.6,2.3-1.6,3.9
			s0.5,2.9,1.6,4c1,1,2.4,1.5,4,1.5c1.8,0,3.2-0.6,4.1-1.9l-1.8-1.7c-0.5,0.8-1.3,1.1-2.2,1.1c-0.8,0-1.5-0.3-2-0.8
			c-0.5-0.6-0.8-1.3-0.8-2.2s0.3-1.6,0.8-2.2C4.1,24.8,4.8,24.6,5.7,24.6"/>
		<path class="st0" d="M18,26h-3.6v-3.6h-2.7v10.4H18c1.1,0,2-0.3,2.7-1c0.6-0.7,1-1.5,1-2.4c0-1-0.3-1.8-1-2.4
			C20,26.3,19.1,26,18,26 M18.5,30.2c-0.2,0.2-0.5,0.3-0.9,0.3h-3.2v-2.2h3.2c0.4,0,0.7,0.1,0.9,0.3c0.2,0.2,0.3,0.5,0.3,0.8
			C18.8,29.7,18.7,30,18.5,30.2"/>
		<rect x="23" y="22.4" class="st0" width="2.8" height="10.4"/>
		<polygon class="st0" points="31.4,28.7 31.4,22.4 28.7,22.4 28.7,32.8 31.3,32.8 35.8,26.3 35.8,32.8 38.5,32.8 38.5,22.4 
			35.7,22.4 		"/>
		<path class="st0" d="M33.6,21.3c1.6,0,2.8-0.6,3.8-1.9l-1.2-1c-0.6,0.9-1.5,1.3-2.6,1.3s-2-0.4-2.6-1.3l-1.2,1
			C30.7,20.7,32,21.3,33.6,21.3"/>
		<path class="st0" d="M42.1,27.4c-0.2,1.2-0.4,2.1-0.6,2.6c-0.3,0.5-0.6,0.8-1,0.8V33c1.3,0,2.3-0.4,3-1.3s1.2-2.2,1.4-4l0.3-3h3.3
			v8h2.7V22.4h-8.5L42.1,27.4z"/>
		<rect x="65.5" y="22.4" class="st0" width="2.8" height="10.4"/>
		<path class="st0" d="M60.5,26h-3.6v-3.6h-2.7v10.4h6.3c1.1,0,2-0.3,2.7-1c0.6-0.7,1-1.5,1-2.4c0-1-0.3-1.8-1-2.4
			C62.6,26.3,61.7,26,60.5,26 M61,30.2c-0.2,0.2-0.5,0.3-0.9,0.3h-3.2v-2.2h3.2c0.4,0,0.7,0.1,0.9,0.3c0.2,0.2,0.3,0.5,0.3,0.8
			C61.3,29.7,61.2,30,61,30.2"/>
		<polygon class="st0" points="77.2,27.1 81.3,22.4 77.9,22.4 74,27 74,22.4 71.2,22.4 71.2,32.8 74,32.8 74,30.1 75.2,28.8 
			78,32.8 79.1,32.8 79.1,34.1 81.8,34.1 81.8,30.7 79.8,30.7 		"/>
		<polygon class="st0" points="83.3,24.8 86.2,24.8 86.2,32.8 89,32.8 89,24.8 91.9,24.8 91.9,22.4 83.3,22.4 		"/>
		<path class="st0" d="M101.6,23.1c-0.9-0.6-1.9-0.9-3.3-0.9c-1.8,0-3.3,0.5-4.6,1.6l1,1.8c0.9-0.8,1.9-1.2,3-1.2
			c0.7,0,1.2,0.2,1.7,0.5c0.4,0.3,0.6,0.7,0.6,1.3v1.4c-0.7-0.9-1.8-1.3-3.3-1.3c-1,0-1.8,0.3-2.5,0.8c-0.7,0.6-1.1,1.4-1.1,2.5
			s0.4,1.9,1.1,2.5c0.7,0.6,1.6,0.9,2.5,0.9c1.5,0,2.6-0.4,3.3-1.3v1.1h2.7v-6.7C102.9,24.7,102.4,23.7,101.6,23.1 M100.1,30.3
			c-0.4,0.6-1.2,0.9-2.2,0.9c-0.6,0-1-0.1-1.4-0.4c-0.4-0.3-0.6-0.6-0.6-1.1s0.2-0.9,0.6-1.2c0.4-0.3,0.8-0.4,1.4-0.4
			c1,0,1.8,0.3,2.2,0.9V30.3z"/>
		<path class="st0" d="M115.1,23.6c-0.9-1-2-1.5-3.3-1.5s-2.4,0.5-3.2,1.6v-1.3h-2.7v14.4h2.7v-5.3c0.8,1.1,1.9,1.6,3.2,1.6
			c1.4,0,2.5-0.5,3.3-1.5c0.9-1,1.3-2.3,1.3-4C116.4,25.9,116,24.6,115.1,23.6 M112.8,29.8c-0.5,0.6-1.1,0.8-1.9,0.8
			c-0.4,0-0.9-0.1-1.3-0.3c-0.5-0.2-0.8-0.5-1-0.8v-3.7c0.2-0.3,0.6-0.6,1-0.8c0.4-0.2,0.9-0.3,1.3-0.3c0.8,0,1.4,0.3,1.9,0.8
			c0.5,0.6,0.7,1.3,0.7,2.2C113.5,28.5,113.3,29.2,112.8,29.8"/>
	</g>
</g>
</svg>
