<?xml version="1.0" encoding="utf-8"?>
<!-- Generator: Adobe Illustrator 25.2.3, SVG Export Plug-In . SVG Version: 6.00 Build 0)  -->
<svg version="1.1" id="Layer_1" xmlns="http://www.w3.org/2000/svg" xmlns:xlink="http://www.w3.org/1999/xlink" x="0px" y="0px"
	 viewBox="0 0 258.1 126.4" style="enable-background:new 0 0 258.1 126.4;" xml:space="preserve">
<style type="text/css">
	.st0{fill:#FFFFFF;}
</style>
<g>
	<g>
		<path class="st0" d="M52,29.8h15.9c3.1,0,5.6-0.9,7.3-2.7c1.8-1.8,2.7-4.1,2.7-6.8c0-2.7-0.9-5-2.7-6.8c-1.8-1.8-4.2-2.7-7.3-2.7
			h-7.1V8.4h15.4V0.8H52V29.8z M68.4,18.9c0.4,0.3,0.6,0.8,0.6,1.4c0,0.6-0.2,1.1-0.6,1.4c-0.4,0.3-0.9,0.5-1.6,0.5h-6v-3.7h6
			C67.5,18.4,68,18.6,68.4,18.9z"/>
		<path class="st0" d="M99.4,0.8h-11l-10.7,29h10l1-3.4h10.4l1,3.4h10L99.4,0.8z M91,18.8l2.9-9.3l2.9,9.3H91z"/>
		<path class="st0" d="M142.1,29.8h15.5c3.3,0,5.8-0.9,7.7-2.8c1.8-1.9,2.8-4.3,2.8-7.1c0-2.8-0.9-5.2-2.8-7.1
			c-1.8-1.9-4.4-2.8-7.7-2.8h-6.7V0.8h-8.8V29.8z M158.4,18.2c0.5,0.4,0.7,0.9,0.7,1.7c0,0.8-0.2,1.3-0.7,1.7
			c-0.5,0.4-1.1,0.6-1.9,0.6h-5.6v-4.6h5.6C157.2,17.6,157.9,17.8,158.4,18.2z M178.6,0.8h-8.8v29h8.8V0.8z"/>
		<path class="st0" d="M198.3,8.4h7.7V0.8h-24.3v7.7h7.8v21.3h8.8V8.4z"/>
		<path class="st0" d="M52,29.8h15.9c3.1,0,5.6-0.9,7.3-2.7c1.8-1.8,2.7-4.1,2.7-6.8c0-2.7-0.9-5-2.7-6.8c-1.8-1.8-4.2-2.7-7.3-2.7
			h-7.1V8.4h15.4V0.8H52V29.8z M68.4,18.9c0.4,0.3,0.6,0.8,0.6,1.4c0,0.6-0.2,1.1-0.6,1.4c-0.4,0.3-0.9,0.5-1.6,0.5h-6v-3.7h6
			C67.5,18.4,68,18.6,68.4,18.9z"/>
		<path class="st0" d="M99.4,0.8h-11l-10.7,29h10l1-3.4h10.4l1,3.4h10L99.4,0.8z M91,18.8l2.9-9.3l2.9,9.3H91z"/>
		<path class="st0" d="M142.1,29.8h15.5c3.3,0,5.8-0.9,7.7-2.8c1.8-1.9,2.8-4.3,2.8-7.1c0-2.8-0.9-5.2-2.8-7.1
			c-1.8-1.9-4.4-2.8-7.7-2.8h-6.7V0.8h-8.8V29.8z M158.4,18.2c0.5,0.4,0.7,0.9,0.7,1.7c0,0.8-0.2,1.3-0.7,1.7
			c-0.5,0.4-1.1,0.6-1.9,0.6h-5.6v-4.6h5.6C157.2,17.6,157.9,17.8,158.4,18.2z M178.6,0.8h-8.8v29h8.8V0.8z"/>
		<path class="st0" d="M198.3,8.4h7.7V0.8h-24.3v7.7h7.8v21.3h8.8V8.4z"/>
		<polygon class="st0" points="135.5,24.7 127.8,14.3 138.8,0.8 128,0.8 120.4,11.7 120.4,0.8 111.6,0.8 111.6,29.8 120.4,29.8 
			120.4,21.8 122,19.6 128.5,29.8 132.8,29.8 132.8,33.5 139.4,33.5 139.4,24.7 		"/>
	</g>
	<g>
		<path class="st0" d="M28.5,79.7v-5.3h14.4v5.3h8.8v-13h-2.5V45.3H26.5L24.7,60c-0.3,2.6-0.9,4.4-1.7,5.3c-0.8,1-1.9,1.6-3.3,1.8
			v12.6H28.5z M34.4,53h6v13.7h-9.7c1.6-1.7,2.5-3.7,2.8-6.1L34.4,53z"/>
		<path class="st0" d="M122.3,45.3h-12.1l-5.1,13.9L100,45.3H87.8v29h8.8V56.9l6.5,17.4h3.9l6.5-17.4v17.4h8.8V45.3z"/>
		<path class="st0" d="M135.8,45.3H127v29h8.8V45.3z"/>
		<path class="st0" d="M151.5,74.3h15.9c3.1,0,5.6-0.9,7.3-2.7c1.8-1.8,2.7-4.1,2.7-6.8c0-2.7-0.9-5-2.7-6.8
			c-1.8-1.8-4.2-2.7-7.3-2.7h-7.1V53h15.4v-7.7h-24.2V74.3z M167.9,63.4c0.4,0.3,0.6,0.8,0.6,1.4c0,0.6-0.2,1.1-0.6,1.4
			c-0.4,0.3-0.9,0.5-1.6,0.5h-6V63h6C167,63,167.5,63.1,167.9,63.4z"/>
		<path class="st0" d="M198.9,45.3h-11l-10.7,29h10l1-3.4h10.4l1,3.4h10L198.9,45.3z M190.5,63.3l2.9-9.3l2.9,9.3H190.5z"/>
		<path class="st0" d="M219.9,65.2h6.7c3.3,0,5.8-0.9,7.7-2.8c1.8-1.9,2.8-4.3,2.8-7.1c0-2.8-0.9-5.2-2.8-7.1
			c-1.8-1.9-4.4-2.8-7.7-2.8h-15.5v29h8.8V65.2z M219.9,57.6V53h5.6c0.8,0,1.4,0.2,1.9,0.6c0.5,0.4,0.7,1,0.7,1.7
			c0,0.7-0.2,1.3-0.7,1.7c-0.5,0.4-1.1,0.6-1.9,0.6H219.9z"/>
		<path class="st0" d="M28.5,79.7v-5.3h14.4v5.3h8.8v-13h-2.5V45.3H26.5L24.7,60c-0.3,2.6-0.9,4.4-1.7,5.3c-0.8,1-1.9,1.6-3.3,1.8
			v12.6H28.5z M34.4,53h6v13.7h-9.7c1.6-1.7,2.5-3.7,2.8-6.1L34.4,53z"/>
		<path class="st0" d="M80.2,49.1c-3-2.8-6.8-4.2-11.3-4.2c-4.5,0-8.3,1.4-11.3,4.2c-1.2,1.1-2.1,2.2-2.8,3.5h13.5c0,0,0.4,0,0.6,0
			c2.1,0,3.7,0.7,5,2.1c0.3,0.4,0.6,0.7,0.9,1.1H63h-9.5h0v0c-0.3,1.3-0.5,2.6-0.5,4c0,4.4,1.5,8,4.5,10.8c3,2.8,6.8,4.2,11.3,4.2
			c4.5,0,8.3-1.4,11.3-4.2c3-2.8,4.5-6.4,4.5-10.8C84.7,55.5,83.2,51.9,80.2,49.1z M68.9,67.1c-2.1,0-3.7-0.7-5-2.1
			c-0.7-0.8-1.2-1.7-1.5-2.6h13.1c-0.3,1-0.8,1.9-1.5,2.6C72.6,66.4,70.9,67.1,68.9,67.1z"/>
		<path class="st0" d="M122.3,45.3h-12.1l-5.1,13.9L100,45.3H87.8v29h8.8V56.9l6.5,17.4h3.9l6.5-17.4v17.4h8.8V45.3z"/>
		<path class="st0" d="M135.8,45.3H127v29h8.8V45.3z"/>
		<path class="st0" d="M151.5,74.3h15.9c3.1,0,5.6-0.9,7.3-2.7c1.8-1.8,2.7-4.1,2.7-6.8c0-2.7-0.9-5-2.7-6.8
			c-1.8-1.8-4.2-2.7-7.3-2.7h-7.1V53h15.4v-7.7h-24.2V74.3z M167.9,63.4c0.4,0.3,0.6,0.8,0.6,1.4c0,0.6-0.2,1.1-0.6,1.4
			c-0.4,0.3-0.9,0.5-1.6,0.5h-6V63h6C167,63,167.5,63.1,167.9,63.4z"/>
		<path class="st0" d="M198.9,45.3h-11l-10.7,29h10l1-3.4h10.4l1,3.4h10L198.9,45.3z M190.5,63.3l2.9-9.3l2.9,9.3H190.5z"/>
		<path class="st0" d="M219.9,65.2h6.7c3.3,0,5.8-0.9,7.7-2.8c1.8-1.9,2.8-4.3,2.8-7.1c0-2.8-0.9-5.2-2.8-7.1
			c-1.8-1.9-4.4-2.8-7.7-2.8h-15.5v29h8.8V65.2z M219.9,57.6V53h5.6c0.8,0,1.4,0.2,1.9,0.6c0.5,0.4,0.7,1,0.7,1.7
			c0,0.7-0.2,1.3-0.7,1.7c-0.5,0.4-1.1,0.6-1.9,0.6H219.9z"/>
	</g>
	<g>
		<path class="st0" d="M0,118.9h15.9c3.1,0,5.6-0.9,7.3-2.7c1.8-1.8,2.7-4.1,2.7-6.8c0-2.7-0.9-5-2.7-6.8c-1.8-1.8-4.2-2.7-7.3-2.7
			H8.8v-2.3h15.4v-7.7H0V118.9z M16.4,108c0.4,0.3,0.6,0.8,0.6,1.4c0,0.6-0.2,1.1-0.6,1.4c-0.4,0.3-0.9,0.5-1.6,0.5h-6v-3.7h6
			C15.5,107.5,16,107.7,16.4,108z"/>
		<path class="st0" d="M44.5,113.1l11.6-23.2h-9.8l-5.4,11.8l-5.3-11.8h-9.8l10.2,20.4c-0.6,0.9-1.6,1.4-2.9,1.4
			c-1.2,0-2.5-0.4-3.7-1.3l-3.6,6.7c2,1.6,4.7,2.3,8.1,2.3C38.8,119.4,42.3,117.3,44.5,113.1L44.5,113.1z"/>
		<path class="st0" d="M72.6,97.5h7.7v-7.7H56.1v7.7h7.8v21.3h8.8V97.5z"/>
		<path class="st0" d="M105.5,111.2H92.3v-3.2h12.9v-7.7H92.3v-2.9h13.2v-7.7h-22v29h22V111.2z"/>
		<path class="st0" d="M118.2,109.8h6.7c3.3,0,5.8-0.9,7.7-2.8c1.8-1.9,2.8-4.3,2.8-7.1c0-2.8-0.9-5.2-2.8-7.1
			c-1.8-1.9-4.4-2.8-7.7-2.8h-15.5v29h8.8V109.8z M118.2,102.1v-4.6h5.6c0.8,0,1.4,0.2,1.9,0.6c0.5,0.4,0.7,1,0.7,1.7
			c0,0.7-0.2,1.3-0.7,1.7c-0.5,0.4-1.1,0.6-1.9,0.6H118.2z"/>
		<path class="st0" d="M138.2,118.9h15.9c3.1,0,5.6-0.9,7.3-2.7c1.8-1.8,2.7-4.1,2.7-6.8c0-2.7-0.9-5-2.7-6.8
			c-1.8-1.8-4.2-2.7-7.3-2.7H147v-2.3h15.4v-7.7h-24.2V118.9z M154.6,108c0.4,0.3,0.6,0.8,0.6,1.4c0,0.6-0.2,1.1-0.6,1.4
			c-0.4,0.3-0.9,0.5-1.6,0.5h-6v-3.7h6C153.6,107.5,154.2,107.7,154.6,108z"/>
		<path class="st0" d="M175.7,109.8h6.7c3.3,0,5.8-0.9,7.7-2.8c1.8-1.9,2.8-4.3,2.8-7.1c0-2.8-0.9-5.2-2.8-7.1
			c-1.8-1.9-4.4-2.8-7.7-2.8H167v29h8.8V109.8z M175.7,102.1v-4.6h5.6c0.8,0,1.4,0.2,1.9,0.6c0.5,0.4,0.7,1,0.7,1.7
			c0,0.7-0.2,1.3-0.7,1.7c-0.5,0.4-1.1,0.6-1.9,0.6H175.7z"/>
		<path class="st0" d="M225.9,104.4c0-4.4-1.5-8-4.5-10.8c-3-2.8-6.8-4.2-11.3-4.2c-4.5,0-8.3,1.4-11.3,4.2c-3,2.8-4.5,6.4-4.5,10.8
			c0,4.4,1.5,8,4.5,10.8c3,2.8,6.8,4.2,11.3,4.2c4.5,0,8.3-1.4,11.3-4.2C224.4,112.4,225.9,108.8,225.9,104.4z M203.1,104.4
			c0-2.1,0.6-3.8,1.9-5.2c1.3-1.4,3-2.1,5-2.1c2.1,0,3.7,0.7,5,2.1c1.3,1.4,1.9,3.1,1.9,5.2c0,2.1-0.6,3.8-1.9,5.2
			c-1.3,1.4-3,2.1-5,2.1c-2.1,0-3.7-0.7-5-2.1C203.7,108.2,203.1,106.5,203.1,104.4z"/>
		<path class="st0" d="M235,124.2v-5.3h14.4v5.3h8.8v-13h-2.5V89.9H233l-1.8,14.6c-0.3,2.6-0.9,4.4-1.7,5.3c-0.8,1-1.9,1.6-3.3,1.8
			v12.6H235z M240.9,97.5h6v13.7h-9.7c1.6-1.7,2.5-3.7,2.8-6.1L240.9,97.5z"/>
		<path class="st0" d="M0,118.9h15.9c3.1,0,5.6-0.9,7.3-2.7c1.8-1.8,2.7-4.1,2.7-6.8c0-2.7-0.9-5-2.7-6.8c-1.8-1.8-4.2-2.7-7.3-2.7
			H8.8v-2.3h15.4v-7.7H0V118.9z M16.4,108c0.4,0.3,0.6,0.8,0.6,1.4c0,0.6-0.2,1.1-0.6,1.4c-0.4,0.3-0.9,0.5-1.6,0.5h-6v-3.7h6
			C15.5,107.5,16,107.7,16.4,108z"/>
		<path class="st0" d="M44.5,113.1l11.6-23.2h-9.8l-5.4,11.8l-5.3-11.8h-9.8l10.2,20.4c-0.6,0.9-1.6,1.4-2.9,1.4
			c-1.2,0-2.5-0.4-3.7-1.3l-3.6,6.7c2,1.6,4.7,2.3,8.1,2.3C38.8,119.4,42.3,117.3,44.5,113.1L44.5,113.1z"/>
		<path class="st0" d="M72.6,97.5h7.7v-7.7H56.1v7.7h7.8v21.3h8.8V97.5z"/>
		<path class="st0" d="M105.5,111.2H92.3v-3.2h12.9v-7.7H92.3v-2.9h13.2v-7.7h-22v29h22V111.2z"/>
		<path class="st0" d="M118.2,109.8h6.7c3.3,0,5.8-0.9,7.7-2.8c1.8-1.9,2.8-4.3,2.8-7.1c0-2.8-0.9-5.2-2.8-7.1
			c-1.8-1.9-4.4-2.8-7.7-2.8h-15.5v29h8.8V109.8z M118.2,102.1v-4.6h5.6c0.8,0,1.4,0.2,1.9,0.6c0.5,0.4,0.7,1,0.7,1.7
			c0,0.7-0.2,1.3-0.7,1.7c-0.5,0.4-1.1,0.6-1.9,0.6H118.2z"/>
		<path class="st0" d="M138.2,118.9h15.9c3.1,0,5.6-0.9,7.3-2.7c1.8-1.8,2.7-4.1,2.7-6.8c0-2.7-0.9-5-2.7-6.8
			c-1.8-1.8-4.2-2.7-7.3-2.7H147v-2.3h15.4v-7.7h-24.2V118.9z M154.6,108c0.4,0.3,0.6,0.8,0.6,1.4c0,0.6-0.2,1.1-0.6,1.4
			c-0.4,0.3-0.9,0.5-1.6,0.5h-6v-3.7h6C153.6,107.5,154.2,107.7,154.6,108z"/>
		<path class="st0" d="M175.7,109.8h6.7c3.3,0,5.8-0.9,7.7-2.8c1.8-1.9,2.8-4.3,2.8-7.1c0-2.8-0.9-5.2-2.8-7.1
			c-1.8-1.9-4.4-2.8-7.7-2.8H167v29h8.8V109.8z M175.7,102.1v-4.6h5.6c0.8,0,1.4,0.2,1.9,0.6c0.5,0.4,0.7,1,0.7,1.7
			c0,0.7-0.2,1.3-0.7,1.7c-0.5,0.4-1.1,0.6-1.9,0.6H175.7z"/>
		<path class="st0" d="M225.9,104.4c0-4.4-1.5-8-4.5-10.8c-3-2.8-6.8-4.2-11.3-4.2c-4.5,0-8.3,1.4-11.3,4.2c-3,2.8-4.5,6.4-4.5,10.8
			c0,4.4,1.5,8,4.5,10.8c3,2.8,6.8,4.2,11.3,4.2c4.5,0,8.3-1.4,11.3-4.2C224.4,112.4,225.9,108.8,225.9,104.4z M203.1,104.4
			c0-2.1,0.6-3.8,1.9-5.2c1.3-1.4,3-2.1,5-2.1c2.1,0,3.7,0.7,5,2.1c1.3,1.4,1.9,3.1,1.9,5.2c0,2.1-0.6,3.8-1.9,5.2
			c-1.3,1.4-3,2.1-5,2.1c-2.1,0-3.7-0.7-5-2.1C203.7,108.2,203.1,106.5,203.1,104.4z"/>
		<path class="st0" d="M235,124.2v-5.3h14.4v5.3h8.8v-13h-2.5V89.9H233l-1.8,14.6c-0.3,2.6-0.9,4.4-1.7,5.3c-0.8,1-1.9,1.6-3.3,1.8
			v12.6H235z M240.9,97.5h6v13.7h-9.7c1.6-1.7,2.5-3.7,2.8-6.1L240.9,97.5z"/>
	</g>
</g>
</svg>
