<?xml version="1.0" encoding="utf-8"?>
<!-- Generator: Adobe Illustrator 27.3.1, SVG Export Plug-In . SVG Version: 6.00 Build 0)  -->
<svg version="1.1" id="Layer_1" xmlns="http://www.w3.org/2000/svg" xmlns:xlink="http://www.w3.org/1999/xlink" x="0px" y="0px"
	 viewBox="0 0 202.1 14.6" style="enable-background:new 0 0 202.1 14.6;" xml:space="preserve">
<style type="text/css">
	.st0{fill:#FFFFFF;}
</style>
<g>
	<path class="st0" d="M20,11.3h-2.4V3.5l-3.1,7.8h-1l-3.1-7.8v7.8H7.9V0.2h3.3l2.7,6.7l2.7-6.7H20V11.3z"/>
	<path class="st0" d="M29.2,11.3h-2.1v-0.8c-0.6,0.7-1.4,1-2.6,1c-0.7,0-1.4-0.2-1.9-0.7s-0.9-1.1-0.9-2c0-0.9,0.3-1.5,0.8-2
		c0.6-0.4,1.2-0.7,2-0.7c1.1,0,2,0.3,2.6,1V6.1c0-0.4-0.2-0.7-0.5-1s-0.8-0.4-1.3-0.4c-0.9,0-1.7,0.3-2.4,1l-0.8-1.4
		c1-0.8,2.1-1.3,3.5-1.3c1,0,1.9,0.2,2.5,0.7c0.7,0.5,1,1.3,1,2.3V11.3z M25.4,10.1c0.8,0,1.4-0.2,1.7-0.7v-1
		c-0.3-0.5-0.9-0.7-1.7-0.7c-0.4,0-0.8,0.1-1.1,0.3c-0.3,0.2-0.4,0.5-0.4,0.9c0,0.4,0.1,0.7,0.4,0.9C24.6,10,25,10.1,25.4,10.1z"/>
	<path class="st0" d="M34.8,14.6c-1.4,0-2.5-0.4-3.5-1.2l1-1.5c0.6,0.7,1.4,1,2.5,1c0.6,0,1.1-0.2,1.6-0.5c0.4-0.3,0.7-0.8,0.7-1.6
		V10c-0.7,0.8-1.5,1.3-2.5,1.3c-1,0-1.9-0.4-2.6-1.1c-0.7-0.7-1-1.7-1-3c0-1.3,0.3-2.3,1-3c0.7-0.7,1.5-1.1,2.6-1.1
		c1,0,1.8,0.4,2.5,1.2v-1h2.1v7.5c0,0.7-0.1,1.4-0.4,1.9c-0.3,0.5-0.6,0.9-1.1,1.2c-0.4,0.3-0.9,0.5-1.4,0.6
		C35.9,14.5,35.4,14.6,34.8,14.6z M35.2,9.4c0.3,0,0.7-0.1,1-0.3s0.6-0.4,0.8-0.7V5.9c-0.2-0.3-0.4-0.5-0.8-0.7
		c-0.3-0.2-0.7-0.3-1-0.3c-0.6,0-1.1,0.2-1.5,0.6c-0.4,0.4-0.6,0.9-0.6,1.6c0,0.7,0.2,1.2,0.6,1.6C34.1,9.2,34.6,9.4,35.2,9.4z"/>
	<path class="st0" d="M49,11.3h-2.1V6.4c0-1-0.5-1.5-1.5-1.5c-0.8,0-1.4,0.3-1.8,1v5.4h-2.1V3.3h2.1v1.1c0.7-0.8,1.6-1.3,2.8-1.3
		c0.9,0,1.5,0.2,2,0.7C48.8,4.2,49,4.8,49,5.6V11.3z"/>
	<path class="st0" d="M58.8,11.3h-2.1v-1c-0.7,0.8-1.7,1.2-2.8,1.2c-0.9,0-1.5-0.2-2-0.7c-0.4-0.4-0.7-1.1-0.7-1.9V3.3h2.1v4.9
		c0,1,0.5,1.5,1.5,1.5c0.7,0,1.4-0.3,1.8-0.9V3.3h2.1V11.3z"/>
	<path class="st0" d="M73.2,11.3h-2.1V6.2c0-0.9-0.4-1.3-1.2-1.3c-0.3,0-0.7,0.1-1,0.3c-0.3,0.2-0.5,0.4-0.7,0.7v5.4h-2.1V6.2
		c0-0.9-0.4-1.3-1.2-1.3c-0.3,0-0.7,0.1-1,0.3c-0.3,0.2-0.5,0.4-0.7,0.7v5.4h-2.1V3.3h2.1v1.1c0.2-0.3,0.6-0.6,1.1-0.8
		c0.5-0.3,1-0.4,1.6-0.4c1.2,0,1.9,0.5,2.2,1.5c0.3-0.4,0.6-0.7,1.1-1c0.5-0.3,1-0.4,1.6-0.4c0.8,0,1.3,0.2,1.8,0.6
		c0.4,0.4,0.6,1,0.6,1.8V11.3z"/>
	<path class="st0" d="M85.4,11.5c-1.7,0-3.1-0.5-4.2-1.6c-1.1-1.1-1.7-2.5-1.7-4.1c0-1.7,0.6-3.1,1.7-4.1C82.3,0.5,83.7,0,85.4,0
		C87.5,0,89,0.9,90,2.7l-2,1c-0.2-0.5-0.6-0.9-1.1-1.2c-0.5-0.3-1-0.5-1.5-0.5c-1,0-1.8,0.3-2.5,1c-0.7,0.7-1,1.6-1,2.6
		c0,1.1,0.3,1.9,1,2.6c0.7,0.7,1.5,1,2.5,1c0.6,0,1.1-0.2,1.5-0.5c0.5-0.3,0.8-0.7,1.1-1.2l2,1C89,10.6,87.4,11.5,85.4,11.5z"/>
	<path class="st0" d="M93.7,11.3h-2.1V0.2h2.1V11.3z"/>
	<path class="st0" d="M103.5,11.3h-2.1v-1c-0.7,0.8-1.7,1.2-2.8,1.2c-0.9,0-1.5-0.2-2-0.7C96.2,10.4,96,9.8,96,9V3.3h2.1v4.9
		c0,1,0.5,1.5,1.5,1.5c0.7,0,1.4-0.3,1.8-0.9V3.3h2.1V11.3z"/>
	<path class="st0" d="M107.9,11.3h-2.1V0.2h2.1v4.1c0.6-0.8,1.5-1.2,2.5-1.2c1,0,1.9,0.4,2.6,1.2c0.7,0.8,1,1.8,1,3.1
		c0,1.3-0.3,2.3-1,3.1c-0.7,0.8-1.5,1.1-2.6,1.1c-1,0-1.8-0.4-2.5-1.2V11.3z M107.9,8.7c0.2,0.3,0.4,0.5,0.8,0.6
		c0.3,0.2,0.7,0.3,1,0.3c0.6,0,1.1-0.2,1.5-0.6c0.4-0.4,0.6-1,0.6-1.7c0-0.7-0.2-1.3-0.6-1.7c-0.4-0.4-0.9-0.7-1.5-0.7
		c-0.3,0-0.7,0.1-1,0.3c-0.3,0.2-0.6,0.4-0.8,0.7V8.7z"/>
	<path class="st0" d="M128.1,11.3h-2.7l-2.1-3.1l-1,1v2.1h-2.1V3.3h2.1v3.6l3.1-3.6h2.6l-3.2,3.7L128.1,11.3z"/>
	<path class="st0" d="M136.2,11.3h-2.1v-0.8c-0.6,0.7-1.4,1-2.6,1c-0.7,0-1.4-0.2-1.9-0.7s-0.9-1.1-0.9-2c0-0.9,0.3-1.5,0.8-2
		c0.6-0.4,1.2-0.7,2-0.7c1.1,0,2,0.3,2.6,1V6.1c0-0.4-0.2-0.7-0.5-1c-0.3-0.2-0.8-0.4-1.3-0.4c-0.9,0-1.7,0.3-2.4,1l-0.8-1.4
		c1-0.8,2.1-1.3,3.5-1.3c1,0,1.9,0.2,2.5,0.7c0.7,0.5,1,1.3,1,2.3V11.3z M132.4,10.1c0.8,0,1.4-0.2,1.7-0.7v-1
		c-0.3-0.5-0.9-0.7-1.7-0.7c-0.4,0-0.8,0.1-1.1,0.3c-0.3,0.2-0.4,0.5-0.4,0.9c0,0.4,0.1,0.7,0.4,0.9C131.6,10,132,10.1,132.4,10.1z"
		/>
	<path class="st0" d="M143.1,11.5c-1,0-1.8-0.4-2.5-1.2v4.1h-2.1V3.3h2.1v1c0.6-0.8,1.5-1.2,2.5-1.2c1.1,0,1.9,0.4,2.6,1.1
		s1,1.8,1,3.1c0,1.3-0.3,2.3-1,3.1S144.2,11.5,143.1,11.5z M142.4,9.6c0.6,0,1.1-0.2,1.5-0.7c0.4-0.4,0.6-1,0.6-1.7
		c0-0.7-0.2-1.3-0.6-1.7c-0.4-0.4-0.9-0.7-1.5-0.7c-0.3,0-0.7,0.1-1,0.3c-0.3,0.2-0.6,0.4-0.8,0.7v2.9c0.2,0.3,0.4,0.5,0.8,0.7
		C141.8,9.5,142.1,9.6,142.4,9.6z"/>
	<path class="st0" d="M152,11.3h-2.1V5.1h-2.3V3.3h6.6v1.9H152V11.3z"/>
	<path class="st0" d="M162.7,11.3h-2.1v-0.8c-0.6,0.7-1.4,1-2.6,1c-0.7,0-1.4-0.2-1.9-0.7s-0.9-1.1-0.9-2c0-0.9,0.3-1.5,0.8-2
		c0.6-0.4,1.2-0.7,2-0.7c1.1,0,2,0.3,2.6,1V6.1c0-0.4-0.2-0.7-0.5-1c-0.3-0.2-0.8-0.4-1.3-0.4c-0.9,0-1.7,0.3-2.4,1l-0.8-1.4
		c1-0.8,2.1-1.3,3.5-1.3c1,0,1.9,0.2,2.5,0.7c0.7,0.5,1,1.3,1,2.3V11.3z M158.9,10.1c0.8,0,1.4-0.2,1.7-0.7v-1
		c-0.3-0.5-0.9-0.7-1.7-0.7c-0.4,0-0.8,0.1-1.1,0.3c-0.3,0.2-0.4,0.5-0.4,0.9c0,0.4,0.1,0.7,0.4,0.9C158.1,10,158.5,10.1,158.9,10.1
		z"/>
	<path class="st0" d="M168.8,11.5c-1.2,0-2.3-0.4-3.1-1.2c-0.8-0.8-1.2-1.8-1.2-3.1c0-1.2,0.4-2.2,1.2-3c0.8-0.8,1.8-1.2,3.1-1.2
		c1.4,0,2.5,0.5,3.2,1.5l-1.4,1.3c-0.4-0.6-1-0.9-1.7-0.9c-0.6,0-1.2,0.2-1.6,0.6c-0.4,0.4-0.6,1-0.6,1.7c0,0.7,0.2,1.3,0.6,1.7
		c0.4,0.4,0.9,0.7,1.6,0.7c0.7,0,1.3-0.3,1.7-0.9l1.4,1.3C171.3,11,170.2,11.5,168.8,11.5z"/>
	<path class="st0" d="M173.5,3.3h2.1V6h2.8c0.9,0,1.6,0.3,2.1,0.8c0.5,0.5,0.7,1.1,0.7,1.9c0,0.7-0.3,1.4-0.8,1.9
		c-0.5,0.5-1.2,0.8-2.1,0.8h-4.9V3.3z M178.1,7.8h-2.4v1.7h2.4c0.3,0,0.5-0.1,0.7-0.2c0.2-0.2,0.3-0.4,0.3-0.6s-0.1-0.5-0.3-0.6
		C178.6,7.9,178.4,7.8,178.1,7.8z M184.4,11.3h-2.1V3.3h2.1V11.3z"/>
	<path class="st0" d="M188.7,11.3h-2.1V3.3h2.1v3h3.3v-3h2.1v8.1h-2.1V8.1h-3.3V11.3z"/>
</g>
</svg>
