<?xml version="1.0" encoding="utf-8"?>
<!-- Generator: Adobe Illustrator 25.2.3, SVG Export Plug-In . SVG Version: 6.00 Build 0)  -->
<svg version="1.1" id="Layer_1" xmlns="http://www.w3.org/2000/svg" xmlns:xlink="http://www.w3.org/1999/xlink" x="0px" y="0px"
	 viewBox="0 0 198.8 29.4" style="enable-background:new 0 0 198.8 29.4;" xml:space="preserve">
<style type="text/css">
	.st0{fill:#FFFFFF;}
</style>
<g>
	<polygon class="st0" points="20.8,0 14.7,10.6 8.4,0 0,0 10,15.8 4.6,15.8 4.6,21 10.9,21 10.9,28.8 18.4,28.8 18.4,21 24.2,21 
		24.2,15.8 19.3,15.8 29.3,0 	"/>
	<polygon class="st0" points="30.2,6.5 38.3,6.5 38.3,28.8 45.7,28.8 45.7,6.5 53.8,6.5 53.8,0 30.2,0 	"/>
	<rect x="84.3" class="st0" width="7.4" height="28.8"/>
	<path class="st0" d="M72.2,9.7h-7V0h-7.4v28.8h14.4c3.1,0,5.6-0.9,7.4-2.7c1.8-1.8,2.7-4.1,2.7-6.9c0-2.7-0.9-5-2.7-6.8
		C77.7,10.6,75.3,9.7,72.2,9.7 M73.7,21.5c-0.6,0.5-1.5,0.8-2.5,0.8h-6v-6.2h6c1,0,1.8,0.3,2.5,0.8c0.6,0.5,1,1.3,1,2.2
		C74.6,20.2,74.3,21,73.7,21.5"/>
	<polygon class="st0" points="97.4,28.8 104.8,28.8 104.8,6.5 116.8,6.5 116.8,28.8 124.2,28.8 124.2,0 97.4,0 	"/>
	<path class="st0" d="M149.1,0l-10.9,28.8h8.4l1.4-4.2h11.4l1.4,4.2h8.4L158.5,0H149.1z M150.1,18.2l3.7-10.9l3.7,10.9H150.1z"/>
	<path class="st0" d="M177.3,0l-1.7,14.6c-0.4,3.1-1,5.3-1.8,6.4c-0.8,1.2-2,1.8-3.4,1.8v6.6c1.7,0,3.2-0.2,4.5-0.6
		c1.3-0.4,2.5-1.1,3.7-2.1c1.2-1,2.1-2.5,2.9-4.4c0.7-1.9,1.3-4.3,1.6-7.1l1-8.7h7.4v22.4h7.4V0H177.3z"/>
</g>
</svg>
