<?xml version="1.0" encoding="utf-8"?>
<!-- Generator: Adobe Illustrator 27.3.1, SVG Export Plug-In . SVG Version: 6.00 Build 0)  -->
<svg version="1.1" id="Layer_1" xmlns="http://www.w3.org/2000/svg" xmlns:xlink="http://www.w3.org/1999/xlink" x="0px" y="0px"
	 viewBox="0 0 180.1 30" style="enable-background:new 0 0 180.1 30;" xml:space="preserve">
<style type="text/css">
	.st0{fill:#FFFFFF;}
</style>
<g>
	<path class="st0" d="M19.4,26.2H14V10H5.4v16.2H0V5.3h19.4V26.2z"/>
	<path class="st0" d="M43.8,26.2h-6.1l-1-3h-8.2l-1,3h-6.1l7.8-20.9h6.8L43.8,26.2z M35.2,18.5l-2.7-7.8l-2.7,7.8H35.2z"/>
	<path class="st0" d="M50.8,26.2h-5.2V5.3H51v12.3l8.4-12.3H65v20.9h-5.4V13.3L50.8,26.2z M60.8,1.7c-1.4,1.8-3.2,2.8-5.5,2.8
		c-2.3,0-4.1-0.9-5.5-2.8L51.9,0c0.9,1.2,2,1.8,3.4,1.8c1.5,0,2.6-0.6,3.4-1.8L60.8,1.7z"/>
	<path class="st0" d="M67.9,30v-8.2c1.1-0.2,1.9-0.6,2.5-1.4c0.6-0.8,1-2.3,1.3-4.5l1.3-10.6h15.5v16.2h1.9V30h-5.4v-3.8H73.3V30
		H67.9z M77,16.3c-0.3,2.2-1,3.9-2.3,5.2h8.3V10h-5.3L77,16.3z"/>
	<path class="st0" d="M113.2,26.2h-6.1l-1-3h-8.2l-1,3h-6.1l7.8-20.9h6.8L113.2,26.2z M104.6,18.5l-2.7-7.8l-2.7,7.8H104.6z"/>
	<path class="st0" d="M113.9,26.6v-4.8c1,0,1.9-0.4,2.5-1.3c0.6-0.8,1-2.4,1.3-4.6L119,5.3h15.5v20.9h-5.4V10h-5.3l-0.8,6.3
		c-0.3,2-0.6,3.8-1.2,5.1c-0.5,1.4-1.2,2.4-2.1,3.2c-0.8,0.7-1.7,1.2-2.6,1.5S115.2,26.6,113.9,26.6z"/>
	<path class="st0" d="M158.8,26.2h-6.1l-1-3h-8.2l-1,3h-6.1l7.8-20.9h6.8L158.8,26.2z M150.2,18.5l-2.7-7.8l-2.7,7.8H150.2z"/>
	<path class="st0" d="M180.1,26.2h-5.4v-8.4h-8.7v8.4h-5.4V5.3h5.4v7.8h8.7V5.3h5.4V26.2z"/>
</g>
</svg>
