<?xml version="1.0" encoding="utf-8"?>
<!-- Generator: Adobe Illustrator 25.2.3, SVG Export Plug-In . SVG Version: 6.00 Build 0)  -->
<svg version="1.1" id="Layer_1" xmlns="http://www.w3.org/2000/svg" xmlns:xlink="http://www.w3.org/1999/xlink" x="0px" y="0px"
	 viewBox="0 0 173.4 55.5" style="enable-background:new 0 0 173.4 55.5;" xml:space="preserve">
<style type="text/css">
	.st0{fill:#FFFFFF;}
</style>
<g>
	<path class="st0" d="M6,12.2H3.5V3.5l-2,2L0,4l3.8-3.8H6V12.2z"/>
	<path class="st0" d="M12.9,12.4c-2,0-3.5-0.6-4.6-1.8l1.4-1.8c0.8,0.9,1.9,1.3,3.2,1.3c0.7,0,1.2-0.2,1.6-0.5
		c0.4-0.3,0.6-0.8,0.6-1.3c0-0.5-0.2-1-0.6-1.3c-0.4-0.3-0.9-0.5-1.6-0.5c-1,0-1.8,0.3-2.5,1L8.6,7.1V0.2h8.2v2.2h-5.7v2.9
		c0.7-0.7,1.6-1,2.6-1c1.1,0,2,0.4,2.7,1.1c0.7,0.7,1.1,1.7,1.1,2.8c0,1.3-0.4,2.3-1.3,3C15.5,12,14.3,12.4,12.9,12.4z"/>
	<path class="st0" d="M26.9,11.5c-0.8,0.6-1.7,0.9-2.8,0.9s-2-0.3-2.8-0.9c-0.8-0.6-1.3-1.4-1.7-2.3s-0.5-1.9-0.5-3s0.2-2.1,0.5-3
		s0.9-1.7,1.7-2.3C22.1,0.3,23,0,24.1,0s2,0.3,2.8,0.9c0.8,0.6,1.3,1.4,1.7,2.3s0.5,1.9,0.5,3s-0.2,2.1-0.5,3S27.6,10.9,26.9,11.5z
		 M22.3,9.1c0.4,0.7,1,1.1,1.8,1.1c0.8,0,1.4-0.4,1.8-1.1c0.4-0.7,0.6-1.7,0.6-2.9s-0.2-2.1-0.6-2.9c-0.4-0.7-1-1.1-1.8-1.1
		c-0.8,0-1.4,0.4-1.8,1.1c-0.4,0.7-0.6,1.7-0.6,2.9S21.9,8.3,22.3,9.1z"/>
	<path class="st0" d="M38.2,11.5c-0.8,0.6-1.7,0.9-2.8,0.9s-2-0.3-2.8-0.9c-0.8-0.6-1.3-1.4-1.7-2.3s-0.5-1.9-0.5-3s0.2-2.1,0.5-3
		s0.9-1.7,1.7-2.3C33.4,0.3,34.3,0,35.4,0s2,0.3,2.8,0.9c0.8,0.6,1.3,1.4,1.7,2.3s0.5,1.9,0.5,3s-0.2,2.1-0.5,3S39,10.9,38.2,11.5z
		 M33.6,9.1c0.4,0.7,1,1.1,1.8,1.1c0.8,0,1.4-0.4,1.8-1.1c0.4-0.7,0.6-1.7,0.6-2.9s-0.2-2.1-0.6-2.9c-0.4-0.7-1-1.1-1.8-1.1
		c-0.8,0-1.4,0.4-1.8,1.1C33.2,4.1,33,5,33,6.2S33.2,8.3,33.6,9.1z"/>
	<path class="st0" d="M51,12.2h-2.3V5.5h-2.4v-2h7.2v2H51V12.2z"/>
	<path class="st0" d="M63.9,12.4c-1.4,0-2.5-0.5-3.4-1.4c-0.8-0.9-1.2-2.1-1.2-3.6c0-2.1,0.4-3.6,1.1-4.7c0.7-1,1.9-1.6,3.4-1.9
		c1.3-0.2,2-0.4,2-0.7h2.4c0,1.3-1.2,2-3.6,2.3c-1.8,0.2-2.9,1-3.1,2.2c0.7-0.9,1.7-1.4,3-1.4c1.2,0,2.2,0.4,3,1.3
		c0.8,0.9,1.1,2,1.1,3.2c0,1.3-0.4,2.4-1.3,3.3C66.4,12,65.3,12.4,63.9,12.4z M62.3,9.6c0.4,0.5,0.9,0.7,1.6,0.7s1.2-0.2,1.6-0.7
		c0.4-0.5,0.6-1.1,0.6-1.8c0-0.7-0.2-1.3-0.6-1.8s-0.9-0.7-1.6-0.7S62.7,5.6,62.3,6c-0.4,0.5-0.6,1.1-0.6,1.8
		C61.7,8.5,61.9,9.1,62.3,9.6z"/>
	<path class="st0" d="M77.9,12.2h-2.3v-0.9c-0.6,0.7-1.5,1.1-2.8,1.1c-0.8,0-1.5-0.3-2.1-0.8s-0.9-1.2-0.9-2.1
		c0-0.9,0.3-1.6,0.9-2.1c0.6-0.5,1.3-0.7,2.1-0.7c1.2,0,2.2,0.4,2.8,1.1V6.6c0-0.4-0.2-0.8-0.5-1.1c-0.3-0.3-0.8-0.4-1.4-0.4
		c-0.9,0-1.8,0.3-2.5,1l-0.9-1.5c1-0.9,2.3-1.4,3.8-1.4c1.1,0,2,0.3,2.7,0.8c0.7,0.5,1.1,1.4,1.1,2.5V12.2z M73.8,10.9
		c0.9,0,1.5-0.3,1.8-0.8V9c-0.4-0.5-1-0.8-1.8-0.8c-0.5,0-0.9,0.1-1.2,0.4c-0.3,0.2-0.5,0.6-0.5,1c0,0.4,0.2,0.7,0.5,0.9
		C72.9,10.7,73.3,10.9,73.8,10.9z"/>
	<path class="st0" d="M84.4,12.4c-1.3,0-2.4-0.4-3.3-1.3s-1.3-1.9-1.3-3.3c0-1.3,0.4-2.4,1.3-3.3s2-1.3,3.3-1.3
		c1.5,0,2.7,0.5,3.4,1.6l-1.5,1.4c-0.4-0.6-1-0.9-1.8-0.9c-0.7,0-1.3,0.2-1.7,0.7c-0.4,0.5-0.7,1.1-0.7,1.8s0.2,1.4,0.7,1.8
		c0.4,0.5,1,0.7,1.7,0.7c0.8,0,1.4-0.3,1.8-0.9l1.5,1.4C87.1,11.9,86,12.4,84.4,12.4z"/>
	<path class="st0" d="M93.4,12.2h-2.3V5.5h-2.4v-2h7.2v2h-2.4V12.2z"/>
	<path class="st0" d="M105,12.2h-2.3v-0.9c-0.6,0.7-1.5,1.1-2.8,1.1c-0.8,0-1.5-0.3-2.1-0.8s-0.9-1.2-0.9-2.1c0-0.9,0.3-1.6,0.9-2.1
		c0.6-0.5,1.3-0.7,2.1-0.7c1.2,0,2.2,0.4,2.8,1.1V6.6c0-0.4-0.2-0.8-0.5-1.1c-0.3-0.3-0.8-0.4-1.4-0.4c-0.9,0-1.8,0.3-2.5,1
		l-0.9-1.5c1-0.9,2.3-1.4,3.8-1.4c1.1,0,2,0.3,2.7,0.8c0.7,0.5,1.1,1.4,1.1,2.5V12.2z M100.9,10.9c0.9,0,1.5-0.3,1.8-0.8V9
		c-0.4-0.5-1-0.8-1.8-0.8c-0.5,0-0.9,0.1-1.2,0.4c-0.3,0.2-0.5,0.6-0.5,1c0,0.4,0.2,0.7,0.5,0.9C100,10.7,100.4,10.9,100.9,10.9z"/>
	<path class="st0" d="M115.6,12.2h-2.3V5.5h-3.6v6.7h-2.3V3.5h8.2V12.2z"/>
	<path class="st0" d="M11.8,32.2H9.2v-5H3.5v5H1v-12h2.6v4.7h5.7v-4.7h2.6V32.2z"/>
	<path class="st0" d="M21.7,31.1c-0.8,0.9-2,1.3-3.3,1.3c-1.4,0-2.5-0.4-3.3-1.3c-0.8-0.9-1.3-2-1.3-3.2c0-1.3,0.4-2.4,1.3-3.2
		s1.9-1.3,3.3-1.3c1.4,0,2.5,0.4,3.3,1.3s1.3,2,1.3,3.2C22.9,29.1,22.5,30.2,21.7,31.1z M16.7,29.6c0.4,0.5,0.9,0.7,1.6,0.7
		s1.2-0.2,1.6-0.7s0.6-1.1,0.6-1.8c0-0.7-0.2-1.3-0.6-1.8c-0.4-0.5-0.9-0.7-1.6-0.7s-1.2,0.2-1.6,0.7c-0.4,0.5-0.6,1.1-0.6,1.8
		C16.1,28.6,16.3,29.2,16.7,29.6z"/>
	<path class="st0" d="M28.8,32.4c-1.3,0-2.4-0.4-3.3-1.3c-0.9-0.9-1.3-2-1.3-3.3c0-1.3,0.4-2.4,1.3-3.3c0.9-0.9,2-1.3,3.3-1.3
		c1.5,0,2.7,0.5,3.4,1.6l-1.5,1.4c-0.4-0.6-1-0.9-1.8-0.9c-0.7,0-1.3,0.2-1.7,0.7s-0.7,1.1-0.7,1.8c0,0.8,0.2,1.4,0.7,1.8
		c0.4,0.5,1,0.7,1.7,0.7c0.8,0,1.4-0.3,1.8-0.9l1.5,1.4C31.5,31.9,30.4,32.4,28.8,32.4z"/>
	<path class="st0" d="M42.1,32.2h-2.3v-5.3c0-0.6-0.1-1-0.4-1.2c-0.3-0.2-0.7-0.4-1.2-0.4c-0.8,0-1.5,0.3-2,1v5.8h-2.3v-12h2.3v4.4
		c0.3-0.4,0.7-0.7,1.3-1c0.5-0.3,1.1-0.4,1.8-0.4c0.9,0,1.6,0.2,2.1,0.7c0.5,0.5,0.7,1.2,0.7,2V32.2z"/>
	<path class="st0" d="M46.9,32.2h-2.3v-12h2.3V32.2z"/>
	<path class="st0" d="M56.8,32.2h-2.3v-0.9c-0.6,0.7-1.5,1.1-2.8,1.1c-0.8,0-1.5-0.3-2.1-0.8s-0.9-1.2-0.9-2.1
		c0-0.9,0.3-1.6,0.9-2.1c0.6-0.5,1.3-0.7,2.1-0.7c1.2,0,2.2,0.4,2.8,1.1v-1.2c0-0.4-0.2-0.8-0.5-1.1c-0.3-0.3-0.8-0.4-1.4-0.4
		c-0.9,0-1.8,0.3-2.5,1l-0.9-1.5c1-0.9,2.3-1.4,3.8-1.4c1.1,0,2,0.3,2.7,0.8s1.1,1.4,1.1,2.5V32.2z M52.7,30.9
		c0.9,0,1.5-0.3,1.8-0.8V29c-0.4-0.5-1-0.8-1.8-0.8c-0.5,0-0.9,0.1-1.2,0.4c-0.3,0.2-0.5,0.6-0.5,1c0,0.4,0.2,0.7,0.5,0.9
		C51.8,30.7,52.2,30.9,52.7,30.9z"/>
	<path class="st0" d="M67.4,32.2h-2.3v-5.3c0-1.1-0.5-1.6-1.6-1.6c-0.8,0-1.5,0.3-2,1v5.8h-2.3v-8.7h2.3v1.1c0.8-0.9,1.8-1.4,3-1.4
		c0.9,0,1.6,0.2,2.1,0.7c0.5,0.5,0.7,1.2,0.7,2V32.2z"/>
	<path class="st0" d="M78.1,32.2h-2.3v-1.1c-0.7,0.9-1.6,1.3-2.7,1.3c-1.1,0-2.1-0.4-2.8-1.2c-0.7-0.8-1.1-1.9-1.1-3.3
		c0-1.4,0.4-2.5,1.1-3.3c0.7-0.8,1.6-1.2,2.8-1.2c1.1,0,2,0.4,2.7,1.3v-4.4h2.3V32.2z M73.9,30.4c0.4,0,0.8-0.1,1.1-0.3
		c0.4-0.2,0.7-0.4,0.8-0.7v-3.1c-0.2-0.3-0.5-0.5-0.8-0.7c-0.4-0.2-0.8-0.3-1.1-0.3c-0.6,0-1.2,0.2-1.6,0.7s-0.6,1.1-0.6,1.8
		c0,0.7,0.2,1.3,0.6,1.8C72.7,30.1,73.2,30.4,73.9,30.4z"/>
	<path class="st0" d="M87.7,32.2h-2.3v-8.7h2.3v3.2h3.6v-3.2h2.3v8.7h-2.3v-3.5h-3.6V32.2z"/>
	<path class="st0" d="M100.1,32.4c-1.3,0-2.5-0.4-3.3-1.3s-1.3-1.9-1.3-3.3c0-1.3,0.4-2.4,1.3-3.2c0.8-0.9,1.9-1.3,3.2-1.3
		c1.3,0,2.3,0.4,3.1,1.3c0.8,0.9,1.2,2,1.2,3.5v0.5h-6.5c0.1,0.6,0.3,1.1,0.8,1.4c0.4,0.4,1,0.6,1.7,0.6c0.4,0,0.8-0.1,1.3-0.2
		c0.5-0.2,0.8-0.4,1.1-0.6l1,1.5C102.8,32,101.6,32.4,100.1,32.4z M102.1,27c0-0.5-0.2-0.9-0.6-1.3c-0.4-0.4-0.9-0.6-1.6-0.6
		c-0.6,0-1.2,0.2-1.5,0.6c-0.4,0.4-0.6,0.8-0.6,1.3H102.1z"/>
	<path class="st0" d="M116.4,32.2h-2.3v-5.7l-2.3,5.7h-1l-2.3-5.7v5.7h-2.3v-8.7h3l2.1,5.2l2.1-5.2h3V32.2z"/>
	<path class="st0" d="M122.9,32.4c-1.3,0-2.5-0.4-3.3-1.3s-1.3-1.9-1.3-3.3c0-1.3,0.4-2.4,1.3-3.2c0.8-0.9,1.9-1.3,3.2-1.3
		c1.3,0,2.3,0.4,3.1,1.3c0.8,0.9,1.2,2,1.2,3.5v0.5h-6.5c0.1,0.6,0.3,1.1,0.8,1.4c0.4,0.4,1,0.6,1.7,0.6c0.4,0,0.8-0.1,1.3-0.2
		c0.5-0.2,0.8-0.4,1.1-0.6l1,1.5C125.6,32,124.5,32.4,122.9,32.4z M124.9,27c0-0.5-0.2-0.9-0.6-1.3c-0.4-0.4-0.9-0.6-1.6-0.6
		c-0.6,0-1.2,0.2-1.5,0.6c-0.4,0.4-0.6,0.8-0.6,1.3H124.9z"/>
	<path class="st0" d="M133,32.4c-1.3,0-2.4-0.4-3.3-1.3c-0.9-0.9-1.3-2-1.3-3.3c0-1.3,0.4-2.4,1.3-3.3c0.9-0.9,2-1.3,3.3-1.3
		c1.5,0,2.7,0.5,3.4,1.6l-1.5,1.4c-0.4-0.6-1-0.9-1.8-0.9c-0.7,0-1.3,0.2-1.7,0.7s-0.7,1.1-0.7,1.8c0,0.8,0.2,1.4,0.7,1.8
		c0.4,0.5,1,0.7,1.7,0.7c0.8,0,1.4-0.3,1.8-0.9l1.5,1.4C135.7,31.9,134.6,32.4,133,32.4z"/>
	<path class="st0" d="M142.2,32.4c-1.3,0-2.5-0.4-3.3-1.3s-1.3-1.9-1.3-3.3c0-1.3,0.4-2.4,1.3-3.2c0.8-0.9,1.9-1.3,3.2-1.3
		c1.3,0,2.3,0.4,3.1,1.3c0.8,0.9,1.2,2,1.2,3.5v0.5H140c0.1,0.6,0.3,1.1,0.8,1.4c0.4,0.4,1,0.6,1.7,0.6c0.4,0,0.8-0.1,1.3-0.2
		c0.5-0.2,0.8-0.4,1.1-0.6l1,1.5C144.9,32,143.7,32.4,142.2,32.4z M144.2,27c0-0.5-0.2-0.9-0.6-1.3c-0.4-0.4-0.9-0.6-1.6-0.6
		c-0.6,0-1.2,0.2-1.5,0.6c-0.4,0.4-0.6,0.8-0.6,1.3H144.2z"/>
	<path class="st0" d="M6.8,52.4c-1.8,0-3.3-0.6-4.5-1.7C1,49.5,0.4,48,0.4,46.2c0-1.9,0.6-3.4,1.8-4.5C3.5,40.6,5,40,6.8,40
		c2.2,0,3.8,0.9,5,2.7l-2.1,1.2C9.4,43.4,9,43,8.5,42.7s-1.1-0.4-1.7-0.4c-1.1,0-2,0.4-2.7,1.1C3.4,44.1,3,45.1,3,46.2
		c0,1.1,0.4,2.1,1.1,2.8s1.6,1.1,2.7,1.1c0.5,0,1-0.1,1.5-0.3c0.5-0.2,0.8-0.4,1.1-0.6v-1.4H6.2v-2.2h5.7v4.6
		C10.6,51.7,8.9,52.4,6.8,52.4z"/>
	<path class="st0" d="M16.4,52.2h-2.3v-8.7h2.3v1.2c0.3-0.4,0.7-0.7,1.2-1s1-0.4,1.5-0.4v2.2c-0.2,0-0.4-0.1-0.6-0.1
		c-0.4,0-0.8,0.1-1.2,0.3c-0.4,0.2-0.7,0.4-0.9,0.7V52.2z"/>
	<path class="st0" d="M28.9,52.2h-2.3v-1.1c-0.8,0.9-1.8,1.3-3.1,1.3c-0.9,0-1.6-0.2-2.1-0.7c-0.5-0.5-0.7-1.2-0.7-2v-6.2H23v5.3
		c0,1.1,0.5,1.6,1.6,1.6c0.8,0,1.5-0.3,2-1v-5.9h2.3V52.2z M23.8,40.3c0.2,0.2,0.4,0.5,0.4,0.9s-0.1,0.6-0.4,0.9s-0.5,0.4-0.9,0.4
		s-0.6-0.1-0.9-0.4c-0.2-0.2-0.4-0.5-0.4-0.9c0-0.3,0.1-0.6,0.4-0.9c0.2-0.2,0.5-0.4,0.9-0.4S23.5,40.1,23.8,40.3z M27.6,40.3
		c0.2,0.2,0.4,0.5,0.4,0.9s-0.1,0.6-0.4,0.9s-0.5,0.4-0.9,0.4c-0.3,0-0.6-0.1-0.9-0.4s-0.4-0.5-0.4-0.9s0.1-0.6,0.4-0.9
		c0.2-0.2,0.5-0.4,0.9-0.4C27,40,27.3,40.1,27.6,40.3z"/>
	<path class="st0" d="M39.5,52.2h-2.3v-5.3c0-1.1-0.5-1.6-1.6-1.6c-0.8,0-1.5,0.3-2,1v5.8h-2.3v-8.7h2.3v1.1c0.8-0.9,1.8-1.4,3-1.4
		c0.9,0,1.6,0.2,2.1,0.7c0.5,0.5,0.7,1.2,0.7,2V52.2z"/>
	<path class="st0" d="M44.2,52.2h-2.3v-12h2.3V52.2z"/>
	<path class="st0" d="M54.2,52.2h-2.3v-0.9c-0.6,0.7-1.5,1.1-2.8,1.1c-0.8,0-1.5-0.3-2.1-0.8s-0.9-1.2-0.9-2.1
		c0-0.9,0.3-1.6,0.9-2.1c0.6-0.5,1.3-0.7,2.1-0.7c1.2,0,2.2,0.4,2.8,1.1v-1.2c0-0.4-0.2-0.8-0.5-1.1c-0.3-0.3-0.8-0.4-1.4-0.4
		c-0.9,0-1.8,0.3-2.5,1l-0.9-1.5c1-0.9,2.3-1.4,3.8-1.4c1.1,0,2,0.3,2.7,0.8s1.1,1.4,1.1,2.5V52.2z M49.3,40.3
		c0.2,0.2,0.4,0.5,0.4,0.9s-0.1,0.6-0.4,0.9c-0.2,0.2-0.5,0.4-0.9,0.4s-0.6-0.1-0.9-0.4s-0.4-0.5-0.4-0.9c0-0.3,0.1-0.6,0.4-0.9
		c0.2-0.2,0.5-0.4,0.9-0.4S49.1,40.1,49.3,40.3z M50.1,50.9c0.9,0,1.5-0.3,1.8-0.8V49c-0.4-0.5-1-0.8-1.8-0.8
		c-0.5,0-0.9,0.1-1.2,0.4c-0.3,0.2-0.5,0.6-0.5,1c0,0.4,0.2,0.7,0.5,0.9C49.2,50.7,49.6,50.9,50.1,50.9z M53.2,40.3
		c0.2,0.2,0.4,0.5,0.4,0.9s-0.1,0.6-0.4,0.9c-0.2,0.2-0.5,0.4-0.9,0.4s-0.6-0.1-0.9-0.4s-0.4-0.5-0.4-0.9s0.1-0.6,0.4-0.9
		c0.2-0.2,0.5-0.4,0.9-0.4S52.9,40.1,53.2,40.3z"/>
	<path class="st0" d="M64.8,52.2h-2.3v-5.3c0-1.1-0.5-1.6-1.6-1.6c-0.8,0-1.5,0.3-2,1v5.8h-2.3v-8.7h2.3v1.1c0.8-0.9,1.8-1.4,3-1.4
		c0.9,0,1.6,0.2,2.1,0.7c0.5,0.5,0.7,1.2,0.7,2V52.2z"/>
	<path class="st0" d="M75.5,52.2h-2.3v-1.1c-0.7,0.9-1.6,1.3-2.7,1.3c-1.1,0-2.1-0.4-2.8-1.2c-0.7-0.8-1.1-1.9-1.1-3.3
		c0-1.4,0.4-2.5,1.1-3.3c0.7-0.8,1.6-1.2,2.8-1.2c1.1,0,2,0.4,2.7,1.3v-4.4h2.3V52.2z M71.2,50.4c0.4,0,0.8-0.1,1.1-0.3
		c0.4-0.2,0.7-0.4,0.8-0.7v-3.1c-0.2-0.3-0.5-0.5-0.8-0.7c-0.4-0.2-0.8-0.3-1.1-0.3c-0.6,0-1.2,0.2-1.6,0.7S69,47.1,69,47.8
		c0,0.7,0.2,1.3,0.6,1.8C70,50.1,70.6,50.4,71.2,50.4z"/>
	<path class="st0" d="M82,52.4c-1.3,0-2.5-0.4-3.3-1.3s-1.3-1.9-1.3-3.3c0-1.3,0.4-2.4,1.3-3.2c0.8-0.9,1.9-1.3,3.2-1.3
		c1.3,0,2.3,0.4,3.1,1.3c0.8,0.9,1.2,2,1.2,3.5v0.5h-6.5c0.1,0.6,0.3,1.1,0.8,1.4c0.4,0.4,1,0.6,1.7,0.6c0.4,0,0.8-0.1,1.3-0.2
		c0.5-0.2,0.8-0.4,1.1-0.6l1,1.5C84.7,52,83.6,52.4,82,52.4z M84,47c0-0.5-0.2-0.9-0.6-1.3c-0.4-0.4-0.9-0.6-1.6-0.6
		c-0.6,0-1.2,0.2-1.5,0.6c-0.4,0.4-0.6,0.8-0.6,1.3H84z"/>
	<path class="st0" d="M90.4,52.2h-2.3v-8.7h2.3v1.2c0.3-0.4,0.7-0.7,1.2-1s1-0.4,1.5-0.4v2.2c-0.2,0-0.4-0.1-0.6-0.1
		c-0.4,0-0.8,0.1-1.2,0.3c-0.4,0.2-0.7,0.4-0.9,0.7V52.2z"/>
	<path class="st0" d="M100.7,42.6c-0.4,0-0.7-0.1-1-0.4c-0.3-0.3-0.4-0.6-0.4-1s0.1-0.7,0.4-1c0.3-0.3,0.6-0.4,1-0.4
		c0.4,0,0.7,0.1,1,0.4c0.3,0.3,0.4,0.6,0.4,1s-0.1,0.7-0.4,1C101.4,42.4,101.1,42.6,100.7,42.6z M101.8,52.2h-2.3v-8.7h2.3V52.2z"/>
	<path class="st0" d="M109.2,52.4c-1.1,0-2-0.4-2.7-1.3v4.4h-2.3v-12h2.3v1.1c0.7-0.9,1.6-1.3,2.7-1.3c1.1,0,2.1,0.4,2.8,1.2
		c0.7,0.8,1.1,1.9,1.1,3.3c0,1.4-0.4,2.5-1.1,3.3S110.4,52.4,109.2,52.4z M108.5,50.4c0.7,0,1.2-0.2,1.6-0.7
		c0.4-0.5,0.6-1.1,0.6-1.8c0-0.7-0.2-1.3-0.6-1.8c-0.4-0.5-0.9-0.7-1.6-0.7c-0.4,0-0.7,0.1-1.1,0.3s-0.7,0.4-0.8,0.7v3.1
		c0.2,0.3,0.5,0.5,0.9,0.7C107.8,50.3,108.2,50.4,108.5,50.4z"/>
	<path class="st0" d="M116.1,42.6c-0.4,0-0.7-0.1-1-0.4c-0.3-0.3-0.4-0.6-0.4-1s0.1-0.7,0.4-1c0.3-0.3,0.6-0.4,1-0.4
		c0.4,0,0.7,0.1,1,0.4c0.3,0.3,0.4,0.6,0.4,1s-0.1,0.7-0.4,1C116.8,42.4,116.5,42.6,116.1,42.6z M117.2,52.2h-2.3v-8.7h2.3V52.2z"/>
	<path class="st0" d="M130,52.2h-2.3v-5.7l-2.3,5.7h-1l-2.3-5.7v5.7h-2.3v-8.7h3l2.1,5.2l2.1-5.2h3V52.2z"/>
	<path class="st0" d="M142.6,43.5h2.3v8.7h-12.5v-8.7h2.3v6.7h2.8v-6.7h2.3v6.7h2.8V43.5z"/>
	<path class="st0" d="M148.5,42.6c-0.4,0-0.7-0.1-1-0.4c-0.3-0.3-0.4-0.6-0.4-1s0.1-0.7,0.4-1c0.3-0.3,0.6-0.4,1-0.4
		c0.4,0,0.7,0.1,1,0.4c0.3,0.3,0.4,0.6,0.4,1s-0.1,0.7-0.4,1C149.2,42.4,148.9,42.6,148.5,42.6z M149.7,52.2h-2.3v-8.7h2.3V52.2z"/>
	<path class="st0" d="M158.8,43.5v2h-4.4v6.7h-2.3v-8.7H158.8z"/>
	<path class="st0" d="M161.6,42.6c-0.4,0-0.7-0.1-1-0.4c-0.3-0.3-0.4-0.6-0.4-1s0.1-0.7,0.4-1c0.3-0.3,0.6-0.4,1-0.4
		c0.4,0,0.7,0.1,1,0.4c0.3,0.3,0.4,0.6,0.4,1s-0.1,0.7-0.4,1C162.3,42.4,162,42.6,161.6,42.6z M162.8,52.2h-2.3v-8.7h2.3V52.2z"/>
	<path class="st0" d="M167.5,52.2h-2.3v-8.7h2.3v3.2h3.6v-3.2h2.3v8.7h-2.3v-3.5h-3.6V52.2z"/>
</g>
</svg>
