<?xml version="1.0" encoding="utf-8"?>
<!-- Generator: Adobe Illustrator 25.2.3, SVG Export Plug-In . SVG Version: 6.00 Build 0)  -->
<svg version="1.1" id="Layer_1" xmlns="http://www.w3.org/2000/svg" xmlns:xlink="http://www.w3.org/1999/xlink" x="0px" y="0px"
	 viewBox="0 0 202.1 14.6" style="enable-background:new 0 0 202.1 14.6;" xml:space="preserve">
<style type="text/css">
	.st0{fill:#FFFFFF;}
</style>
<g>
	<path class="st0" d="M2.6,0.3v3.4c0,1.5,0.7,2.2,2.2,2.2c0.9,0,1.6-0.1,2.3-0.4V0.3h2.6v12H7.1V7.7C6.2,8,5.3,8.1,4.5,8.1
		C3,8.1,1.9,7.7,1.1,7C0.4,6.2,0,5.1,0,3.7V0.3H2.6z"/>
	<path class="st0" d="M16.2,12.6c-1.3,0-2.5-0.4-3.3-1.3S11.6,9.4,11.6,8c0-1.3,0.4-2.4,1.3-3.2c0.8-0.9,1.9-1.3,3.2-1.3
		c1.3,0,2.3,0.4,3.1,1.3c0.8,0.9,1.2,2,1.2,3.5v0.5h-6.5c0.1,0.6,0.3,1.1,0.8,1.4c0.4,0.4,1,0.6,1.7,0.6c0.4,0,0.8-0.1,1.3-0.2
		c0.5-0.2,0.8-0.4,1.1-0.6l1,1.5C18.9,12.2,17.7,12.6,16.2,12.6z M18.2,7.2c0-0.5-0.2-0.9-0.6-1.3s-0.9-0.6-1.6-0.6
		c-0.6,0-1.2,0.2-1.5,0.6c-0.4,0.4-0.6,0.8-0.6,1.3H18.2z"/>
	<path class="st0" d="M30.7,12.3h-2.9L25.6,9l-1,1.1v2.2h-2.3V3.7h2.3v3.9l3.3-3.9h2.8l-3.4,3.9L30.7,12.3z"/>
	<path class="st0" d="M36,12.3h-2.3V5.7h-2.4v-2h7.2v2H36V12.3z"/>
	<path class="st0" d="M41.1,2.7c-0.4,0-0.7-0.1-1-0.4c-0.3-0.3-0.4-0.6-0.4-1c0-0.4,0.1-0.7,0.4-1c0.3-0.3,0.6-0.4,1-0.4
		c0.4,0,0.7,0.1,1,0.4c0.3,0.3,0.4,0.6,0.4,1c0,0.4-0.1,0.7-0.4,1C41.9,2.6,41.5,2.7,41.1,2.7z M42.3,12.3H40V3.7h2.3V12.3z"/>
	<path class="st0" d="M52.7,12.6c-0.8,0-1.5-0.1-2.2-0.4c-0.7-0.2-1.3-0.6-1.7-1l1-1.6c0.3,0.3,0.8,0.6,1.4,0.8
		c0.6,0.2,1.1,0.4,1.6,0.4c0.5,0,0.8-0.1,1.1-0.3s0.4-0.4,0.4-0.7c0-0.2-0.1-0.4-0.4-0.5c-0.3-0.1-0.6-0.2-1-0.3s-0.8-0.1-1.2-0.3
		c-0.5-0.1-0.9-0.3-1.2-0.4c-0.4-0.2-0.7-0.4-1-0.8c-0.3-0.4-0.4-0.8-0.4-1.4c0-0.8,0.3-1.4,1-1.9c0.6-0.5,1.5-0.8,2.6-0.8
		c1.3,0,2.5,0.4,3.5,1.2l-0.9,1.6c-0.3-0.3-0.6-0.5-1.1-0.7s-1-0.3-1.5-0.3c-0.4,0-0.7,0.1-1,0.2S51.3,5.8,51.3,6
		c0,0.2,0.1,0.4,0.4,0.5c0.3,0.1,0.6,0.2,1,0.3s0.8,0.2,1.2,0.3c0.4,0.1,0.9,0.3,1.2,0.5c0.4,0.2,0.7,0.5,1,0.8
		c0.3,0.4,0.4,0.9,0.4,1.4c0,0.8-0.3,1.5-1,2S53.8,12.6,52.7,12.6z"/>
	<path class="st0" d="M71.4,12.3h-2.3V6.9c0-0.9-0.4-1.4-1.3-1.4c-0.4,0-0.7,0.1-1,0.3C66.4,6,66.2,6.2,66,6.5v5.9h-2.3V6.9
		c0-0.9-0.4-1.4-1.3-1.4c-0.4,0-0.7,0.1-1,0.3C61,6,60.8,6.2,60.6,6.5v5.9h-2.3V3.7h2.3v1.1c0.2-0.3,0.6-0.6,1.1-0.9
		c0.5-0.3,1.1-0.4,1.7-0.4c1.3,0,2.1,0.5,2.4,1.6c0.3-0.4,0.7-0.8,1.2-1.1s1.1-0.5,1.8-0.5c0.8,0,1.4,0.2,1.9,0.7
		c0.4,0.4,0.7,1.1,0.7,2V12.3z"/>
	<path class="st0" d="M81.3,12.3H79v-0.9c-0.6,0.7-1.5,1.1-2.8,1.1c-0.8,0-1.5-0.3-2.1-0.8s-0.9-1.2-0.9-2.1c0-0.9,0.3-1.6,0.9-2.1
		c0.6-0.5,1.3-0.7,2.1-0.7c1.2,0,2.2,0.4,2.8,1.1V6.8c0-0.4-0.2-0.8-0.5-1.1c-0.3-0.3-0.8-0.4-1.4-0.4c-0.9,0-1.8,0.3-2.5,1
		l-0.9-1.5c1-0.9,2.3-1.4,3.8-1.4c1.1,0,2,0.3,2.7,0.8c0.7,0.5,1.1,1.4,1.1,2.5V12.3z M77.2,11c0.9,0,1.5-0.3,1.8-0.8V9.2
		c-0.4-0.5-1-0.8-1.8-0.8c-0.5,0-0.9,0.1-1.2,0.4c-0.3,0.2-0.5,0.6-0.5,1c0,0.4,0.2,0.7,0.5,0.9C76.3,10.9,76.7,11,77.2,11z"/>
	<path class="st0" d="M86.1,12.3h-2.3v-12h2.3V12.3z"/>
	<path class="st0" d="M90.8,12.3h-2.3v-12h2.3V12.3z"/>
	<path class="st0" d="M95.4,12.1c-0.3,0.3-0.6,0.4-1,0.4c-0.4,0-0.7-0.1-1-0.4c-0.3-0.3-0.4-0.6-0.4-1s0.1-0.7,0.4-1s0.6-0.4,1-0.4
		c0.4,0,0.7,0.1,1,0.4s0.4,0.6,0.4,1S95.7,11.8,95.4,12.1z"/>
	<path class="st0" d="M106.5,12.3h-2.9L101.4,9l-1,1.1v2.2H98v-12h2.3v7.2l3.3-3.9h2.8L103,7.6L106.5,12.3z"/>
	<path class="st0" d="M114.5,12.3h-7.1v-1.7l3.9-5h-3.9v-2h7v1.7l-4,5h4V12.3z"/>
	<path class="st0" d="M125.5,12.6c-1.3,0-2.4-0.4-3.3-1.3s-1.3-1.9-1.3-3.3c0-1.3,0.4-2.4,1.3-3.3s2-1.3,3.3-1.3
		c1.5,0,2.7,0.5,3.4,1.6l-1.5,1.4c-0.4-0.6-1-0.9-1.8-0.9c-0.7,0-1.3,0.2-1.7,0.7c-0.4,0.5-0.7,1.1-0.7,1.8s0.2,1.4,0.7,1.8
		c0.4,0.5,1,0.7,1.7,0.7c0.8,0,1.4-0.3,1.8-0.9l1.5,1.4C128.2,12,127,12.6,125.5,12.6z"/>
	<path class="st0" d="M138.1,12.3h-2.3v-0.9c-0.6,0.7-1.5,1.1-2.8,1.1c-0.8,0-1.5-0.3-2.1-0.8s-0.9-1.2-0.9-2.1
		c0-0.9,0.3-1.6,0.9-2.1c0.6-0.5,1.3-0.7,2.1-0.7c1.2,0,2.2,0.4,2.8,1.1V6.8c0-0.4-0.2-0.8-0.5-1.1c-0.3-0.3-0.8-0.4-1.4-0.4
		c-0.9,0-1.8,0.3-2.5,1l-0.9-1.5c1-0.9,2.3-1.4,3.8-1.4c1.1,0,2,0.3,2.7,0.8c0.7,0.5,1.1,1.4,1.1,2.5V12.3z M134,11
		c0.9,0,1.5-0.3,1.8-0.8V9.2c-0.4-0.5-1-0.8-1.8-0.8c-0.5,0-0.9,0.1-1.2,0.4c-0.3,0.2-0.5,0.6-0.5,1c0,0.4,0.2,0.7,0.5,0.9
		C133.1,10.9,133.5,11,134,11z"/>
	<path class="st0" d="M142.7,12.3h-2.2V3.7h2.3v5.3l3.6-5.3h2.3v8.7h-2.3V6.9L142.7,12.3z M147.8,1.2c-0.8,1.1-1.8,1.6-3.2,1.6
		c-1.3,0-2.4-0.5-3.2-1.6l1-0.8c0.5,0.7,1.2,1.1,2.2,1.1c0.9,0,1.6-0.4,2.1-1.1L147.8,1.2z"/>
	<path class="st0" d="M155.1,12.3h-2.3V5.7h-2.4v-2h7.2v2h-2.4V12.3z"/>
	<path class="st0" d="M159.1,3.7h2.3v3h3c1,0,1.7,0.3,2.2,0.8s0.8,1.2,0.8,2c0,0.8-0.3,1.5-0.8,2c-0.5,0.6-1.3,0.8-2.2,0.8h-5.3V3.7
		z M164,8.6h-2.6v1.9h2.6c0.3,0,0.6-0.1,0.7-0.3c0.2-0.2,0.3-0.4,0.3-0.7S165,9,164.8,8.8C164.6,8.6,164.3,8.6,164,8.6z M170.8,12.3
		h-2.3V3.7h2.3V12.3z"/>
	<path class="st0" d="M175.6,12.3h-2.3V3.7h2.3v3.2h3.6V3.7h2.3v8.7h-2.3V8.9h-3.6V12.3z"/>
	<path class="st0" d="M183.1,14.6v-4.1c0.3,0,0.5-0.1,0.6-0.3c0.1-0.1,0.3-0.4,0.4-0.7c0.1-0.4,0.2-0.9,0.3-1.6l0.6-4.2h7v6.7h1v4.2
		h-2.3v-2.2h-5.3v2.2H183.1z M187,5.7L186.7,8c-0.1,1-0.5,1.8-1,2.3h4V5.7H187z"/>
	<path class="st0" d="M202.1,12.3h-2.3v-0.9c-0.6,0.7-1.5,1.1-2.8,1.1c-0.8,0-1.5-0.3-2.1-0.8s-0.9-1.2-0.9-2.1
		c0-0.9,0.3-1.6,0.9-2.1c0.6-0.5,1.3-0.7,2.1-0.7c1.2,0,2.2,0.4,2.8,1.1V6.8c0-0.4-0.2-0.8-0.5-1.1c-0.3-0.3-0.8-0.4-1.4-0.4
		c-0.9,0-1.8,0.3-2.5,1l-0.9-1.5c1-0.9,2.3-1.4,3.8-1.4c1.1,0,2,0.3,2.7,0.8c0.7,0.5,1.1,1.4,1.1,2.5V12.3z M198,11
		c0.9,0,1.5-0.3,1.8-0.8V9.2c-0.4-0.5-1-0.8-1.8-0.8c-0.5,0-0.9,0.1-1.2,0.4c-0.3,0.2-0.5,0.6-0.5,1c0,0.4,0.2,0.7,0.5,0.9
		C197.2,10.9,197.5,11,198,11z"/>
</g>
</svg>
