<?xml version="1.0" encoding="utf-8"?>
<!-- Generator: Adobe Illustrator 25.2.3, SVG Export Plug-In . SVG Version: 6.00 Build 0)  -->
<svg version="1.1" id="Layer_1" xmlns="http://www.w3.org/2000/svg" xmlns:xlink="http://www.w3.org/1999/xlink" x="0px" y="0px"
	 viewBox="0 0 187.3 11.7" style="enable-background:new 0 0 187.3 11.7;" xml:space="preserve">
<style type="text/css">
	.st0{fill:#FFFFFF;}
</style>
<g>
	<path class="st0" d="M34.3,3.2h2.2v2.2c0,0.6,0.1,0.9,0.4,1.2C37.2,6.8,37.6,7,38.2,7c0.7,0,1.2-0.1,1.6-0.3V3.2H42v8.2h-2.2v-3
		c-0.6,0.3-1.4,0.5-2.4,0.5c-1.1,0-1.9-0.2-2.4-0.7c-0.5-0.5-0.7-1.1-0.7-2V3.2z"/>
	<path class="st0" d="M48.2,11.6c-1.3,0-2.3-0.4-3.1-1.2s-1.2-1.8-1.2-3.1c0-1.2,0.4-2.2,1.2-3.1C45.8,3.4,46.8,3,48,3
		c1.2,0,2.2,0.4,3,1.2c0.8,0.8,1.1,1.9,1.1,3.3V8H46c0.1,0.5,0.3,1,0.7,1.4c0.4,0.4,1,0.5,1.6,0.5c0.4,0,0.8-0.1,1.2-0.2
		s0.8-0.3,1-0.6l1,1.4C50.7,11.2,49.6,11.6,48.2,11.6z M50,6.5c0-0.5-0.2-0.9-0.6-1.3c-0.3-0.4-0.8-0.6-1.5-0.6
		c-0.6,0-1.1,0.2-1.4,0.6c-0.3,0.4-0.5,0.8-0.6,1.3H50z"/>
	<path class="st0" d="M61.9,11.4h-2.7L57,8.3l-1,1.1v2.1h-2.2V3.2H56v3.7l3.1-3.7h2.7l-3.2,3.7L61.9,11.4z"/>
	<path class="st0" d="M69.8,11.4h-2.2V3.2h2.2v3h3.4v-3h2.2v8.2h-2.2V8.1h-3.4V11.4z"/>
	<path class="st0" d="M84.8,11.4h-2.2v-0.8c-0.6,0.7-1.5,1.1-2.6,1.1c-0.7,0-1.4-0.2-2-0.7c-0.6-0.5-0.9-1.1-0.9-2
		c0-0.9,0.3-1.5,0.9-2c0.6-0.4,1.2-0.7,2-0.7c1.2,0,2,0.3,2.6,1V6.1c0-0.4-0.2-0.8-0.5-1s-0.8-0.4-1.3-0.4c-0.9,0-1.7,0.3-2.4,1
		l-0.8-1.4c1-0.9,2.2-1.3,3.6-1.3c1.1,0,1.9,0.2,2.6,0.7c0.7,0.5,1,1.3,1,2.4V11.4z M80.9,10.2c0.8,0,1.4-0.2,1.7-0.7v-1
		c-0.4-0.5-0.9-0.7-1.7-0.7c-0.4,0-0.8,0.1-1.1,0.3c-0.3,0.2-0.4,0.5-0.4,0.9c0,0.4,0.1,0.7,0.4,0.9C80.1,10.1,80.4,10.2,80.9,10.2z
		"/>
	<path class="st0" d="M94.6,11.6c-0.7,0-1.4-0.1-2-0.3c-0.7-0.2-1.2-0.5-1.6-0.9l0.9-1.5c0.3,0.3,0.7,0.6,1.3,0.8
		c0.5,0.2,1.1,0.3,1.5,0.3c0.5,0,0.8-0.1,1-0.2S96,9.3,96,9.1c0-0.2-0.1-0.4-0.4-0.5c-0.2-0.1-0.5-0.2-0.9-0.3
		C94.4,8.2,94,8.1,93.6,8c-0.4-0.1-0.8-0.2-1.2-0.4c-0.4-0.2-0.7-0.4-0.9-0.8c-0.2-0.3-0.4-0.8-0.4-1.3c0-0.7,0.3-1.3,0.9-1.8
		C92.7,3.3,93.5,3,94.5,3c1.3,0,2.4,0.4,3.3,1.1L97,5.6c-0.3-0.3-0.6-0.5-1-0.7c-0.4-0.2-0.9-0.3-1.4-0.3c-0.4,0-0.7,0.1-0.9,0.2
		s-0.4,0.3-0.4,0.6c0,0.2,0.1,0.3,0.4,0.5s0.5,0.2,0.9,0.3c0.4,0.1,0.8,0.1,1.2,0.3c0.4,0.1,0.8,0.3,1.2,0.4
		c0.4,0.2,0.7,0.4,0.9,0.8C98,8,98.1,8.5,98.1,9c0,0.8-0.3,1.4-0.9,1.9C96.5,11.4,95.7,11.6,94.6,11.6z"/>
	<path class="st0" d="M112.2,11.4h-2.2V6.2c0-0.9-0.4-1.3-1.2-1.3c-0.4,0-0.7,0.1-1,0.3c-0.3,0.2-0.5,0.4-0.7,0.7v5.5H105V6.2
		c0-0.9-0.4-1.3-1.2-1.3c-0.3,0-0.7,0.1-1,0.3c-0.3,0.2-0.5,0.4-0.7,0.7v5.5h-2.2V3.2h2.2v1.1c0.2-0.3,0.6-0.6,1.1-0.9
		s1-0.4,1.6-0.4c1.2,0,1.9,0.5,2.3,1.5c0.3-0.4,0.6-0.8,1.2-1.1s1.1-0.4,1.7-0.4c0.8,0,1.4,0.2,1.8,0.6s0.6,1,0.6,1.9V11.4z"/>
	<path class="st0" d="M121.6,11.4h-2.2v-0.8c-0.6,0.7-1.5,1.1-2.6,1.1c-0.7,0-1.4-0.2-2-0.7c-0.6-0.5-0.9-1.1-0.9-2
		c0-0.9,0.3-1.5,0.9-2c0.6-0.4,1.2-0.7,2-0.7c1.2,0,2,0.3,2.6,1V6.1c0-0.4-0.2-0.8-0.5-1s-0.8-0.4-1.3-0.4c-0.9,0-1.7,0.3-2.4,1
		l-0.8-1.4c1-0.9,2.2-1.3,3.6-1.3c1.1,0,1.9,0.2,2.6,0.7c0.7,0.5,1,1.3,1,2.4V11.4z M117.7,10.2c0.8,0,1.4-0.2,1.7-0.7v-1
		c-0.4-0.5-0.9-0.7-1.7-0.7c-0.4,0-0.8,0.1-1.1,0.3c-0.3,0.2-0.4,0.5-0.4,0.9c0,0.4,0.1,0.7,0.4,0.9
		C116.9,10.1,117.3,10.2,117.7,10.2z"/>
	<path class="st0" d="M126.1,11.4h-2.2V0.1h2.2V11.4z"/>
	<path class="st0" d="M130.6,11.4h-2.2V0.1h2.2V11.4z"/>
	<path class="st0" d="M135,11.2c-0.3,0.3-0.6,0.4-1,0.4s-0.7-0.1-1-0.4c-0.3-0.3-0.4-0.6-0.4-1s0.1-0.7,0.4-1c0.3-0.3,0.6-0.4,1-0.4
		s0.7,0.1,1,0.4c0.3,0.3,0.4,0.6,0.4,1S135.2,10.9,135,11.2z"/>
	<path class="st0" d="M145.4,11.4h-2.7l-2.2-3.2l-1,1.1v2.1h-2.2V0.1h2.2v6.8l3.1-3.7h2.7l-3.2,3.7L145.4,11.4z"/>
	<path class="st0" d="M153,11.4h-6.7V9.8l3.7-4.7h-3.7V3.2h6.6v1.6l-3.8,4.8h3.8V11.4z"/>
</g>
</svg>
