<?xml version="1.0" encoding="utf-8"?>
<!-- Generator: Adobe Illustrator 27.3.1, SVG Export Plug-In . SVG Version: 6.00 Build 0)  -->
<svg version="1.1" id="Layer_1" xmlns="http://www.w3.org/2000/svg" xmlns:xlink="http://www.w3.org/1999/xlink" x="0px" y="0px"
	 viewBox="0 0 245.2 28.9" style="enable-background:new 0 0 245.2 28.9;" xml:space="preserve">
<style type="text/css">
	.st0{fill:#FFFFFF;}
</style>
<g>
	<path class="st0" d="M22.4,28.5h-5.6V5.8h5.8v13.4l9.2-13.4h6v22.7H32v-14L22.4,28.5z"/>
	<path class="st0" d="M53.4,28.9c-3.5,0-6.4-1.1-8.8-3.3c-2.3-2.2-3.5-5-3.5-8.4c0-3.5,1.2-6.3,3.5-8.5c2.3-2.2,5.2-3.3,8.8-3.3
		c4.6,0,7.8,2,9.9,6.1l-5,2.4c-0.4-0.9-1-1.7-1.9-2.3c-0.9-0.6-1.9-1-2.9-1c-1.8,0-3.3,0.6-4.5,1.9c-1.2,1.3-1.8,2.8-1.8,4.7
		c0,1.9,0.6,3.4,1.8,4.7c1.2,1.3,2.7,1.9,4.5,1.9c1.1,0,2-0.3,2.9-1c0.9-0.6,1.5-1.4,1.9-2.3l5,2.4c-0.9,1.7-2.1,3.2-3.7,4.3
		C57.9,28.3,55.9,28.9,53.4,28.9z"/>
	<path class="st0" d="M87.2,28.5h-5.8V10.9h-9.4v17.6h-5.8V5.8h21.1V28.5z"/>
	<path class="st0" d="M111.3,25.6c-2.3,2.2-5.2,3.3-8.7,3.3c-3.5,0-6.4-1.1-8.7-3.3c-2.3-2.2-3.4-5-3.4-8.4c0-3.4,1.1-6.2,3.4-8.4
		c2.3-2.2,5.2-3.3,8.7-3.3c3.5,0,6.4,1.1,8.7,3.3c2.3,2.2,3.4,5,3.4,8.4C114.7,20.6,113.5,23.4,111.3,25.6z M102.6,23.7
		c1.8,0,3.3-0.6,4.5-1.9c1.1-1.2,1.7-2.8,1.7-4.7c0-1.9-0.6-3.4-1.7-4.7c-1.1-1.2-2.6-1.9-4.5-1.9c-1.9,0-3.4,0.6-4.5,1.9
		c-1.1,1.2-1.7,2.8-1.7,4.7c0,1.9,0.6,3.4,1.7,4.7C99.2,23.1,100.7,23.7,102.6,23.7z"/>
	<path class="st0" d="M114.5,28.9v-5.2c1.1,0,2-0.5,2.7-1.4c0.6-0.9,1.1-2.6,1.4-5L120,5.8h16.9v22.7h-5.8V10.9h-5.8l-0.8,6.8
		c-0.3,2.2-0.7,4.1-1.3,5.6c-0.6,1.5-1.3,2.7-2.2,3.4c-0.9,0.8-1.9,1.3-2.9,1.6C117.1,28.7,115.9,28.9,114.5,28.9z"/>
	<path class="st0" d="M141.3,5.8h5.8v7.6h5.5c2.4,0,4.4,0.7,5.8,2.2c1.4,1.4,2.1,3.2,2.1,5.4c0,2.2-0.7,3.9-2.1,5.4
		s-3.3,2.2-5.8,2.2h-11.3V5.8z M151.9,18.5h-4.7v4.9h4.7c0.8,0,1.4-0.2,2-0.6c0.5-0.4,0.8-1,0.8-1.8c0-0.7-0.3-1.3-0.8-1.8
		S152.7,18.5,151.9,18.5z"/>
	<path class="st0" d="M171.5,28.9c-2.1,0-4-0.3-5.8-1c-1.7-0.7-3.1-1.5-4-2.6l3-4c0.8,0.7,1.8,1.3,3,1.8s2.4,0.6,3.5,0.6
		c1.3,0,2.3-0.2,3.1-0.6c0.7-0.4,1.1-0.9,1.1-1.6c0-0.7-0.3-1.1-1-1.4c-0.7-0.3-1.8-0.5-3.4-0.5h-4.6v-5.1h4.6c2.7,0,4-0.6,4-1.8
		c0-0.7-0.4-1.2-1.1-1.5c-0.8-0.4-1.8-0.5-3-0.5c-2.4,0-4.4,0.7-6,2.2L162,9.1c1-1.1,2.3-2,4-2.7c1.6-0.7,3.5-1,5.5-1
		c2.9,0,5.2,0.6,6.8,1.7c1.7,1.1,2.5,2.6,2.5,4.5c0,1.3-0.5,2.4-1.4,3.3c-1,0.9-2.1,1.5-3.5,1.7c1.4,0.1,2.6,0.7,3.7,1.6
		s1.6,2.2,1.6,3.7c0,2-0.9,3.6-2.8,4.8C176.7,28.2,174.3,28.9,171.5,28.9z"/>
	<path class="st0" d="M188.3,28.9c-2.4,0-4.3-0.6-5.7-1.7l2.3-4.6c1,0.7,2,1.1,2.9,1.1c0.7,0,1.3-0.1,1.6-0.4
		c0.4-0.3,0.8-0.7,1.1-1.3l-8.2-16.2h6.6l4.9,10.6l4.9-10.6h6.6L196.2,24C194.5,27.3,191.9,28.9,188.3,28.9z"/>
	<path class="st0" d="M213,28.5h-5.6V5.8h5.8v13.4l9.2-13.4h6v22.7h-5.9v-14L213,28.5z M223.8,1.9c-1.5,2-3.5,3-5.9,3
		c-2.5,0-4.5-1-6-3l2.2-1.8c1,1.3,2.2,2,3.7,2c1.6,0,2.8-0.7,3.7-2L223.8,1.9z"/>
</g>
</svg>
