<?xml version="1.0" encoding="utf-8"?>
<!-- Generator: Adobe Illustrator 27.3.1, SVG Export Plug-In . SVG Version: 6.00 Build 0)  -->
<svg version="1.1" id="Layer_1" xmlns="http://www.w3.org/2000/svg" xmlns:xlink="http://www.w3.org/1999/xlink" x="0px" y="0px"
	 viewBox="0 0 187.3 15" style="enable-background:new 0 0 187.3 15;" xml:space="preserve">
<style type="text/css">
	.st0{fill:#FFFFFF;}
</style>
<g>
	<path class="st0" d="M22,11.3h-2.7l-2.1-3.1l-1,1v2.1h-2.1V3.3h2.1v3.6l3.1-3.6h2.6l-3.2,3.7L22,11.3z"/>
	<path class="st0" d="M30.2,11.3h-2.1v-0.8c-0.6,0.7-1.4,1-2.6,1c-0.7,0-1.4-0.2-1.9-0.7s-0.9-1.1-0.9-2c0-0.9,0.3-1.5,0.8-2
		c0.6-0.4,1.2-0.7,2-0.7c1.1,0,2,0.3,2.6,1V6.1c0-0.4-0.2-0.7-0.5-1s-0.8-0.4-1.3-0.4c-0.9,0-1.7,0.3-2.4,1l-0.8-1.4
		c1-0.8,2.1-1.3,3.5-1.3c1,0,1.9,0.2,2.5,0.7c0.7,0.5,1,1.3,1,2.3V11.3z M26.4,10.1c0.8,0,1.4-0.2,1.7-0.7v-1
		c-0.3-0.5-0.9-0.7-1.7-0.7c-0.4,0-0.8,0.1-1.1,0.3c-0.3,0.2-0.4,0.5-0.4,0.9c0,0.4,0.1,0.7,0.4,0.9C25.6,10,26,10.1,26.4,10.1z"/>
	<path class="st0" d="M37.1,11.5c-1,0-1.8-0.4-2.5-1.2v4.1h-2.1V3.3h2.1v1c0.6-0.8,1.5-1.2,2.5-1.2c1.1,0,1.9,0.4,2.6,1.1
		s1,1.8,1,3.1c0,1.3-0.3,2.3-1,3.1S38.1,11.5,37.1,11.5z M36.4,9.6c0.6,0,1.1-0.2,1.5-0.7c0.4-0.4,0.6-1,0.6-1.7
		c0-0.7-0.2-1.3-0.6-1.7c-0.4-0.4-0.9-0.7-1.5-0.7c-0.3,0-0.7,0.1-1,0.3c-0.3,0.2-0.6,0.4-0.8,0.7v2.9C34.8,9,35,9.2,35.4,9.4
		C35.7,9.5,36.1,9.6,36.4,9.6z"/>
	<path class="st0" d="M46,11.3h-2.1V5.1h-2.3V3.3h6.6v1.9H46V11.3z"/>
	<path class="st0" d="M49.5,14.5l0.3-1.9c0.2,0.1,0.4,0.1,0.7,0.1c0.6,0,0.9-0.2,1.1-0.6l0.3-0.7l-3.3-8.2h2.3L53,8.9l2.1-5.6h2.3
		l-3.8,9.4c-0.3,0.7-0.7,1.2-1.2,1.5c-0.5,0.3-1.1,0.4-1.9,0.5C50.1,14.6,49.8,14.6,49.5,14.5z"/>
	<path class="st0" d="M75,11.3h-2.4V3.5l-3.1,7.8h-1l-3.1-7.8v7.8H63V0.2h3.3L69,6.9l2.7-6.7H75V11.3z"/>
	<path class="st0" d="M84.3,11.3h-2.1v-0.8c-0.6,0.7-1.4,1-2.6,1c-0.7,0-1.4-0.2-1.9-0.7s-0.9-1.1-0.9-2c0-0.9,0.3-1.5,0.8-2
		c0.6-0.4,1.2-0.7,2-0.7c1.1,0,2,0.3,2.6,1V6.1c0-0.4-0.2-0.7-0.5-1S81,4.8,80.4,4.8c-0.9,0-1.7,0.3-2.4,1l-0.8-1.4
		c1-0.8,2.1-1.3,3.5-1.3c1,0,1.9,0.2,2.5,0.7c0.7,0.5,1,1.3,1,2.3V11.3z M80.5,10.1c0.8,0,1.4-0.2,1.7-0.7v-1
		c-0.3-0.5-0.9-0.7-1.7-0.7c-0.4,0-0.8,0.1-1.1,0.3C79.1,8.2,79,8.5,79,8.9c0,0.4,0.1,0.7,0.4,0.9C79.7,10,80.1,10.1,80.5,10.1z"/>
	<path class="st0" d="M89.9,14.6c-1.4,0-2.5-0.4-3.5-1.2l1-1.5c0.6,0.7,1.4,1,2.5,1c0.6,0,1.1-0.2,1.6-0.5c0.4-0.3,0.7-0.8,0.7-1.6
		V10c-0.7,0.8-1.5,1.3-2.5,1.3c-1,0-1.9-0.4-2.6-1.1c-0.7-0.7-1-1.7-1-3c0-1.3,0.3-2.3,1-3c0.7-0.7,1.5-1.1,2.6-1.1
		c1,0,1.8,0.4,2.5,1.2v-1h2.1v7.5c0,0.7-0.1,1.4-0.4,1.9c-0.3,0.5-0.6,0.9-1.1,1.2c-0.4,0.3-0.9,0.5-1.4,0.6
		C90.9,14.5,90.4,14.6,89.9,14.6z M90.3,9.4c0.3,0,0.7-0.1,1-0.3s0.6-0.4,0.8-0.7V5.9c-0.2-0.3-0.4-0.5-0.8-0.7
		c-0.3-0.2-0.7-0.3-1-0.3c-0.6,0-1.1,0.2-1.5,0.6c-0.4,0.4-0.6,0.9-0.6,1.6c0,0.7,0.2,1.2,0.6,1.6C89.2,9.2,89.7,9.4,90.3,9.4z"/>
	<path class="st0" d="M104.1,11.3H102V6.5c0-1-0.5-1.5-1.5-1.5c-0.8,0-1.4,0.3-1.8,1v5.4h-2.1V3.3h2.1v1.1c0.7-0.8,1.6-1.3,2.8-1.3
		c0.9,0,1.5,0.2,2,0.7c0.4,0.5,0.7,1.1,0.7,1.9V11.3z"/>
	<path class="st0" d="M113.9,11.3h-2.1v-1c-0.7,0.8-1.7,1.2-2.8,1.2c-0.9,0-1.5-0.2-2-0.7c-0.4-0.4-0.7-1.1-0.7-1.9V3.3h2.1v4.9
		c0,1,0.5,1.5,1.5,1.5c0.7,0,1.4-0.3,1.8-0.9V3.3h2.1V11.3z"/>
	<path class="st0" d="M128.3,11.3h-2.1V6.2c0-0.9-0.4-1.3-1.2-1.3c-0.3,0-0.7,0.1-1,0.3c-0.3,0.2-0.5,0.4-0.7,0.7v5.4h-2.1V6.2
		c0-0.9-0.4-1.3-1.2-1.3c-0.3,0-0.7,0.1-1,0.3c-0.3,0.2-0.5,0.4-0.7,0.7v5.4h-2.1V3.3h2.1v1.1c0.2-0.3,0.6-0.6,1.1-0.8
		c0.5-0.3,1-0.4,1.6-0.4c1.2,0,1.9,0.5,2.2,1.5c0.3-0.4,0.6-0.7,1.1-1c0.5-0.3,1-0.4,1.6-0.4c0.8,0,1.3,0.2,1.8,0.6
		c0.4,0.4,0.6,1,0.6,1.8V11.3z"/>
	<path class="st0" d="M140.5,11.5c-1.7,0-3.1-0.5-4.2-1.6c-1.1-1.1-1.7-2.5-1.7-4.1c0-1.7,0.6-3.1,1.7-4.1c1.1-1.1,2.5-1.6,4.2-1.6
		c2.1,0,3.6,0.9,4.7,2.7l-2,1c-0.2-0.5-0.6-0.9-1.1-1.2c-0.5-0.3-1-0.5-1.5-0.5c-1,0-1.8,0.3-2.5,1c-0.7,0.7-1,1.6-1,2.6
		c0,1.1,0.3,1.9,1,2.6c0.7,0.7,1.5,1,2.5,1c0.6,0,1.1-0.2,1.5-0.5c0.5-0.3,0.8-0.7,1.1-1.2l2,1C144,10.6,142.5,11.5,140.5,11.5z"/>
	<path class="st0" d="M148.8,11.3h-2.1V0.2h2.1V11.3z"/>
	<path class="st0" d="M158.6,11.3h-2.1v-1c-0.7,0.8-1.7,1.2-2.8,1.2c-0.9,0-1.5-0.2-2-0.7c-0.4-0.4-0.7-1.1-0.7-1.9V3.3h2.1v4.9
		c0,1,0.5,1.5,1.5,1.5c0.7,0,1.4-0.3,1.8-0.9V3.3h2.1V11.3z"/>
	<path class="st0" d="M163,11.3h-2.1V0.2h2.1v4.1c0.6-0.8,1.5-1.2,2.5-1.2c1,0,1.9,0.4,2.6,1.2c0.7,0.8,1,1.8,1,3.1
		c0,1.3-0.3,2.3-1,3.1c-0.7,0.8-1.5,1.1-2.6,1.1c-1,0-1.8-0.4-2.5-1.2V11.3z M163,8.7c0.2,0.3,0.4,0.5,0.8,0.6
		c0.3,0.2,0.7,0.3,1,0.3c0.6,0,1.1-0.2,1.5-0.6c0.4-0.4,0.6-1,0.6-1.7s-0.2-1.3-0.6-1.7c-0.4-0.4-0.9-0.7-1.5-0.7
		c-0.3,0-0.7,0.1-1,0.3c-0.3,0.2-0.6,0.4-0.8,0.7V8.7z"/>
</g>
</svg>
